<svg id="Calque_1" data-name="Calque 1" xmlns="http://www.w3.org/2000/svg" viewBox="0 0 344.22 454.57"><defs><style>.cls-1{fill:#fff;}</style></defs><title>Sans titre - 1</title><path class="cls-1" d="M860.2,459.72C869,440.82,871.41,421.21,865,401c-8.83-20.8-25.44-33.64-44.75-43.7a186.26,186.26,0,0,0-27.5-11.74c-3.45-1.14-4.18-2.51-3.25-6.08,4.87-18.66,9.38-37.4,14.15-56.09.8-3.15.53-4.67-3.16-5.49-10.23-2.25-20.4-4.83-30.48-7.65-4.09-1.14-5.24.12-6.16,4-4.3,18.11-9,36.13-13.44,54.2-.54,2.16-.63,4.21-4,3.33-8.36-2.18-16.81-4.05-25.24-6-2.59-.59-3.33-1.51-2.58-4.44,4.75-18.33,9.1-36.77,13.86-55.1,1-3.73.46-5.32-3.47-6.2q-15.33-3.45-30.51-7.58c-3.47-.95-4.7,0-5.49,3.31-2.11,8.86-4.53,17.65-6.83,26.47a20.45,20.45,0,0,0-2.3,9.72,2.43,2.43,0,0,1-.7,2.28c-1.41,3.09-2.52,6.25-2.29,9.72-.41,3.12-2,6-2.41,9-.59,4-2.18,3.3-4.57,2.1-4.51-1.52-9-3.11-13.85-3.16a4.15,4.15,0,0,1-3.15-.84c-10.31-3.78-21.1-5.81-31.71-8.46-8.33-2.08-16.51-4.89-25.11-5.79l-2,.19a362.41,362.41,0,0,0-10.08,40l-.11,1.06c.09,2.55,2.3,2,3.69,2.35,11.28,3,22.86,4.91,33.7,9.47l.09-.1c7.71,4.8,11.09,12.67,9,21.3q-9.61,39-19.34,77.9Q603,496.83,591,544.68c-2.23,8.87-8.61,13.21-17.44,11.44-8.46-1.7-16.85-3.82-25.16-6.16-3.56-1-5.12-.43-6.6,3.16-4.62,11.19-9.72,22.18-14.63,33.24a18.18,18.18,0,0,1-1.56,3.59c-2.71,3.79-.5,5,2.83,5.72,5.86,1.34,11.71,2.68,17.55,4.12,17.67,4.36,35.31,8.84,53,13.12,3.37.81,4.37,1.74,3.38,5.58-5,19.28-9.41,38.7-14.41,58-.78,3-.2,3.58,2.32,4.19,10.51,2.54,21,5.09,31.45,7.88,4,1.07,5.42-.2,6.36-4.13,4.45-18.64,9.23-37.2,13.86-55.8.53-2.14.5-4.13,4-3.08,7.77,2.34,15.68,4.3,23.6,6.08,3.46.78,4.82,1.64,3.75,5.69-5,18.86-9.23,37.91-14.47,56.69-1.16,4.17,1,4.32,3,4.81,10.57,2.63,21.27,4.77,31.8,7.54,3.64,1,4.53-.1,5.31-3.31,4.55-18.75,9.36-37.43,13.89-56.18.87-3.6,1.65-5.15,6.12-4.28,19.34,3.76,38.88,5.78,58.62,4.42,18.5-1.27,35.72-6.31,50.14-18.58,15.9-13.52,24-31.59,29.16-51.23,3.78-14.41,4.84-28.91,0-43.31-6.07-18-19.34-29.47-35.09-38.71-1.19-.7-3-.75-3.29-2.72C837.28,487.71,851.89,477.53,860.2,459.72ZM776.62,563.93c-5,15.48-16.93,22.26-31.94,25.07a72.77,72.77,0,0,1-13.87,1.18c-26.61-.07-49.55-6.54-72.61-12.32-2.85-.71-1.95-2.36-1.49-4.18q8.42-33.62,16.77-67.26c1.13-4.52,2.35-9,3.39-13.55.4-1.74.82-2.6,2.94-2.11,25.75,6,51.75,11.1,74.9,24.86a63.21,63.21,0,0,1,11.86,9.1C777.89,535.74,781.46,548.83,776.62,563.93ZM759.88,460a66.12,66.12,0,0,1-14.44,1c-19-.22-37.16-5.17-55.37-9.86-2.38-.61-2.38-1.86-1.93-3.64q9.12-36.54,18.24-73.08c.47-1.9,1.29-2.86,3.47-2.34,19.41,4.63,39.09,8.41,56.82,18.23,10.92,6,20.32,13.68,23.32,26.57C794.86,437.88,781.67,456.55,759.88,460Z" transform="translate(-524.41 -252.11)"/></svg>