<svg id="Calque_1" data-name="Calque 1" xmlns="http://www.w3.org/2000/svg" viewBox="0 0 36.04 50.28"><defs><style>.cls-1{fill:#fff;}</style></defs><title>busy</title><path class="cls-1" d="M0,28.31c.85.08,1.59.16,2.34.21L10,29l5.31.38c.38,0,.5.16.43.56q-1.66,8.84-3.29,17.68c-.13.69-.25,1.39-.36,2.07,0,.06.07.1.1.11,1.12.57,1.12.57,1.87-.43L35.61,20.36l.43-.61-4-.29-9.31-.61c-1-.07-2-.12-3.07-.15-.51,0-.65-.23-.56-.7q1.55-8.48,3.08-17c.08-.42,0-.72-.44-.87S21-.25,20.59.31Q10.46,14.06.28,27.78C.26,28,.17,28.06,0,28.31Z" transform="translate(0 0.05)"/></svg>