<svg id="Layer_1" data-name="Layer 1" xmlns="http://www.w3.org/2000/svg" viewBox="0 0 79.83 58.9"><defs><style>.cls-1{fill:#fff;}.cls-2{fill:#415f79;}.cls-3,.cls-6{fill:#536e86;}.cls-4{fill:#f1c40f;}.cls-5{fill:#e74c3c;}.cls-6{font-size:3.66px;font-family:CourierNewPSMT, Courier New;}</style></defs><title>666</title><path class="cls-1" d="M257.69,257.38a3.57,3.57,0,0,1-2.77,4.21l-60.77,12.34a3.57,3.57,0,0,1-4.2-2.8l-7.1-35a3.57,3.57,0,0,1,2.77-4.21l60.77-12.34a3.57,3.57,0,0,1,4.2,2.8Z" transform="translate(-182.78 -219.55)"/><rect class="cls-2" x="183.43" y="229.99" width="69.12" height="11.18" transform="translate(-225.31 -171.45) rotate(-11.48)"/><rect class="cls-3" x="188.93" y="244.23" width="63.32" height="8.22" transform="translate(-227.8 -170.68) rotate(-11.48)"/><path class="cls-3" d="M190.87,264.51l.13,0,.18.87.42-.08,0,.11-.54.11Z" transform="translate(-182.78 -219.55)"/><path class="cls-3" d="M192.28,264.87a.35.35,0,0,1-.27.44.34.34,0,0,1-.41-.29.35.35,0,0,1,.27-.44A.34.34,0,0,1,192.28,264.87Zm-.55.12c0,.15.14.25.27.23a.24.24,0,0,0,.16-.31c0-.12-.11-.26-.26-.23S191.7,264.86,191.73,265Z" transform="translate(-182.78 -219.55)"/><path class="cls-3" d="M192.42,264.71c0-.08,0-.15-.05-.22l.11,0,0,.14h0a.21.21,0,0,1,.16-.19h0l0,.12h0a.18.18,0,0,0-.14.2.44.44,0,0,0,0,.06l.08.37-.13,0Z" transform="translate(-182.78 -219.55)"/><path class="cls-3" d="M193,264.76a.23.23,0,0,0,.29.19.46.46,0,0,0,.19-.08l0,.09a.58.58,0,0,1-.22.09.33.33,0,0,1-.41-.28.35.35,0,0,1,.25-.44.3.3,0,0,1,.36.27.48.48,0,0,1,0,.06Zm.35-.17a.18.18,0,0,0-.22-.17.21.21,0,0,0-.15.25Z" transform="translate(-182.78 -219.55)"/><path class="cls-3" d="M193.59,264.44c0-.07,0-.13,0-.19l.11,0,0,.11h0a.25.25,0,0,1,.19-.17.21.21,0,0,1,.23.1h0a.3.3,0,0,1,.06-.11.24.24,0,0,1,.14-.08c.09,0,.24,0,.29.26l.08.41-.12,0-.08-.4c0-.13-.09-.2-.2-.18a.17.17,0,0,0-.13.15.21.21,0,0,0,0,.07l.09.43-.12,0-.08-.42c0-.11-.09-.18-.18-.16a.18.18,0,0,0-.13.16.17.17,0,0,0,0,.06l.09.42-.12,0Z" transform="translate(-182.78 -219.55)"/><path class="cls-3" d="M195.17,263.72a.08.08,0,0,1-.16,0,.08.08,0,0,1,.06-.1A.08.08,0,0,1,195.17,263.72Zm0,.92-.14-.7.13,0,.14.7Z" transform="translate(-182.78 -219.55)"/><path class="cls-3" d="M195.45,264.11c0-.09,0-.16-.05-.23l.11,0,0,.12h0a.28.28,0,0,1,.22-.19.32.32,0,0,1,.37.29.34.34,0,0,1-.24.44.25.25,0,0,1-.24-.07h0l.08.38-.13,0Zm.16.16,0,.05a.2.2,0,0,0,.22.11c.13,0,.19-.15.16-.31s-.13-.24-.26-.22a.21.21,0,0,0-.16.2.21.21,0,0,0,0,.05Z" transform="translate(-182.78 -219.55)"/><path class="cls-3" d="M196.32,264.28a.34.34,0,0,0,.18,0c.09,0,.13-.07.11-.13s-.06-.09-.16-.1-.21-.08-.22-.16a.22.22,0,0,1,.2-.25.35.35,0,0,1,.18,0v.1a.28.28,0,0,0-.15,0c-.07,0-.11.07-.1.12s.06.08.16.09.21.07.23.17-.05.23-.22.26a.4.4,0,0,1-.21,0Z" transform="translate(-182.78 -219.55)"/><path class="cls-3" d="M197.48,264l0,.19-.11,0,0-.11h0a.27.27,0,0,1-.2.18c-.11,0-.25,0-.3-.26l-.08-.41.13,0,.08.39c0,.13.09.21.2.19a.18.18,0,0,0,.14-.22l-.09-.43.13,0Z" transform="translate(-182.78 -219.55)"/><path class="cls-3" d="M197.63,263.62c0-.07,0-.13,0-.19l.11,0,0,.11h0a.25.25,0,0,1,.19-.17.21.21,0,0,1,.23.1h0a.28.28,0,0,1,.06-.11.24.24,0,0,1,.14-.08c.09,0,.24,0,.29.26l.08.41-.12,0-.08-.4c0-.13-.09-.2-.19-.18a.17.17,0,0,0-.13.15.21.21,0,0,0,0,.07l.09.43-.12,0-.08-.42c0-.11-.09-.18-.18-.16a.19.19,0,0,0-.13.22l.09.42-.12,0Z" transform="translate(-182.78 -219.55)"/><path class="cls-3" d="M199.64,262.68l.17.84c0,.06,0,.13,0,.18l-.11,0,0-.12h0a.26.26,0,0,1-.21.19.32.32,0,0,1-.37-.29.34.34,0,0,1,.24-.44.24.24,0,0,1,.23.06h0l-.08-.42Zm0,.64,0-.05a.19.19,0,0,0-.21-.11c-.13,0-.19.16-.15.31s.12.24.26.22a.19.19,0,0,0,.16-.19.2.2,0,0,0,0-.06Z" transform="translate(-182.78 -219.55)"/><path class="cls-3" d="M200.62,263.18a.35.35,0,0,1-.27.44.34.34,0,0,1-.41-.29.35.35,0,0,1,.27-.44A.34.34,0,0,1,200.62,263.18Zm-.55.12c0,.15.14.25.27.23a.25.25,0,0,0,.16-.31c0-.12-.11-.26-.26-.23S200,263.17,200.06,263.3Z" transform="translate(-182.78 -219.55)"/><path class="cls-3" d="M200.64,262.48l.13,0,.21,1-.13,0Z" transform="translate(-182.78 -219.55)"/><path class="cls-3" d="M201.75,262.95a.35.35,0,0,1-.27.44.34.34,0,0,1-.41-.29.35.35,0,0,1,.27-.44A.34.34,0,0,1,201.75,262.95Zm-.55.12c0,.15.14.25.27.23a.25.25,0,0,0,.16-.31c0-.12-.11-.26-.26-.23S201.17,262.94,201.2,263.07Z" transform="translate(-182.78 -219.55)"/><path class="cls-3" d="M201.88,262.79c0-.08,0-.15-.05-.22l.11,0,0,.14h0a.21.21,0,0,1,.16-.19h0l0,.12h0a.18.18,0,0,0-.14.2.37.37,0,0,0,0,.06l.08.37-.13,0Z" transform="translate(-182.78 -219.55)"/><path class="cls-3" d="M202.72,263a.34.34,0,0,0,.18,0c.09,0,.13-.07.11-.13s-.06-.09-.16-.1-.21-.08-.22-.16a.22.22,0,0,1,.2-.25.35.35,0,0,1,.18,0v.1a.28.28,0,0,0-.15,0c-.07,0-.11.07-.1.12s.06.08.16.09.2.07.23.17-.05.23-.22.26a.4.4,0,0,1-.21,0Z" transform="translate(-182.78 -219.55)"/><path class="cls-3" d="M203.29,262.07a.08.08,0,0,1-.16,0,.08.08,0,0,1,.06-.1A.08.08,0,0,1,203.29,262.07Zm0,.92-.14-.7.13,0,.14.7Z" transform="translate(-182.78 -219.55)"/><path class="cls-3" d="M203.64,262l0,.2.18,0,0,.1-.18,0,.08.38c0,.09.05.13.12.12l.07,0,0,.09-.11,0a.18.18,0,0,1-.15,0,.26.26,0,0,1-.09-.17l-.08-.38-.11,0,0-.1.11,0,0-.17Z" transform="translate(-182.78 -219.55)"/><path class="cls-3" d="M204.84,262.69l0-.09h0a.26.26,0,0,1-.19.15.2.2,0,0,1-.25-.16c0-.17.1-.29.37-.34h0a.15.15,0,0,0-.19-.13.36.36,0,0,0-.17.09l0-.08a.44.44,0,0,1,.22-.11.25.25,0,0,1,.32.23l.05.26a1,1,0,0,0,0,.17Zm-.09-.35c-.14,0-.29.08-.26.22a.11.11,0,0,0,.14.1.18.18,0,0,0,.14-.15.12.12,0,0,0,0,0Z" transform="translate(-182.78 -219.55)"/><path class="cls-3" d="M205,262.12c0-.07,0-.13,0-.19l.11,0,0,.11h0a.25.25,0,0,1,.19-.17.21.21,0,0,1,.23.1h0a.29.29,0,0,1,.06-.11.24.24,0,0,1,.14-.08c.09,0,.24,0,.29.26l.08.41-.12,0-.08-.4c0-.13-.09-.2-.2-.18a.17.17,0,0,0-.13.15.22.22,0,0,0,0,.07l.09.43-.12,0-.08-.42c0-.11-.09-.18-.18-.16a.19.19,0,0,0-.13.22l.09.42-.12,0Z" transform="translate(-182.78 -219.55)"/><path class="cls-3" d="M206.35,262a.23.23,0,0,0,.29.19.46.46,0,0,0,.19-.08l0,.09a.58.58,0,0,1-.22.09.33.33,0,0,1-.41-.28.35.35,0,0,1,.25-.44.3.3,0,0,1,.36.27s0,0,0,.06Zm.35-.17a.18.18,0,0,0-.22-.17.21.21,0,0,0-.15.25Z" transform="translate(-182.78 -219.55)"/><path class="cls-3" d="M207,261.31l0,.2.18,0,0,.1-.18,0,.08.38c0,.09.05.13.12.12l.07,0,0,.09-.11,0a.18.18,0,0,1-.15,0,.26.26,0,0,1-.09-.17l-.08-.38-.11,0,0-.1.11,0,0-.17Z" transform="translate(-182.78 -219.55)"/><path class="cls-3" d="M207.5,262.33a2.09,2.09,0,0,0,0-.36l.14,0a1.78,1.78,0,0,1-.07.38Z" transform="translate(-182.78 -219.55)"/><path class="cls-3" d="M208.64,261.89a.48.48,0,0,1-.19.08.34.34,0,0,1-.42-.29.36.36,0,0,1,.3-.45.43.43,0,0,1,.18,0v.1a.31.31,0,0,0-.15,0,.27.27,0,0,0,.1.53.37.37,0,0,0,.15-.07Z" transform="translate(-182.78 -219.55)"/><path class="cls-3" d="M209.35,261.4a.35.35,0,0,1-.27.44.34.34,0,0,1-.41-.29.35.35,0,0,1,.27-.44A.34.34,0,0,1,209.35,261.4Zm-.55.12c0,.15.14.25.27.23a.25.25,0,0,0,.16-.31c0-.12-.11-.26-.26-.23S208.77,261.39,208.8,261.52Z" transform="translate(-182.78 -219.55)"/><path class="cls-3" d="M209.48,261.22c0-.07,0-.13,0-.19l.11,0,0,.11h0a.26.26,0,0,1,.2-.18c.1,0,.26,0,.31.25l.08.42-.13,0-.08-.4c0-.11-.08-.2-.2-.17a.19.19,0,0,0-.14.23l.09.42-.13,0Z" transform="translate(-182.78 -219.55)"/><path class="cls-3" d="M210.34,261.44a.34.34,0,0,0,.18,0c.09,0,.13-.07.11-.13s-.05-.09-.16-.1-.21-.08-.22-.16a.22.22,0,0,1,.2-.25.35.35,0,0,1,.18,0v.1a.28.28,0,0,0-.15,0c-.07,0-.11.07-.1.12s.06.08.16.09.2.07.23.17-.05.23-.22.26a.4.4,0,0,1-.21,0Z" transform="translate(-182.78 -219.55)"/><path class="cls-3" d="M211,261.11a.23.23,0,0,0,.29.19.46.46,0,0,0,.19-.08l0,.09a.58.58,0,0,1-.22.09.33.33,0,0,1-.41-.28.35.35,0,0,1,.25-.44.3.3,0,0,1,.36.27.46.46,0,0,1,0,.06Zm.35-.17a.18.18,0,0,0-.22-.17.21.21,0,0,0-.15.25Z" transform="translate(-182.78 -219.55)"/><path class="cls-3" d="M212.17,261.17a.48.48,0,0,1-.19.08.34.34,0,0,1-.42-.29.36.36,0,0,1,.3-.45.42.42,0,0,1,.18,0v.1a.3.3,0,0,0-.15,0,.27.27,0,0,0,.1.53.37.37,0,0,0,.15-.07Z" transform="translate(-182.78 -219.55)"/><path class="cls-3" d="M212.31,260.24l0,.2.18,0,0,.1-.18,0,.08.38c0,.09.05.13.12.12l.07,0,0,.09-.11,0a.18.18,0,0,1-.15,0,.26.26,0,0,1-.09-.17l-.08-.38-.11,0,0-.1.11,0,0-.17Z" transform="translate(-182.78 -219.55)"/><path class="cls-3" d="M212.82,260.73a.23.23,0,0,0,.29.19.46.46,0,0,0,.19-.08l0,.09a.58.58,0,0,1-.22.09.33.33,0,0,1-.41-.28.35.35,0,0,1,.25-.44.3.3,0,0,1,.36.27.46.46,0,0,1,0,.06Zm.35-.17a.18.18,0,0,0-.22-.17.21.21,0,0,0-.15.25Z" transform="translate(-182.78 -219.55)"/><path class="cls-3" d="M213.51,260l0,.2.18,0,0,.1-.18,0,.08.38c0,.09.05.13.12.12l.07,0,0,.09-.11,0a.18.18,0,0,1-.15,0,.26.26,0,0,1-.09-.17l-.08-.38-.11,0,0-.1.11,0,0-.17Z" transform="translate(-182.78 -219.55)"/><path class="cls-3" d="M214.56,260.52c0,.07,0,.13,0,.19l-.11,0,0-.11h0a.27.27,0,0,1-.2.18c-.11,0-.25,0-.3-.26l-.08-.41.13,0,.08.39c0,.13.09.21.2.19a.19.19,0,0,0,.14-.15.19.19,0,0,0,0-.07l-.09-.43.13,0Z" transform="translate(-182.78 -219.55)"/><path class="cls-3" d="M214.71,260.18c0-.08,0-.15-.05-.22l.11,0,0,.14h0a.21.21,0,0,1,.16-.19h0l0,.12h0a.18.18,0,0,0-.14.2.42.42,0,0,0,0,.06l.08.37-.13,0Z" transform="translate(-182.78 -219.55)"/><path class="cls-3" d="M216,260.43l0-.09h0a.26.26,0,0,1-.19.15.2.2,0,0,1-.25-.16c0-.17.1-.29.37-.34h0a.15.15,0,0,0-.19-.13.36.36,0,0,0-.17.09l0-.08a.44.44,0,0,1,.22-.11.25.25,0,0,1,.32.23l.05.26a1,1,0,0,0,0,.17Zm-.09-.35c-.14,0-.29.08-.26.22a.11.11,0,0,0,.14.1.18.18,0,0,0,.14-.15.12.12,0,0,0,0,0Z" transform="translate(-182.78 -219.55)"/><path class="cls-3" d="M216.68,259.22l.17.84c0,.06,0,.13,0,.18l-.11,0,0-.12h0a.26.26,0,0,1-.21.19.32.32,0,0,1-.37-.29.34.34,0,0,1,.24-.44.24.24,0,0,1,.23.06h0l-.08-.42Zm0,.64,0-.05a.19.19,0,0,0-.21-.11c-.13,0-.19.16-.15.31s.12.24.26.22a.19.19,0,0,0,.16-.19.2.2,0,0,0,0-.06Z" transform="translate(-182.78 -219.55)"/><path class="cls-3" d="M217.05,259.28a.08.08,0,0,1-.16,0,.08.08,0,0,1,.06-.1A.08.08,0,0,1,217.05,259.28Zm0,.92-.14-.7.13,0,.14.7Z" transform="translate(-182.78 -219.55)"/><path class="cls-3" d="M217.34,259.66c0-.09,0-.16-.05-.23l.11,0,0,.12h0a.28.28,0,0,1,.22-.19.32.32,0,0,1,.37.3.34.34,0,0,1-.24.44.25.25,0,0,1-.24-.07h0l.08.38-.13,0Zm.16.16,0,.05a.2.2,0,0,0,.22.11c.13,0,.19-.15.16-.31s-.13-.24-.26-.22a.21.21,0,0,0-.16.2.19.19,0,0,0,0,.05Z" transform="translate(-182.78 -219.55)"/><path class="cls-3" d="M218.21,259a.08.08,0,0,1-.16,0,.08.08,0,0,1,.06-.1A.08.08,0,0,1,218.21,259Zm0,.92-.14-.7.13,0,.14.7Z" transform="translate(-182.78 -219.55)"/><path class="cls-3" d="M218.55,259.77a.34.34,0,0,0,.18,0c.09,0,.13-.07.11-.13s-.05-.09-.16-.1-.21-.08-.22-.16a.22.22,0,0,1,.2-.25.35.35,0,0,1,.18,0v.1a.28.28,0,0,0-.15,0c-.07,0-.11.07-.1.12s.06.08.16.09.21.07.23.17-.05.23-.22.26a.4.4,0,0,1-.21,0Z" transform="translate(-182.78 -219.55)"/><path class="cls-3" d="M219.12,258.86a.08.08,0,0,1-.16,0,.08.08,0,0,1,.06-.1A.08.08,0,0,1,219.12,258.86Zm0,.92-.14-.7.13,0,.14.7Z" transform="translate(-182.78 -219.55)"/><path class="cls-3" d="M220,259.58a.48.48,0,0,1-.19.08.34.34,0,0,1-.42-.29.36.36,0,0,1,.3-.45.42.42,0,0,1,.18,0v.1a.3.3,0,0,0-.15,0,.27.27,0,0,0,.1.53.37.37,0,0,0,.15-.07Z" transform="translate(-182.78 -219.55)"/><path class="cls-3" d="M220.11,258.66a.08.08,0,0,1-.16,0,.08.08,0,0,1,.06-.1A.08.08,0,0,1,220.11,258.66Zm0,.92-.14-.7.13,0,.14.7Z" transform="translate(-182.78 -219.55)"/><path class="cls-3" d="M220.38,259c0-.07,0-.13,0-.19l.11,0,0,.11h0a.26.26,0,0,1,.2-.18c.1,0,.26,0,.31.25l.08.42-.13,0-.08-.4c0-.11-.08-.2-.2-.17a.18.18,0,0,0-.14.16.17.17,0,0,0,0,.06l.09.42-.13,0Z" transform="translate(-182.78 -219.55)"/><path class="cls-3" d="M221.75,258.53c0,.05,0,.11,0,.19l.08.41a.4.4,0,0,1,0,.34.37.37,0,0,1-.24.14.46.46,0,0,1-.24,0v-.1a.4.4,0,0,0,.22,0,.21.21,0,0,0,.18-.29l0-.08h0a.26.26,0,0,1-.2.16.32.32,0,0,1-.37-.28.34.34,0,0,1,.24-.43.24.24,0,0,1,.24.08h0l0-.11Zm-.08.3a.18.18,0,0,0,0-.06.19.19,0,0,0-.21-.1c-.12,0-.19.14-.15.31s.12.24.26.21a.19.19,0,0,0,.15-.17.24.24,0,0,0,0-.07Z" transform="translate(-182.78 -219.55)"/><path class="cls-3" d="M222.4,258.78a.23.23,0,0,0,.29.19.46.46,0,0,0,.19-.08l0,.09a.57.57,0,0,1-.22.09.33.33,0,0,1-.42-.28.35.35,0,0,1,.25-.44.3.3,0,0,1,.36.27.59.59,0,0,1,0,.06Zm.35-.17a.18.18,0,0,0-.22-.17.21.21,0,0,0-.15.25Z" transform="translate(-182.78 -219.55)"/><path class="cls-3" d="M222.91,258l.13,0,.21,1-.13,0Z" transform="translate(-182.78 -219.55)"/><path class="cls-3" d="M223.42,258a.08.08,0,0,1-.16,0,.08.08,0,0,1,.06-.1A.08.08,0,0,1,223.42,258Zm0,.92-.14-.7.13,0,.14.7Z" transform="translate(-182.78 -219.55)"/><path class="cls-3" d="M223.77,257.91l0,.2.18,0,0,.1-.18,0,.08.38c0,.09.05.13.12.12l.07,0,0,.09-.11,0a.18.18,0,0,1-.15,0,.27.27,0,0,1-.09-.17l-.08-.38-.11,0,0-.1.11,0,0-.17Z" transform="translate(-182.78 -219.55)"/><path class="cls-3" d="M224.23,258.94a2,2,0,0,0,0-.36l.14,0a1.81,1.81,0,0,1-.07.38Z" transform="translate(-182.78 -219.55)"/><path class="cls-3" d="M224.83,258.49a.34.34,0,0,0,.18,0c.09,0,.13-.07.11-.13s-.06-.09-.16-.1-.21-.08-.22-.16a.22.22,0,0,1,.2-.25.35.35,0,0,1,.18,0v.1a.28.28,0,0,0-.15,0c-.07,0-.11.07-.1.12s.06.08.16.09.2.07.23.17-.05.23-.22.26a.4.4,0,0,1-.21,0Z" transform="translate(-182.78 -219.55)"/><path class="cls-3" d="M225.45,258.16a.23.23,0,0,0,.29.19.47.47,0,0,0,.19-.08l0,.09a.58.58,0,0,1-.22.09.33.33,0,0,1-.41-.28.35.35,0,0,1,.25-.44.3.3,0,0,1,.36.27s0,0,0,.06Zm.35-.17a.19.19,0,0,0-.22-.17.21.21,0,0,0-.15.25Z" transform="translate(-182.78 -219.55)"/><path class="cls-3" d="M226.57,257.21l.17.84c0,.06,0,.13,0,.18l-.11,0,0-.12h0a.26.26,0,0,1-.21.19.33.33,0,0,1-.37-.29.34.34,0,0,1,.24-.44.24.24,0,0,1,.23.06h0l-.08-.42Zm0,.64a.2.2,0,0,0,0-.05.19.19,0,0,0-.21-.11c-.13,0-.19.16-.15.31s.12.24.26.22a.19.19,0,0,0,.15-.19.2.2,0,0,0,0-.06Z" transform="translate(-182.78 -219.55)"/><path class="cls-3" d="M227.69,257l.17.84c0,.06,0,.13,0,.18l-.11,0,0-.12h0a.26.26,0,0,1-.21.19.32.32,0,0,1-.37-.29.34.34,0,0,1,.24-.44.24.24,0,0,1,.23.06h0l-.08-.42Zm0,.64a.21.21,0,0,0,0-.05.19.19,0,0,0-.21-.11c-.13,0-.19.16-.15.31s.12.24.26.22a.19.19,0,0,0,.15-.19.21.21,0,0,0,0-.06Z" transform="translate(-182.78 -219.55)"/><path class="cls-3" d="M228.67,257.48a.35.35,0,0,1-.27.44.34.34,0,0,1-.41-.29.35.35,0,0,1,.27-.44A.34.34,0,0,1,228.67,257.48Zm-.55.12c0,.15.14.25.27.23a.24.24,0,0,0,.16-.31c0-.12-.11-.26-.26-.23S228.09,257.47,228.11,257.6Z" transform="translate(-182.78 -219.55)"/><path class="cls-3" d="M229.21,257.4a.23.23,0,0,0,.29.19.46.46,0,0,0,.19-.08l0,.09a.58.58,0,0,1-.22.09.33.33,0,0,1-.41-.28.35.35,0,0,1,.25-.44.3.3,0,0,1,.35.27.38.38,0,0,1,0,.06Zm.35-.17a.19.19,0,0,0-.22-.17.22.22,0,0,0-.15.25Z" transform="translate(-182.78 -219.55)"/><path class="cls-3" d="M229.89,256.67a.08.08,0,0,1-.06.09.08.08,0,0,1-.09-.06.08.08,0,0,1,.06-.1A.08.08,0,0,1,229.89,256.67Zm0,.92-.14-.7.13,0,.14.7Z" transform="translate(-182.78 -219.55)"/><path class="cls-3" d="M230.81,257.22c0,.07,0,.13,0,.19l-.11,0,0-.11h0a.27.27,0,0,1-.2.18c-.11,0-.25,0-.3-.26l-.08-.41.13,0,.08.39c0,.13.09.21.2.19a.19.19,0,0,0,.14-.15.2.2,0,0,0,0-.07l-.09-.43.13,0Z" transform="translate(-182.78 -219.55)"/><path class="cls-3" d="M231,257.24a.34.34,0,0,0,.18,0c.09,0,.13-.07.11-.13s-.05-.09-.16-.1-.21-.08-.22-.16a.22.22,0,0,1,.2-.25.35.35,0,0,1,.18,0v.1a.28.28,0,0,0-.15,0c-.08,0-.11.07-.1.12s.06.08.16.09.21.07.23.17-.05.23-.22.26a.4.4,0,0,1-.21,0Z" transform="translate(-182.78 -219.55)"/><path class="cls-3" d="M231.53,256.74c0-.07,0-.13,0-.19l.11,0,0,.11h0a.25.25,0,0,1,.19-.17.21.21,0,0,1,.23.1h0a.28.28,0,0,1,.06-.11.24.24,0,0,1,.14-.08c.09,0,.24,0,.29.26l.08.41-.12,0-.08-.4c0-.13-.09-.2-.2-.18a.17.17,0,0,0-.13.15.24.24,0,0,0,0,.07l.09.43-.12,0-.08-.42c0-.11-.09-.18-.18-.16a.18.18,0,0,0-.13.16.17.17,0,0,0,0,.06l.09.42-.12,0Z" transform="translate(-182.78 -219.55)"/><path class="cls-3" d="M233.39,256.52a.35.35,0,0,1-.27.44.34.34,0,0,1-.41-.29.35.35,0,0,1,.27-.44A.34.34,0,0,1,233.39,256.52Zm-.55.12c0,.15.14.25.27.23a.24.24,0,0,0,.16-.31c0-.12-.11-.26-.26-.23S232.81,256.51,232.84,256.64Z" transform="translate(-182.78 -219.55)"/><path class="cls-3" d="M234,255.7l.17.84c0,.06,0,.13,0,.18l-.11,0,0-.12h0a.26.26,0,0,1-.21.19.32.32,0,0,1-.37-.29.34.34,0,0,1,.24-.44.24.24,0,0,1,.23.06h0l-.08-.42Zm0,.64,0-.05a.19.19,0,0,0-.21-.11c-.13,0-.19.16-.15.31s.12.24.26.22a.19.19,0,0,0,.15-.19.2.2,0,0,0,0-.06Z" transform="translate(-182.78 -219.55)"/><path class="cls-3" d="M234.72,255.69l0,.2.18,0,0,.1-.18,0,.08.38c0,.09.05.13.12.12l.07,0,0,.09-.11,0a.18.18,0,0,1-.15,0,.27.27,0,0,1-.09-.17l-.08-.38-.11,0,0-.1.11,0,0-.17Z" transform="translate(-182.78 -219.55)"/><path class="cls-3" d="M235.22,256.18a.23.23,0,0,0,.29.19.46.46,0,0,0,.19-.08l0,.09a.58.58,0,0,1-.22.09.33.33,0,0,1-.41-.28.35.35,0,0,1,.25-.44.3.3,0,0,1,.35.27.4.4,0,0,1,0,.06Zm.35-.17a.19.19,0,0,0-.22-.17.21.21,0,0,0-.15.25Z" transform="translate(-182.78 -219.55)"/><path class="cls-3" d="M235.84,255.86c0-.07,0-.13,0-.19l.11,0,0,.11h0a.25.25,0,0,1,.19-.17.21.21,0,0,1,.23.1h0a.28.28,0,0,1,.06-.11.24.24,0,0,1,.14-.08c.09,0,.24,0,.29.26l.08.41-.12,0-.08-.4c0-.13-.09-.2-.19-.18a.17.17,0,0,0-.13.15.21.21,0,0,0,0,.07l.09.43-.12,0-.08-.42c0-.11-.09-.18-.18-.16a.18.18,0,0,0-.13.16.17.17,0,0,0,0,.06l.09.42-.12,0Z" transform="translate(-182.78 -219.55)"/><path class="cls-3" d="M237,255.66c0-.09,0-.16-.05-.23l.11,0,0,.12h0a.28.28,0,0,1,.22-.19.32.32,0,0,1,.37.3.34.34,0,0,1-.24.44.25.25,0,0,1-.24-.07h0l.08.38-.13,0Zm.16.16,0,.05a.2.2,0,0,0,.22.11c.13,0,.19-.15.16-.31s-.13-.24-.26-.22a.21.21,0,0,0-.16.2.23.23,0,0,0,0,.05Z" transform="translate(-182.78 -219.55)"/><path class="cls-3" d="M238.52,255.48a.35.35,0,0,1-.27.44.34.34,0,0,1-.41-.29.35.35,0,0,1,.27-.44A.34.34,0,0,1,238.52,255.48Zm-.55.12c0,.15.14.25.27.23a.25.25,0,0,0,.16-.31c0-.12-.11-.26-.26-.23S237.94,255.47,238,255.6Z" transform="translate(-182.78 -219.55)"/><path class="cls-3" d="M238.66,255.32c0-.08,0-.15,0-.22l.11,0,0,.14h0a.21.21,0,0,1,.16-.19h0l0,.12h0a.18.18,0,0,0-.14.2.37.37,0,0,0,0,.06l.08.37-.13,0Z" transform="translate(-182.78 -219.55)"/><path class="cls-3" d="M239.49,254.72a.08.08,0,0,1-.16,0,.08.08,0,0,1,.06-.1A.08.08,0,0,1,239.49,254.72Zm0,.92-.14-.7.13,0,.14.7Z" transform="translate(-182.78 -219.55)"/><path class="cls-3" d="M239.77,255.07l0-.19.11,0,0,.11h0a.26.26,0,0,1,.2-.18c.1,0,.26,0,.31.25l.08.42-.13,0-.08-.4c0-.11-.08-.2-.2-.17a.18.18,0,0,0-.14.16.16.16,0,0,0,0,.06l.09.42-.13,0Z" transform="translate(-182.78 -219.55)"/><path class="cls-3" d="M241.16,255.28a.47.47,0,0,1-.19.08.34.34,0,0,1-.42-.29.36.36,0,0,1,.3-.45.42.42,0,0,1,.18,0v.1a.3.3,0,0,0-.15,0,.25.25,0,0,0-.19.31.24.24,0,0,0,.3.21.37.37,0,0,0,.15-.07Z" transform="translate(-182.78 -219.55)"/><path class="cls-3" d="M241.28,254.36a.08.08,0,0,1-.06.09.08.08,0,0,1-.09-.06.08.08,0,0,1,.06-.1A.08.08,0,0,1,241.28,254.36Zm0,.92-.14-.7.13,0,.14.7Z" transform="translate(-182.78 -219.55)"/><path class="cls-3" d="M242.05,254.07l.17.84c0,.06,0,.13,0,.18l-.11,0,0-.12h0a.26.26,0,0,1-.21.19.33.33,0,0,1-.37-.29.34.34,0,0,1,.24-.44.24.24,0,0,1,.23.06h0l-.08-.42Zm0,.64a.21.21,0,0,0,0-.05.19.19,0,0,0-.21-.11c-.13,0-.19.16-.15.31s.12.24.26.22a.19.19,0,0,0,.15-.19.21.21,0,0,0,0-.06Z" transform="translate(-182.78 -219.55)"/><path class="cls-3" d="M242.43,254.12a.08.08,0,0,1-.16,0,.08.08,0,0,1,.06-.1A.08.08,0,0,1,242.43,254.12Zm0,.92-.14-.7.13,0,.14.7Z" transform="translate(-182.78 -219.55)"/><path class="cls-3" d="M243.2,253.83l.17.84c0,.06,0,.13,0,.18l-.11,0,0-.12h0a.26.26,0,0,1-.21.19.33.33,0,0,1-.37-.29.34.34,0,0,1,.24-.44.24.24,0,0,1,.23.06h0l-.08-.42Zm0,.64a.2.2,0,0,0,0-.05.19.19,0,0,0-.21-.11c-.13,0-.19.16-.15.31s.12.24.26.22a.19.19,0,0,0,.15-.19.2.2,0,0,0,0-.06Z" transform="translate(-182.78 -219.55)"/><path class="cls-3" d="M244.17,254.5c0,.07,0,.13,0,.19l-.11,0,0-.11h0a.27.27,0,0,1-.2.18c-.11,0-.25,0-.3-.26l-.08-.41.13,0,.08.39c0,.13.09.21.2.19a.19.19,0,0,0,.14-.15.18.18,0,0,0,0-.07l-.09-.43.13,0Z" transform="translate(-182.78 -219.55)"/><path class="cls-3" d="M244.31,254.14c0-.07,0-.13,0-.19l.11,0,0,.11h0a.26.26,0,0,1,.2-.18c.1,0,.26,0,.31.25l.08.42-.13,0-.08-.4c0-.11-.08-.2-.2-.17a.19.19,0,0,0-.14.23l.09.42-.13,0Z" transform="translate(-182.78 -219.55)"/><path class="cls-3" d="M245.18,253.56l0,.2.18,0,0,.1-.18,0,.08.38c0,.09.05.13.12.12l.07,0,0,.09-.11,0a.18.18,0,0,1-.15,0,.26.26,0,0,1-.09-.17l-.08-.38-.11,0,0-.1.11,0,0-.17Z" transform="translate(-182.78 -219.55)"/><path class="cls-3" d="M246.54,254c0,.07,0,.13,0,.19l-.11,0,0-.11h0a.27.27,0,0,1-.2.18c-.11,0-.25,0-.3-.26l-.08-.41.13,0,.08.39c0,.13.09.21.2.19a.19.19,0,0,0,.14-.15.2.2,0,0,0,0-.07l-.09-.43.13,0Z" transform="translate(-182.78 -219.55)"/><path class="cls-3" d="M246.76,253.24l0,.2.18,0,0,.1-.18,0,.08.38c0,.09.05.13.12.12l.07,0,0,.09-.11,0a.18.18,0,0,1-.15,0,.27.27,0,0,1-.09-.17l-.08-.38-.11,0,0-.1.11,0,0-.17Z" transform="translate(-182.78 -219.55)"/><path class="cls-3" d="M247.37,253l.13,0,.21,1-.13,0Z" transform="translate(-182.78 -219.55)"/><path class="cls-3" d="M248.3,253.86l0-.09h0a.26.26,0,0,1-.19.15.2.2,0,0,1-.25-.16c0-.17.1-.29.37-.34h0a.15.15,0,0,0-.19-.13.36.36,0,0,0-.17.09l0-.08a.44.44,0,0,1,.22-.11.25.25,0,0,1,.32.23l.05.26a1,1,0,0,0,0,.17Zm-.09-.35c-.14,0-.29.08-.26.22a.12.12,0,0,0,.14.1.18.18,0,0,0,.14-.15.12.12,0,0,0,0,0Z" transform="translate(-182.78 -219.55)"/><path class="cls-3" d="M248.61,253.8s0-.12,0-.18l-.17-.84.13,0,.09.44h0a.27.27,0,0,1,.21-.18c.17,0,.33.08.37.3a.34.34,0,0,1-.24.44.26.26,0,0,1-.26-.08h0l0,.12Zm.07-.31,0,0a.2.2,0,0,0,.22.11c.13,0,.19-.15.16-.31s-.12-.25-.26-.22a.21.21,0,0,0-.16.2.26.26,0,0,0,0,.05Z" transform="translate(-182.78 -219.55)"/><path class="cls-3" d="M250,253.15a.35.35,0,0,1-.27.44.34.34,0,0,1-.41-.29.35.35,0,0,1,.27-.44A.34.34,0,0,1,250,253.15Zm-.55.12c0,.15.14.25.27.23a.25.25,0,0,0,.16-.31c0-.12-.11-.26-.26-.23S249.41,253.14,249.44,253.27Z" transform="translate(-182.78 -219.55)"/><path class="cls-3" d="M250.13,253l0-.22.11,0,0,.14h0a.21.21,0,0,1,.16-.19h0l0,.12h0a.18.18,0,0,0-.14.2.37.37,0,0,0,0,.06l.08.37-.13,0Z" transform="translate(-182.78 -219.55)"/><path class="cls-3" d="M250.69,253a.23.23,0,0,0,.29.19.46.46,0,0,0,.19-.08l0,.09a.58.58,0,0,1-.22.09.33.33,0,0,1-.42-.28.35.35,0,0,1,.25-.44.3.3,0,0,1,.35.27s0,0,0,.06Zm.35-.17a.18.18,0,0,0-.22-.17.21.21,0,0,0-.15.25Z" transform="translate(-182.78 -219.55)"/><path class="cls-3" d="M251.71,252.83a.23.23,0,0,0,.29.19.46.46,0,0,0,.19-.08l0,.09a.57.57,0,0,1-.22.09.33.33,0,0,1-.42-.28.35.35,0,0,1,.25-.44.3.3,0,0,1,.36.27.57.57,0,0,1,0,.06Zm.35-.17a.19.19,0,0,0-.22-.17.21.21,0,0,0-.15.25Z" transform="translate(-182.78 -219.55)"/><path class="cls-3" d="M252.4,252.09l0,.2.18,0,0,.1-.18,0,.08.38c0,.09.05.13.12.12l.07,0,0,.09-.11,0a.18.18,0,0,1-.15,0,.26.26,0,0,1-.09-.17l-.08-.38-.11,0,0-.1.11,0,0-.17Z" transform="translate(-182.78 -219.55)"/><path class="cls-3" d="M191.81,266.07l.17.84c0,.06,0,.13,0,.18l-.11,0,0-.12h0a.26.26,0,0,1-.21.19.32.32,0,0,1-.37-.29.34.34,0,0,1,.24-.44.24.24,0,0,1,.23.06h0l-.08-.42Zm0,.64,0-.05a.19.19,0,0,0-.21-.11c-.13,0-.19.16-.15.31s.12.24.26.22a.19.19,0,0,0,.15-.19.2.2,0,0,0,0-.06Z" transform="translate(-182.78 -219.55)"/><path class="cls-3" d="M192.79,266.57a.35.35,0,0,1-.27.44.34.34,0,0,1-.41-.29.35.35,0,0,1,.27-.44A.34.34,0,0,1,192.79,266.57Zm-.55.12c0,.15.14.25.27.23a.24.24,0,0,0,.16-.31c0-.12-.11-.26-.26-.23S192.21,266.56,192.24,266.69Z" transform="translate(-182.78 -219.55)"/><path class="cls-3" d="M192.81,265.87l.13,0,.21,1-.13,0Z" transform="translate(-182.78 -219.55)"/><path class="cls-3" d="M193.92,266.34a.35.35,0,0,1-.27.44.34.34,0,0,1-.41-.29.35.35,0,0,1,.27-.44A.34.34,0,0,1,193.92,266.34Zm-.55.12c0,.15.14.25.27.23a.25.25,0,0,0,.16-.31c0-.12-.11-.26-.26-.23S193.34,266.33,193.37,266.46Z" transform="translate(-182.78 -219.55)"/><path class="cls-3" d="M194.06,266.18c0-.08,0-.15-.05-.22l.11,0,0,.14h0a.21.21,0,0,1,.16-.19h0l0,.12h0a.18.18,0,0,0-.14.2.37.37,0,0,0,0,.06l.08.37-.13,0Z" transform="translate(-182.78 -219.55)"/><path class="cls-3" d="M194.62,266.23a.23.23,0,0,0,.29.19.46.46,0,0,0,.19-.08l0,.09a.58.58,0,0,1-.22.09.33.33,0,0,1-.42-.28.35.35,0,0,1,.25-.44.3.3,0,0,1,.36.27.48.48,0,0,1,0,.06Zm.35-.17a.18.18,0,0,0-.22-.17.21.21,0,0,0-.15.25Z" transform="translate(-182.78 -219.55)"/><path class="cls-3" d="M195.54,265.85c0-.07,0-.13,0-.19l.11,0,0,.11h0a.24.24,0,0,1,.19-.17.21.21,0,0,1,.23.1h0a.29.29,0,0,1,.06-.11.24.24,0,0,1,.14-.08c.09,0,.24,0,.29.26l.08.41-.12,0-.08-.4c0-.13-.09-.2-.2-.18a.17.17,0,0,0-.13.15.23.23,0,0,0,0,.07l.09.43-.12,0-.08-.42c0-.11-.09-.18-.18-.16a.18.18,0,0,0-.13.16.18.18,0,0,0,0,.06l.09.42-.12,0Z" transform="translate(-182.78 -219.55)"/><path class="cls-3" d="M197.23,266l0-.09h0a.26.26,0,0,1-.19.15.2.2,0,0,1-.25-.16c0-.17.1-.29.37-.35h0a.15.15,0,0,0-.19-.13.36.36,0,0,0-.17.09l0-.08a.44.44,0,0,1,.22-.11.25.25,0,0,1,.32.23l.05.26a1,1,0,0,0,0,.16Zm-.09-.35c-.14,0-.29.08-.26.22a.11.11,0,0,0,.14.1.18.18,0,0,0,.14-.15.12.12,0,0,0,0,0Z" transform="translate(-182.78 -219.55)"/><path class="cls-3" d="M198,265.16c0,.05,0,.11,0,.19l.08.41a.41.41,0,0,1,0,.34.38.38,0,0,1-.24.14.46.46,0,0,1-.24,0v-.1a.4.4,0,0,0,.22,0,.21.21,0,0,0,.18-.29l0-.08h0a.25.25,0,0,1-.2.16.32.32,0,0,1-.37-.28.34.34,0,0,1,.24-.43.24.24,0,0,1,.24.08h0l0-.11Zm-.08.3a.19.19,0,0,0-.22-.15c-.12,0-.19.14-.15.31s.12.24.26.21a.19.19,0,0,0,.15-.17.22.22,0,0,0,0-.07Z" transform="translate(-182.78 -219.55)"/><path class="cls-3" d="M198.23,265.3c0-.07,0-.13,0-.19l.11,0,0,.11h0a.26.26,0,0,1,.2-.18c.1,0,.26,0,.31.25l.08.42-.13,0-.08-.4c0-.11-.08-.2-.2-.17a.18.18,0,0,0-.14.16.19.19,0,0,0,0,.06l.09.42-.13,0Z" transform="translate(-182.78 -219.55)"/><path class="cls-3" d="M199.53,265.57l0-.09h0a.26.26,0,0,1-.19.15.2.2,0,0,1-.25-.16c0-.17.1-.29.37-.35h0a.15.15,0,0,0-.19-.13.36.36,0,0,0-.17.09l0-.08a.44.44,0,0,1,.22-.11.25.25,0,0,1,.32.23l.05.26a1.05,1.05,0,0,0,0,.16Zm-.09-.35c-.14,0-.29.08-.26.22a.11.11,0,0,0,.14.1.18.18,0,0,0,.15-.15.12.12,0,0,0,0,0Z" transform="translate(-182.78 -219.55)"/><path class="cls-3" d="M200.53,265.37l0-.09h0a.26.26,0,0,1-.19.15.2.2,0,0,1-.25-.16c0-.17.1-.29.37-.35h0a.15.15,0,0,0-.19-.13.36.36,0,0,0-.17.09l0-.08a.44.44,0,0,1,.22-.11.25.25,0,0,1,.32.23l.05.26a1.06,1.06,0,0,0,0,.16Zm-.09-.35c-.14,0-.29.08-.26.22a.11.11,0,0,0,.14.1.18.18,0,0,0,.15-.15.13.13,0,0,0,0,0Z" transform="translate(-182.78 -219.55)"/><path class="cls-3" d="M200.63,264.28l.13,0,.21,1-.13,0Z" transform="translate(-182.78 -219.55)"/><path class="cls-3" d="M201.14,264.31a.08.08,0,0,1-.16,0,.08.08,0,0,1,.06-.1A.08.08,0,0,1,201.14,264.31Zm0,.92-.14-.7.13,0,.14.7Z" transform="translate(-182.78 -219.55)"/><path class="cls-3" d="M202,265h0a.25.25,0,0,1-.2.17.32.32,0,0,1-.37-.29.34.34,0,0,1,.24-.44.23.23,0,0,1,.24.08h0l0-.11.12,0,0,.19.16.79-.13,0Zm-.06-.31,0-.05a.19.19,0,0,0-.21-.11c-.13,0-.19.15-.16.31s.12.25.26.22a.19.19,0,0,0,.15-.18.2.2,0,0,0,0-.06Z" transform="translate(-182.78 -219.55)"/><path class="cls-3" d="M202.87,264.69c0,.07,0,.14,0,.19l-.11,0,0-.11h0a.27.27,0,0,1-.2.18c-.11,0-.25,0-.3-.26l-.08-.41.13,0,.08.39c0,.13.09.21.2.19a.19.19,0,0,0,.14-.15.2.2,0,0,0,0-.07l-.09-.43.13,0Z" transform="translate(-182.78 -219.55)"/><path class="cls-3" d="M203.51,264.76l0-.09h0a.27.27,0,0,1-.19.15.2.2,0,0,1-.25-.16c0-.17.1-.29.37-.35h0a.15.15,0,0,0-.19-.13.36.36,0,0,0-.17.09l0-.08a.44.44,0,0,1,.22-.11.25.25,0,0,1,.32.23l.05.26a1,1,0,0,0,0,.16Zm-.09-.35c-.14,0-.29.08-.26.22a.11.11,0,0,0,.14.1.18.18,0,0,0,.14-.15.12.12,0,0,0,0,0Z" transform="translate(-182.78 -219.55)"/><path class="cls-3" d="M203.77,264.63a.09.09,0,0,1,.07-.11.09.09,0,1,1-.07.11Z" transform="translate(-182.78 -219.55)"/><path class="cls-3" d="M204.35,263.58l.12.58c0,.22.16.29.29.26s.22-.14.17-.36l-.12-.58.13,0,.12.57c.06.3-.07.45-.28.5s-.37,0-.43-.34l-.12-.57Z" transform="translate(-182.78 -219.55)"/><path class="cls-3" d="M205.33,263.46l0,.2.18,0,0,.1-.18,0,.08.38c0,.09.05.13.12.12l.07,0,0,.09-.11,0a.18.18,0,0,1-.15,0,.26.26,0,0,1-.09-.17l-.08-.38-.11,0,0-.1.11,0,0-.17Z" transform="translate(-182.78 -219.55)"/><path class="cls-3" d="M206.15,263.89a.23.23,0,0,0,.29.19.46.46,0,0,0,.19-.08l0,.09a.58.58,0,0,1-.22.09.33.33,0,0,1-.41-.28.35.35,0,0,1,.25-.44.3.3,0,0,1,.36.27.46.46,0,0,1,0,.06Zm.35-.17a.19.19,0,0,0-.22-.17.21.21,0,0,0-.15.25Z" transform="translate(-182.78 -219.55)"/><path class="cls-3" d="M206.77,263.57c0-.07,0-.13,0-.19l.11,0,0,.11h0a.26.26,0,0,1,.2-.18c.1,0,.26,0,.31.25l.08.42-.13,0-.08-.4c0-.11-.08-.2-.2-.17a.18.18,0,0,0-.14.16.19.19,0,0,0,0,.06l.09.42-.13,0Z" transform="translate(-182.78 -219.55)"/><path class="cls-3" d="M207.63,263a.08.08,0,0,1-.16,0,.08.08,0,0,1,.06-.1A.08.08,0,0,1,207.63,263Zm0,.92-.14-.7.13,0,.14.7Z" transform="translate(-182.78 -219.55)"/><path class="cls-3" d="M207.9,263.34c0-.07,0-.13,0-.19l.11,0,0,.11h0a.25.25,0,0,1,.19-.17.21.21,0,0,1,.23.1h0a.28.28,0,0,1,.06-.11.24.24,0,0,1,.14-.08c.09,0,.24,0,.29.26l.08.41-.12,0-.08-.4c0-.13-.09-.2-.2-.18a.17.17,0,0,0-.13.15.23.23,0,0,0,0,.07l.09.43-.12,0-.08-.42c0-.11-.09-.18-.18-.16a.18.18,0,0,0-.13.16.17.17,0,0,0,0,.06l.09.42-.12,0Z" transform="translate(-182.78 -219.55)"/><path class="cls-3" d="M209.9,263.46l0-.09h0a.26.26,0,0,1-.19.15.2.2,0,0,1-.25-.16c0-.17.1-.29.37-.35h0a.15.15,0,0,0-.19-.13.36.36,0,0,0-.17.09l0-.08a.44.44,0,0,1,.22-.11.25.25,0,0,1,.32.23l.05.26a1,1,0,0,0,0,.16Zm-.09-.35c-.14,0-.29.08-.26.22a.11.11,0,0,0,.14.1.18.18,0,0,0,.15-.15.13.13,0,0,0,0,0Z" transform="translate(-182.78 -219.55)"/><path class="cls-3" d="M210.61,262.26l.17.84c0,.06,0,.13,0,.18l-.11,0,0-.12h0a.26.26,0,0,1-.21.19.32.32,0,0,1-.37-.29.34.34,0,0,1,.24-.44.24.24,0,0,1,.23.06h0l-.08-.42Zm0,.64,0-.05a.19.19,0,0,0-.21-.11c-.13,0-.19.16-.15.31s.12.24.26.22a.19.19,0,0,0,.16-.19.21.21,0,0,0,0-.06Z" transform="translate(-182.78 -219.55)"/><path class="cls-3" d="M211.23,262.67c0-.07,0-.13,0-.19l.11,0,0,.11h0a.25.25,0,0,1,.19-.17.21.21,0,0,1,.23.1h0a.3.3,0,0,1,.06-.11.24.24,0,0,1,.14-.08c.09,0,.24,0,.29.26l.08.41-.12,0-.08-.4c0-.13-.09-.2-.2-.18a.17.17,0,0,0-.13.15.21.21,0,0,0,0,.07l.09.43-.12,0-.08-.42c0-.11-.09-.18-.18-.16a.19.19,0,0,0-.13.22l.09.42-.12,0Z" transform="translate(-182.78 -219.55)"/><path class="cls-3" d="M212.49,262a.08.08,0,0,1-.06.09.08.08,0,0,1-.09-.06.08.08,0,0,1,.06-.1A.08.08,0,0,1,212.49,262Zm0,.92-.14-.7.13,0,.14.7Z" transform="translate(-182.78 -219.55)"/><path class="cls-3" d="M212.77,262.35c0-.07,0-.13,0-.19l.11,0,0,.11h0a.26.26,0,0,1,.2-.18c.1,0,.26,0,.31.25l.08.42-.13,0-.08-.4c0-.11-.08-.2-.2-.17a.18.18,0,0,0-.14.16.17.17,0,0,0,0,.06l.09.42-.13,0Z" transform="translate(-182.78 -219.55)"/><path class="cls-3" d="M213.63,261.78a.08.08,0,0,1-.06.09.08.08,0,0,1-.09-.06.08.08,0,0,1,.06-.1A.08.08,0,0,1,213.63,261.78Zm0,.92-.14-.7.13,0,.14.7Z" transform="translate(-182.78 -219.55)"/><path class="cls-3" d="M213.91,262.12c0-.07,0-.13,0-.19l.11,0,0,.11h0a.25.25,0,0,1,.19-.17.21.21,0,0,1,.23.1h0a.29.29,0,0,1,.06-.11.24.24,0,0,1,.14-.08c.09,0,.24,0,.29.26l.08.41-.12,0-.08-.4c0-.13-.09-.2-.2-.18a.17.17,0,0,0-.13.15.23.23,0,0,0,0,.07l.09.43-.12,0-.08-.42c0-.11-.09-.18-.18-.16a.19.19,0,0,0-.13.22l.09.42-.12,0Z" transform="translate(-182.78 -219.55)"/><path class="cls-3" d="M215.43,261.62l.22.36.09.17h0c0-.06,0-.12,0-.19l.06-.42.13,0-.13.75-.12,0-.41-.64Z" transform="translate(-182.78 -219.55)"/><path class="cls-3" d="M216.2,261.85a.23.23,0,0,0,.29.19.46.46,0,0,0,.19-.08l0,.09a.58.58,0,0,1-.22.09.33.33,0,0,1-.41-.28.35.35,0,0,1,.25-.44.3.3,0,0,1,.36.27.5.5,0,0,1,0,.06Zm.35-.17a.18.18,0,0,0-.22-.17.21.21,0,0,0-.15.25Z" transform="translate(-182.78 -219.55)"/><path class="cls-3" d="M216.82,261.53c0-.07,0-.13,0-.19l.11,0,0,.11h0a.26.26,0,0,1,.2-.18c.1,0,.26,0,.31.25l.08.42-.13,0-.08-.4c0-.11-.08-.2-.2-.17a.19.19,0,0,0-.14.23l.09.42-.13,0Z" transform="translate(-182.78 -219.55)"/><path class="cls-3" d="M217.68,261a.08.08,0,0,1-.16,0,.08.08,0,0,1,.06-.1A.08.08,0,0,1,217.68,261Zm0,.92-.14-.7.13,0,.14.7Z" transform="translate(-182.78 -219.55)"/><path class="cls-3" d="M218.45,261.73l0-.09h0a.26.26,0,0,1-.19.15.2.2,0,0,1-.25-.16c0-.17.1-.29.37-.35h0a.15.15,0,0,0-.19-.13.36.36,0,0,0-.17.09l0-.08a.44.44,0,0,1,.22-.11.25.25,0,0,1,.32.23l.05.26a1.06,1.06,0,0,0,0,.16Zm-.09-.35c-.14,0-.29.08-.26.22a.11.11,0,0,0,.14.1.18.18,0,0,0,.15-.15.13.13,0,0,0,0,0Z" transform="translate(-182.78 -219.55)"/><path class="cls-3" d="M218.65,261.16c0-.07,0-.13,0-.19l.11,0,0,.11h0a.25.25,0,0,1,.19-.17.21.21,0,0,1,.23.1h0a.29.29,0,0,1,.06-.11.24.24,0,0,1,.14-.08c.09,0,.24,0,.29.26l.08.41-.12,0-.08-.4c0-.13-.09-.2-.2-.18a.17.17,0,0,0-.13.15.21.21,0,0,0,0,.07l.09.43-.12,0-.08-.42c0-.11-.09-.18-.18-.16a.18.18,0,0,0-.13.16.18.18,0,0,0,0,.06l.09.42-.12,0Z" transform="translate(-182.78 -219.55)"/><path class="cls-3" d="M219.91,261.62a2.09,2.09,0,0,0,0-.36l.14,0a1.76,1.76,0,0,1-.07.38Z" transform="translate(-182.78 -219.55)"/><path class="cls-3" d="M221,261.09h0a.25.25,0,0,1-.2.17.32.32,0,0,1-.37-.29.34.34,0,0,1,.24-.44.23.23,0,0,1,.24.08h0l0-.11.12,0c0,.06,0,.12,0,.19l.16.79-.13,0Zm-.06-.31,0-.05a.19.19,0,0,0-.21-.11c-.13,0-.19.15-.16.31s.12.25.26.22A.19.19,0,0,0,221,261a.2.2,0,0,0,0-.06Z" transform="translate(-182.78 -219.55)"/><path class="cls-3" d="M221.92,260.82c0,.07,0,.14,0,.19l-.11,0,0-.11h0a.27.27,0,0,1-.2.18c-.11,0-.25,0-.3-.26l-.08-.41.13,0,.08.39c0,.13.09.21.2.19a.19.19,0,0,0,.14-.15.21.21,0,0,0,0-.07l-.09-.43.13,0Z" transform="translate(-182.78 -219.55)"/><path class="cls-3" d="M222.13,260a.08.08,0,0,1-.16,0,.08.08,0,0,1,.06-.1A.08.08,0,0,1,222.13,260Zm0,.92-.14-.7.13,0,.14.7Z" transform="translate(-182.78 -219.55)"/><path class="cls-3" d="M222.47,260.78a.34.34,0,0,0,.18,0c.09,0,.13-.07.11-.13s-.06-.09-.16-.1-.21-.08-.22-.16a.22.22,0,0,1,.2-.25.35.35,0,0,1,.18,0v.1a.27.27,0,0,0-.15,0c-.07,0-.11.07-.1.12s.06.08.16.09.2.07.23.17-.05.23-.22.26a.41.41,0,0,1-.21,0Z" transform="translate(-182.78 -219.55)"/><path class="cls-3" d="M223.28,260.22c0-.07,0-.13,0-.19l.11,0,0,.11h0a.26.26,0,0,1,.2-.18c.1,0,.26,0,.31.25l.08.42-.13,0-.08-.4c0-.11-.08-.2-.2-.17a.19.19,0,0,0-.14.23l.09.42-.13,0Z" transform="translate(-182.78 -219.55)"/><path class="cls-3" d="M224.75,260.08a.35.35,0,0,1-.27.44.34.34,0,0,1-.41-.29.35.35,0,0,1,.27-.44A.34.34,0,0,1,224.75,260.08Zm-.55.12c0,.15.14.25.27.23a.25.25,0,0,0,.16-.31c0-.12-.11-.26-.26-.23A.24.24,0,0,0,224.2,260.2Z" transform="translate(-182.78 -219.55)"/><path class="cls-3" d="M224.94,260.28a.34.34,0,0,0,.18,0c.09,0,.13-.07.11-.13s-.05-.09-.16-.1-.21-.08-.22-.16a.22.22,0,0,1,.2-.25.36.36,0,0,1,.18,0v.1a.28.28,0,0,0-.15,0c-.08,0-.11.07-.1.12s.06.08.16.09.2.07.23.17-.05.23-.22.26a.4.4,0,0,1-.21,0Z" transform="translate(-182.78 -219.55)"/><path class="cls-3" d="M225.52,259.36l0,.2.18,0,0,.1-.18,0,.08.38c0,.09.05.13.12.12l.07,0,0,.09-.11,0a.18.18,0,0,1-.15,0,.26.26,0,0,1-.09-.17l-.08-.38-.11,0,0-.1.11,0,0-.17Z" transform="translate(-182.78 -219.55)"/><path class="cls-3" d="M225.93,259.71c0-.08,0-.15-.05-.22l.11,0,0,.14h0a.21.21,0,0,1,.16-.19h0l0,.12h0a.18.18,0,0,0-.14.2.51.51,0,0,0,0,.06l.08.37-.13,0Z" transform="translate(-182.78 -219.55)"/><path class="cls-3" d="M227,259.78l0,.19-.11,0,0-.11h0a.27.27,0,0,1-.2.18c-.11,0-.25,0-.3-.26l-.08-.41.13,0,.08.39c0,.13.09.21.2.19a.19.19,0,0,0,.14-.15.18.18,0,0,0,0-.07l-.09-.43.13,0Z" transform="translate(-182.78 -219.55)"/><path class="cls-3" d="M227.69,258.78l.17.84c0,.06,0,.13,0,.18l-.11,0,0-.12h0a.26.26,0,0,1-.21.19.32.32,0,0,1-.37-.29.34.34,0,0,1,.24-.44.24.24,0,0,1,.23.06h0l-.08-.42Zm0,.64,0-.05a.19.19,0,0,0-.21-.11c-.13,0-.19.16-.15.31s.12.24.26.22a.19.19,0,0,0,.16-.19.25.25,0,0,0,0-.06Z" transform="translate(-182.78 -219.55)"/><path class="cls-3" d="M228.42,259.36a.23.23,0,0,0,.29.19.46.46,0,0,0,.19-.08l0,.09a.58.58,0,0,1-.22.09.33.33,0,0,1-.42-.28.35.35,0,0,1,.25-.44.3.3,0,0,1,.35.27.39.39,0,0,1,0,.06Zm.35-.17a.18.18,0,0,0-.22-.17.21.21,0,0,0-.15.25Z" transform="translate(-182.78 -219.55)"/><path class="cls-3" d="M229.05,258.85l.13.13.09.1h0l0-.13.07-.17.14,0-.17.39.32.31-.14,0-.13-.14-.1-.11h0l0,.14-.07.18-.14,0,.18-.41-.31-.29Z" transform="translate(-182.78 -219.55)"/><path class="cls-3" d="M229.79,259.09a.23.23,0,0,0,.29.19.46.46,0,0,0,.19-.08l0,.09a.57.57,0,0,1-.22.09.33.33,0,0,1-.42-.28.35.35,0,0,1,.25-.44.3.3,0,0,1,.36.27s0,0,0,.06Zm.35-.17a.19.19,0,0,0-.22-.17.21.21,0,0,0-.15.25Z" transform="translate(-182.78 -219.55)"/><path class="cls-3" d="M230.41,258.8c0-.08,0-.15-.05-.22l.11,0,0,.14h0a.21.21,0,0,1,.16-.19h0l0,.12h0a.18.18,0,0,0-.14.2.37.37,0,0,0,0,.06l.08.37-.13,0Z" transform="translate(-182.78 -219.55)"/><path class="cls-3" d="M231.45,259.06a.48.48,0,0,1-.19.08.34.34,0,0,1-.42-.29.36.36,0,0,1,.3-.45.43.43,0,0,1,.18,0v.1a.3.3,0,0,0-.15,0,.25.25,0,0,0-.19.31.24.24,0,0,0,.3.21.37.37,0,0,0,.15-.07Z" transform="translate(-182.78 -219.55)"/><path class="cls-3" d="M231.57,258.13a.08.08,0,0,1-.16,0,.08.08,0,0,1,.06-.1A.08.08,0,0,1,231.57,258.13Zm0,.92-.14-.7.13,0,.14.7Z" transform="translate(-182.78 -219.55)"/><path class="cls-3" d="M231.92,258.06l0,.2.18,0,0,.1-.18,0,.08.38c0,.09.05.13.12.12l.07,0,0,.09-.11,0a.18.18,0,0,1-.15,0,.27.27,0,0,1-.09-.17l-.08-.38-.11,0,0-.1.11,0,0-.17Z" transform="translate(-182.78 -219.55)"/><path class="cls-3" d="M232.81,258.81l0-.09h0a.27.27,0,0,1-.19.15.2.2,0,0,1-.25-.16c0-.17.1-.29.37-.35h0a.15.15,0,0,0-.19-.13.36.36,0,0,0-.17.09l0-.08a.44.44,0,0,1,.22-.11.25.25,0,0,1,.32.23l.05.26a1,1,0,0,0,0,.16Zm-.09-.35c-.14,0-.29.08-.26.22a.11.11,0,0,0,.14.1.18.18,0,0,0,.14-.15.12.12,0,0,0,0,0Z" transform="translate(-182.78 -219.55)"/><path class="cls-3" d="M233.08,257.82l0,.2.18,0,0,.1-.18,0,.08.38c0,.09.05.13.12.12l.07,0,0,.09-.11,0a.18.18,0,0,1-.15,0,.26.26,0,0,1-.09-.17l-.08-.38-.11,0,0-.1.11,0,0-.17Z" transform="translate(-182.78 -219.55)"/><path class="cls-3" d="M233.55,257.73a.08.08,0,0,1-.06.09.08.08,0,0,1-.09-.06.08.08,0,0,1,.06-.1A.08.08,0,0,1,233.55,257.73Zm0,.92-.14-.7.13,0,.14.7Z" transform="translate(-182.78 -219.55)"/><path class="cls-3" d="M234.49,258.1a.35.35,0,0,1-.27.44.34.34,0,0,1-.41-.29.35.35,0,0,1,.27-.44A.34.34,0,0,1,234.49,258.1Zm-.55.12c0,.15.14.25.27.23a.24.24,0,0,0,.16-.31c0-.12-.11-.26-.26-.23S233.91,258.09,233.94,258.22Z" transform="translate(-182.78 -219.55)"/><path class="cls-3" d="M234.62,257.91c0-.07,0-.13,0-.19l.11,0,0,.11h0a.26.26,0,0,1,.21-.18c.1,0,.26,0,.31.25l.08.42-.13,0-.08-.4c0-.11-.08-.2-.2-.17a.19.19,0,0,0-.14.23l.09.42-.13,0Z" transform="translate(-182.78 -219.55)"/><path class="cls-3" d="M236.37,257.89l0,.19-.11,0,0-.11h0a.27.27,0,0,1-.2.18c-.11,0-.25,0-.3-.26l-.08-.41.13,0,.08.39c0,.13.09.21.2.19a.19.19,0,0,0,.14-.15.21.21,0,0,0,0-.07l-.09-.43.13,0Z" transform="translate(-182.78 -219.55)"/><path class="cls-3" d="M236.42,257l.13,0,.21,1-.13,0Z" transform="translate(-182.78 -219.55)"/><path class="cls-3" d="M236.76,256.94l.13,0,.21,1-.13,0Z" transform="translate(-182.78 -219.55)"/><path class="cls-3" d="M237.69,257.82l0-.09h0a.26.26,0,0,1-.19.15.2.2,0,0,1-.25-.16c0-.17.1-.29.37-.35h0a.15.15,0,0,0-.19-.13.36.36,0,0,0-.17.09l0-.08a.45.45,0,0,1,.22-.11.25.25,0,0,1,.32.23l.05.26a1,1,0,0,0,0,.16Zm-.09-.35c-.14,0-.29.08-.26.22a.11.11,0,0,0,.14.1.18.18,0,0,0,.15-.15.12.12,0,0,0,0,0Z" transform="translate(-182.78 -219.55)"/><path class="cls-3" d="M237.9,257.25l0-.19.11,0,0,.11h0a.25.25,0,0,1,.19-.17.21.21,0,0,1,.23.1h0a.28.28,0,0,1,.06-.11.24.24,0,0,1,.14-.08c.09,0,.24,0,.29.26l.08.41-.12,0-.08-.4c0-.13-.09-.2-.2-.18a.17.17,0,0,0-.13.15.21.21,0,0,0,0,.07l.09.43-.12,0-.08-.42c0-.11-.09-.18-.18-.16a.18.18,0,0,0-.13.16.17.17,0,0,0,0,.06l.09.42-.12,0Z" transform="translate(-182.78 -219.55)"/><path class="cls-3" d="M239.7,257.39a.48.48,0,0,1-.19.08.34.34,0,0,1-.42-.29.36.36,0,0,1,.3-.45.43.43,0,0,1,.18,0v.1a.3.3,0,0,0-.15,0,.25.25,0,0,0-.19.31.24.24,0,0,0,.3.21.37.37,0,0,0,.15-.07Z" transform="translate(-182.78 -219.55)"/><path class="cls-3" d="M240.4,256.9a.35.35,0,0,1-.27.44.34.34,0,0,1-.41-.29.35.35,0,0,1,.27-.44A.34.34,0,0,1,240.4,256.9Zm-.55.12c0,.15.14.25.27.23a.25.25,0,0,0,.16-.31c0-.12-.11-.26-.26-.23S239.82,256.89,239.85,257Z" transform="translate(-182.78 -219.55)"/><path class="cls-3" d="M240.73,256.14l.13,0,.21,1-.13,0Z" transform="translate(-182.78 -219.55)"/><path class="cls-3" d="M241.67,257l0-.09h0a.26.26,0,0,1-.19.15.2.2,0,0,1-.25-.16c0-.17.1-.29.37-.35h0a.15.15,0,0,0-.19-.13.35.35,0,0,0-.17.09l0-.08a.44.44,0,0,1,.22-.11.25.25,0,0,1,.32.23l.05.26a1.13,1.13,0,0,0,0,.16Zm-.09-.35c-.14,0-.29.08-.26.22a.11.11,0,0,0,.14.1.18.18,0,0,0,.15-.15.12.12,0,0,0,0,0Z" transform="translate(-182.78 -219.55)"/><path class="cls-3" d="M242,257s0-.12,0-.18l-.17-.84.13,0,.09.44h0a.27.27,0,0,1,.21-.18.32.32,0,0,1,.37.3.34.34,0,0,1-.24.44.25.25,0,0,1-.26-.08h0l0,.12Zm.07-.31,0,0a.2.2,0,0,0,.22.11c.13,0,.19-.15.16-.31s-.13-.25-.26-.22a.21.21,0,0,0-.16.2.36.36,0,0,0,0,.05Z" transform="translate(-182.78 -219.55)"/><path class="cls-3" d="M243.36,256.3a.35.35,0,0,1-.27.44.34.34,0,0,1-.41-.29.35.35,0,0,1,.27-.44A.34.34,0,0,1,243.36,256.3Zm-.55.12c0,.15.14.25.27.23a.24.24,0,0,0,.16-.31c0-.12-.11-.26-.26-.23S242.78,256.29,242.81,256.42Z" transform="translate(-182.78 -219.55)"/><path class="cls-3" d="M243.49,256.14c0-.08,0-.15,0-.22l.11,0,0,.14h0a.21.21,0,0,1,.16-.19h0l0,.12h0a.18.18,0,0,0-.14.2.37.37,0,0,0,0,.06l.08.37-.13,0Z" transform="translate(-182.78 -219.55)"/><path class="cls-3" d="M244,255.6a.08.08,0,0,1-.06.09.08.08,0,0,1-.09-.06.08.08,0,0,1,.06-.1A.08.08,0,0,1,244,255.6Zm0,.92-.14-.7.13,0,.14.7Z" transform="translate(-182.78 -219.55)"/><path class="cls-3" d="M244.36,256.33a.34.34,0,0,0,.18,0c.09,0,.13-.07.11-.13s-.05-.09-.16-.1-.21-.08-.22-.16a.22.22,0,0,1,.2-.25.36.36,0,0,1,.18,0v.1a.28.28,0,0,0-.15,0c-.08,0-.11.07-.1.12s.06.08.16.09.21.07.23.17-.05.23-.22.26a.4.4,0,0,1-.21,0Z" transform="translate(-182.78 -219.55)"/><path class="cls-3" d="M245.18,255.77c0-.07,0-.13,0-.19l.11,0,0,.11h0a.26.26,0,0,1,.2-.18c.1,0,.26,0,.31.25l.08.42-.13,0-.08-.4c0-.11-.08-.2-.2-.17a.18.18,0,0,0-.14.16.16.16,0,0,0,0,.06l.09.42-.13,0Z" transform="translate(-182.78 -219.55)"/><path class="cls-3" d="M246,255.19a.08.08,0,0,1-.16,0,.08.08,0,0,1,.06-.1A.08.08,0,0,1,246,255.19Zm0,.92-.14-.7.13,0,.14.7Z" transform="translate(-182.78 -219.55)"/><path class="cls-3" d="M246.38,255.92a.34.34,0,0,0,.18,0c.09,0,.13-.07.11-.13s-.05-.09-.16-.1-.21-.08-.22-.16a.22.22,0,0,1,.2-.25.35.35,0,0,1,.18,0v.1a.27.27,0,0,0-.15,0c-.07,0-.11.07-.1.12s.06.08.16.09.21.07.23.17-.05.23-.22.26a.41.41,0,0,1-.21,0Z" transform="translate(-182.78 -219.55)"/><path class="cls-3" d="M247,255a.08.08,0,0,1-.16,0,.08.08,0,0,1,.06-.1A.08.08,0,0,1,247,255Zm0,.92-.14-.7.13,0,.14.7Z" transform="translate(-182.78 -219.55)"/><path class="cls-3" d="M248.18,255.49l0,.19-.11,0,0-.11h0a.27.27,0,0,1-.2.18c-.11,0-.25,0-.3-.26l-.08-.41.13,0,.08.39c0,.13.09.21.2.19a.19.19,0,0,0,.14-.15.18.18,0,0,0,0-.07L248,255l.13,0Z" transform="translate(-182.78 -219.55)"/><path class="cls-3" d="M248.4,254.71l0,.2.18,0,0,.1-.18,0,.08.38c0,.09.05.13.12.12l.07,0,0,.09-.11,0a.18.18,0,0,1-.15,0,.27.27,0,0,1-.09-.17l-.08-.38-.11,0,0-.1.11,0,0-.17Z" transform="translate(-182.78 -219.55)"/><path class="cls-3" d="M249.6,255.4l0-.09h0a.27.27,0,0,1-.19.15.2.2,0,0,1-.25-.16c0-.17.1-.29.37-.35h0a.15.15,0,0,0-.19-.13.35.35,0,0,0-.17.09l0-.08a.44.44,0,0,1,.22-.11.25.25,0,0,1,.32.23l.05.26a1,1,0,0,0,0,.16Zm-.09-.35c-.14,0-.29.08-.26.22a.11.11,0,0,0,.14.1.18.18,0,0,0,.14-.15.12.12,0,0,0,0,0Z" transform="translate(-182.78 -219.55)"/><path class="cls-3" d="M249.7,254.31l.13,0,.21,1-.13,0Z" transform="translate(-182.78 -219.55)"/><path class="cls-3" d="M250.21,254.35a.08.08,0,0,1-.16,0,.08.08,0,0,1,.06-.1A.08.08,0,0,1,250.21,254.35Zm0,.92-.14-.7.13,0,.14.7Z" transform="translate(-182.78 -219.55)"/><path class="cls-3" d="M251,255h0a.25.25,0,0,1-.2.17.32.32,0,0,1-.37-.29.34.34,0,0,1,.24-.44.23.23,0,0,1,.24.08h0l0-.11.12,0c0,.06,0,.12,0,.19l.16.79-.13,0Zm-.06-.31a.2.2,0,0,0,0-.05.19.19,0,0,0-.21-.11c-.13,0-.19.15-.16.31s.12.25.26.22a.19.19,0,0,0,.15-.18.21.21,0,0,0,0-.06Z" transform="translate(-182.78 -219.55)"/><path class="cls-3" d="M251.95,254.73c0,.07,0,.14,0,.19l-.11,0,0-.11h0a.27.27,0,0,1-.2.18c-.11,0-.25,0-.3-.26l-.08-.41.13,0,.08.39c0,.13.09.21.2.19a.19.19,0,0,0,.14-.15.21.21,0,0,0,0-.07l-.09-.43.13,0Z" transform="translate(-182.78 -219.55)"/><path class="cls-3" d="M252.16,254a.08.08,0,0,1-.16,0,.08.08,0,0,1,.06-.1A.08.08,0,0,1,252.16,254Zm0,.92-.14-.7.13,0,.14.7Z" transform="translate(-182.78 -219.55)"/><path class="cls-3" d="M252.44,254.34c0-.09,0-.16-.05-.23l.11,0,0,.12h0a.28.28,0,0,1,.22-.19.32.32,0,0,1,.37.29.34.34,0,0,1-.24.44.25.25,0,0,1-.24-.07h0l.08.38-.13,0Zm.16.16,0,.05a.2.2,0,0,0,.22.11c.13,0,.19-.15.16-.31s-.13-.24-.26-.22a.21.21,0,0,0-.16.2.19.19,0,0,0,0,.05Z" transform="translate(-182.78 -219.55)"/><path class="cls-3" d="M191.77,268.61a.23.23,0,0,0,.29.19.46.46,0,0,0,.19-.08l0,.09a.58.58,0,0,1-.22.09.33.33,0,0,1-.41-.28.35.35,0,0,1,.25-.44.3.3,0,0,1,.36.27.6.6,0,0,1,0,.06Zm.35-.17a.18.18,0,0,0-.22-.17.21.21,0,0,0-.15.25Z" transform="translate(-182.78 -219.55)"/><path class="cls-3" d="M192.4,268.1l.13.13.09.1h0l0-.13.07-.17.14,0-.17.39.32.31-.14,0-.13-.14-.1-.11h0l0,.14-.07.18-.14,0,.18-.41-.31-.29Z" transform="translate(-182.78 -219.55)"/><path class="cls-3" d="M193.46,268.27a.23.23,0,0,0,.29.19.47.47,0,0,0,.19-.08l0,.09a.58.58,0,0,1-.22.09.33.33,0,0,1-.41-.28.35.35,0,0,1,.25-.44.3.3,0,0,1,.36.27.48.48,0,0,1,0,.06Zm.35-.17a.18.18,0,0,0-.22-.17.21.21,0,0,0-.15.25Z" transform="translate(-182.78 -219.55)"/><path class="cls-3" d="M194.57,268.38l0-.09h0a.27.27,0,0,1-.19.15.2.2,0,0,1-.25-.16c0-.17.1-.29.37-.34h0a.15.15,0,0,0-.19-.13.35.35,0,0,0-.17.09l0-.08a.44.44,0,0,1,.22-.11.25.25,0,0,1,.32.23l.05.26a1,1,0,0,0,0,.17Zm-.09-.35c-.14,0-.29.08-.26.22a.11.11,0,0,0,.14.1.18.18,0,0,0,.15-.15.13.13,0,0,0,0,0Z" transform="translate(-182.78 -219.55)"/><path class="cls-3" d="M195.68,268.13a.48.48,0,0,1-.19.08.34.34,0,0,1-.42-.29.36.36,0,0,1,.3-.45.44.44,0,0,1,.18,0v.1a.3.3,0,0,0-.15,0,.25.25,0,0,0-.19.31.24.24,0,0,0,.3.21.37.37,0,0,0,.15-.07Z" transform="translate(-182.78 -219.55)"/><path class="cls-3" d="M196.38,267.64a.35.35,0,0,1-.27.44.34.34,0,0,1-.41-.29.35.35,0,0,1,.27-.44A.34.34,0,0,1,196.38,267.64Zm-.55.12c0,.15.14.25.27.23a.24.24,0,0,0,.16-.31c0-.12-.11-.26-.26-.23S195.8,267.63,195.83,267.76Z" transform="translate(-182.78 -219.55)"/><path class="cls-3" d="M196.51,267.46c0-.07,0-.13,0-.19l.11,0,0,.11h0a.24.24,0,0,1,.19-.17.21.21,0,0,1,.23.1h0a.29.29,0,0,1,.06-.11.24.24,0,0,1,.14-.08c.09,0,.24,0,.29.26l.08.41-.12,0-.08-.4c0-.13-.09-.2-.2-.18a.17.17,0,0,0-.13.15.23.23,0,0,0,0,.07l.09.43-.12,0-.08-.42c0-.11-.09-.18-.18-.16a.19.19,0,0,0-.13.22l.09.42-.12,0Z" transform="translate(-182.78 -219.55)"/><path class="cls-3" d="M197.71,267.21c0-.07,0-.13,0-.19l.11,0,0,.11h0a.25.25,0,0,1,.19-.17.21.21,0,0,1,.23.1h0a.28.28,0,0,1,.06-.11.24.24,0,0,1,.14-.08c.09,0,.24,0,.29.26l.08.41-.12,0-.08-.4c0-.13-.09-.2-.2-.18a.17.17,0,0,0-.13.15.22.22,0,0,0,0,.07l.09.43-.12,0-.08-.42c0-.11-.09-.18-.18-.16a.18.18,0,0,0-.13.16.17.17,0,0,0,0,.06l.09.42-.12,0Z" transform="translate(-182.78 -219.55)"/><path class="cls-3" d="M199.58,267a.35.35,0,0,1-.27.44.34.34,0,0,1-.41-.29.35.35,0,0,1,.27-.44A.34.34,0,0,1,199.58,267Zm-.55.12c0,.15.14.25.27.23a.24.24,0,0,0,.16-.31c0-.12-.11-.26-.26-.23S199,267,199,267.11Z" transform="translate(-182.78 -219.55)"/><path class="cls-3" d="M200.21,266.17l.17.84c0,.06,0,.13,0,.18l-.11,0,0-.12h0a.26.26,0,0,1-.21.19.32.32,0,0,1-.37-.29.34.34,0,0,1,.24-.44.24.24,0,0,1,.23.06h0l-.08-.42Zm0,.64,0-.05a.19.19,0,0,0-.21-.11c-.13,0-.19.16-.15.31s.12.24.26.22a.19.19,0,0,0,.16-.19.23.23,0,0,0,0-.06Z" transform="translate(-182.78 -219.55)"/><path class="cls-3" d="M201.19,266.67a.35.35,0,0,1-.27.44.34.34,0,0,1-.41-.29.35.35,0,0,1,.27-.44A.34.34,0,0,1,201.19,266.67Zm-.55.12c0,.15.14.25.27.23a.24.24,0,0,0,.16-.31c0-.12-.11-.26-.26-.23S200.61,266.66,200.64,266.79Z" transform="translate(-182.78 -219.55)"/><path class="cls-3" d="M202.22,266.8a.48.48,0,0,1-.19.08.34.34,0,0,1-.42-.29.36.36,0,0,1,.3-.45.44.44,0,0,1,.18,0v.1a.3.3,0,0,0-.15,0,.25.25,0,0,0-.19.31.24.24,0,0,0,.3.21.37.37,0,0,0,.15-.07Z" transform="translate(-182.78 -219.55)"/><path class="cls-3" d="M202.92,266.32a.35.35,0,0,1-.27.44.34.34,0,0,1-.41-.29.35.35,0,0,1,.27-.44A.34.34,0,0,1,202.92,266.32Zm-.55.12c0,.15.14.25.27.23a.24.24,0,0,0,.16-.31c0-.12-.11-.26-.26-.23S202.34,266.3,202.37,266.44Z" transform="translate(-182.78 -219.55)"/><path class="cls-3" d="M203.05,266.13c0-.07,0-.13,0-.19l.11,0,0,.11h0a.26.26,0,0,1,.2-.18c.1,0,.26,0,.31.25l.08.42-.13,0-.08-.4c0-.11-.08-.2-.2-.17a.19.19,0,0,0-.14.23l.09.42-.13,0Z" transform="translate(-182.78 -219.55)"/><path class="cls-3" d="M203.91,266.35a.34.34,0,0,0,.18,0c.09,0,.13-.07.11-.13s-.05-.09-.16-.1-.21-.08-.22-.16a.22.22,0,0,1,.2-.25.36.36,0,0,1,.18,0v.1a.28.28,0,0,0-.15,0c-.07,0-.11.07-.1.12s.06.08.16.09.2.07.23.17-.05.23-.22.26a.41.41,0,0,1-.21,0Z" transform="translate(-182.78 -219.55)"/><path class="cls-3" d="M204.53,266a.23.23,0,0,0,.29.19.46.46,0,0,0,.19-.08l0,.09a.58.58,0,0,1-.22.09.33.33,0,0,1-.41-.28.35.35,0,0,1,.25-.44.3.3,0,0,1,.36.27.46.46,0,0,1,0,.06Zm.35-.17a.18.18,0,0,0-.22-.17.21.21,0,0,0-.15.25Z" transform="translate(-182.78 -219.55)"/><path class="cls-3" d="M205.71,266h0a.25.25,0,0,1-.2.17.32.32,0,0,1-.37-.29.34.34,0,0,1,.24-.44.23.23,0,0,1,.24.08h0l0-.11.12,0,0,.19.16.79-.13,0Zm-.06-.31a.2.2,0,0,0,0-.05.19.19,0,0,0-.21-.11c-.13,0-.19.15-.16.31s.12.25.26.22a.19.19,0,0,0,.15-.18.2.2,0,0,0,0-.06Z" transform="translate(-182.78 -219.55)"/><path class="cls-3" d="M206.61,265.74l0,.19-.11,0,0-.11h0a.27.27,0,0,1-.2.18c-.11,0-.25,0-.3-.26l-.08-.41.13,0,.08.39c0,.13.09.21.2.19a.18.18,0,0,0,.14-.22l-.09-.43.13,0Z" transform="translate(-182.78 -219.55)"/><path class="cls-3" d="M207.25,265.81l0-.09h0a.26.26,0,0,1-.19.15.2.2,0,0,1-.25-.16c0-.17.1-.29.37-.34h0a.15.15,0,0,0-.19-.13.35.35,0,0,0-.17.09l0-.08a.44.44,0,0,1,.22-.11.25.25,0,0,1,.32.23l.05.26a1.06,1.06,0,0,0,0,.17Zm-.09-.35c-.14,0-.29.08-.26.22a.11.11,0,0,0,.14.1.18.18,0,0,0,.15-.15.12.12,0,0,0,0,0Z" transform="translate(-182.78 -219.55)"/><path class="cls-3" d="M207.52,264.82l0,.2.18,0,0,.1-.18,0,.08.38c0,.09.05.13.12.12l.07,0,0,.09-.11,0a.18.18,0,0,1-.15,0,.27.27,0,0,1-.09-.17l-.08-.38-.11,0,0-.1.11,0,0-.17Z" transform="translate(-182.78 -219.55)"/><path class="cls-3" d="M208,265.58a.09.09,0,0,1,.07-.11.09.09,0,0,1,0,.18A.09.09,0,0,1,208,265.58Z" transform="translate(-182.78 -219.55)"/><path class="cls-3" d="M208.44,264.57l.26-.07a.57.57,0,0,1,.42,0,.45.45,0,0,1,.21.32.52.52,0,0,1-.06.41.61.61,0,0,1-.4.23l-.23,0Zm.3.83.13,0a.38.38,0,0,0,.33-.5.35.35,0,0,0-.47-.29l-.14,0Z" transform="translate(-182.78 -219.55)"/><path class="cls-3" d="M210.14,265c0,.07,0,.14,0,.19l-.11,0,0-.11h0a.27.27,0,0,1-.2.18c-.11,0-.25,0-.3-.26l-.08-.41.13,0,.08.39c0,.13.09.21.2.19A.19.19,0,0,0,210,265a.19.19,0,0,0,0-.07l-.09-.43.13,0Z" transform="translate(-182.78 -219.55)"/><path class="cls-3" d="M210.35,264.25a.08.08,0,0,1-.16,0,.08.08,0,0,1,.06-.1A.08.08,0,0,1,210.35,264.25Zm0,.92-.14-.7.13,0,.14.7Z" transform="translate(-182.78 -219.55)"/><path class="cls-3" d="M210.68,265a.34.34,0,0,0,.18,0c.09,0,.13-.07.11-.13s-.05-.09-.16-.1-.21-.08-.22-.16a.22.22,0,0,1,.2-.25.36.36,0,0,1,.18,0v.1a.28.28,0,0,0-.15,0c-.07,0-.11.07-.1.12s.06.08.16.09.2.07.23.17-.05.23-.22.26a.41.41,0,0,1-.21,0Z" transform="translate(-182.78 -219.55)"/><path class="cls-3" d="M212,264.84l0-.09h0a.26.26,0,0,1-.19.15.2.2,0,0,1-.25-.16c0-.17.1-.29.37-.34h0a.15.15,0,0,0-.19-.13.35.35,0,0,0-.17.09l0-.08a.44.44,0,0,1,.22-.11.25.25,0,0,1,.32.23l.05.26a1,1,0,0,0,0,.17Zm-.09-.35c-.14,0-.29.08-.26.22a.11.11,0,0,0,.14.1.18.18,0,0,0,.15-.15.13.13,0,0,0,0,0Z" transform="translate(-182.78 -219.55)"/><path class="cls-3" d="M212.84,264.47c0,.07,0,.14,0,.19l-.11,0,0-.11h0a.27.27,0,0,1-.2.18c-.11,0-.25,0-.3-.26l-.08-.41.13,0,.08.39c0,.13.09.21.2.19a.18.18,0,0,0,.14-.22l-.09-.43.13,0Z" transform="translate(-182.78 -219.55)"/><path class="cls-3" d="M213.06,263.69l0,.2.18,0,0,.1-.18,0,.08.38c0,.09.05.13.12.12l.07,0,0,.09-.11,0a.18.18,0,0,1-.15,0,.27.27,0,0,1-.09-.17L213,264l-.11,0,0-.1.11,0,0-.17Z" transform="translate(-182.78 -219.55)"/><path class="cls-3" d="M213.57,264.18a.23.23,0,0,0,.29.19.46.46,0,0,0,.19-.08l0,.09a.58.58,0,0,1-.22.09.33.33,0,0,1-.41-.28.35.35,0,0,1,.25-.44.3.3,0,0,1,.36.27.5.5,0,0,1,0,.06Zm.35-.17a.18.18,0,0,0-.22-.17.21.21,0,0,0-.15.25Z" transform="translate(-182.78 -219.55)"/><path class="cls-3" d="M214.55,263.39a.08.08,0,0,1-.16,0,.08.08,0,0,1,.06-.1A.08.08,0,0,1,214.55,263.39Zm0,.92-.14-.7.13,0,.14.7Z" transform="translate(-182.78 -219.55)"/><path class="cls-3" d="M214.83,263.77c0-.08,0-.15,0-.22l.11,0,0,.14h0a.21.21,0,0,1,.16-.19h0l0,.12h0a.18.18,0,0,0-.14.2.32.32,0,0,0,0,.06l.08.37-.13,0Z" transform="translate(-182.78 -219.55)"/><path class="cls-3" d="M215.95,263.84c0,.07,0,.14,0,.19l-.11,0,0-.11h0a.27.27,0,0,1-.2.18c-.11,0-.25,0-.3-.26l-.08-.41.13,0,.08.39c0,.13.09.21.2.19a.19.19,0,0,0,.14-.15.2.2,0,0,0,0-.07l-.09-.43.13,0Z" transform="translate(-182.78 -219.55)"/><path class="cls-3" d="M216.1,263.51c0-.08,0-.15,0-.22l.11,0,0,.14h0a.21.21,0,0,1,.16-.19h0l0,.12h0a.18.18,0,0,0-.14.2.37.37,0,0,0,0,.06l.08.37-.13,0Z" transform="translate(-182.78 -219.55)"/><path class="cls-3" d="M216.66,263.56a.23.23,0,0,0,.29.19.47.47,0,0,0,.19-.08l0,.09a.58.58,0,0,1-.22.09.33.33,0,0,1-.41-.28.35.35,0,0,1,.25-.44.3.3,0,0,1,.36.27.5.5,0,0,1,0,.06Zm.35-.17a.19.19,0,0,0-.22-.17.21.21,0,0,0-.15.25Z" transform="translate(-182.78 -219.55)"/><path class="cls-3" d="M218.08,262.54l.17.84c0,.06,0,.13,0,.18l-.11,0,0-.12h0a.26.26,0,0,1-.21.19.32.32,0,0,1-.37-.29.34.34,0,0,1,.24-.44.24.24,0,0,1,.23.06h0l-.08-.42Zm0,.64,0-.05a.19.19,0,0,0-.21-.11c-.13,0-.19.16-.15.31s.12.24.26.22a.19.19,0,0,0,.16-.19.23.23,0,0,0,0-.06Z" transform="translate(-182.78 -219.55)"/><path class="cls-3" d="M219.06,263a.35.35,0,0,1-.27.44.34.34,0,0,1-.41-.29.35.35,0,0,1,.27-.44A.34.34,0,0,1,219.06,263Zm-.55.12c0,.15.14.25.27.23a.24.24,0,0,0,.16-.31c0-.12-.11-.26-.26-.23S218.48,263,218.5,263.16Z" transform="translate(-182.78 -219.55)"/><path class="cls-3" d="M219.08,262.34l.13,0,.21,1-.13,0Z" transform="translate(-182.78 -219.55)"/><path class="cls-3" d="M220.19,262.81a.35.35,0,0,1-.27.44.34.34,0,0,1-.41-.29.35.35,0,0,1,.27-.44A.34.34,0,0,1,220.19,262.81Zm-.55.12c0,.15.14.25.27.23a.24.24,0,0,0,.16-.31c0-.12-.11-.26-.26-.23S219.61,262.8,219.64,262.93Z" transform="translate(-182.78 -219.55)"/><path class="cls-3" d="M220.32,262.65c0-.08,0-.15,0-.22l.11,0,0,.14h0a.21.21,0,0,1,.16-.19h0l0,.12h0a.18.18,0,0,0-.14.2.32.32,0,0,0,0,.06l.08.37-.13,0Z" transform="translate(-182.78 -219.55)"/><path class="cls-3" d="M221.16,262.05a.08.08,0,0,1-.16,0,.08.08,0,0,1,.06-.1A.08.08,0,0,1,221.16,262.05Zm0,.92-.14-.7.13,0,.14.7Z" transform="translate(-182.78 -219.55)"/><path class="cls-3" d="M221.43,262.4l0-.19.11,0,0,.11h0a.26.26,0,0,1,.2-.18c.1,0,.26,0,.31.25l.08.42-.13,0-.08-.4c0-.11-.08-.2-.2-.17a.18.18,0,0,0-.14.16.16.16,0,0,0,0,.06l.09.42-.13,0Z" transform="translate(-182.78 -219.55)"/><path class="cls-3" d="M222.55,262.2c0-.08,0-.15,0-.22l.11,0,0,.14h0a.21.21,0,0,1,.16-.19h0l0,.12h0a.18.18,0,0,0-.14.2.37.37,0,0,0,0,.06l.08.37-.13,0Z" transform="translate(-182.78 -219.55)"/><path class="cls-3" d="M223.11,262.25a.23.23,0,0,0,.29.19.46.46,0,0,0,.19-.08l0,.09a.58.58,0,0,1-.22.09.33.33,0,0,1-.41-.28.35.35,0,0,1,.25-.44.3.3,0,0,1,.35.27s0,0,0,.06Zm.35-.17a.18.18,0,0,0-.22-.17.21.21,0,0,0-.15.25Z" transform="translate(-182.78 -219.55)"/><path class="cls-3" d="M223.73,262c0-.09,0-.16-.05-.23l.11,0,0,.12h0a.28.28,0,0,1,.22-.19.32.32,0,0,1,.37.29.34.34,0,0,1-.24.44.25.25,0,0,1-.24-.07h0l.08.38-.13,0Zm.16.16,0,.05a.2.2,0,0,0,.22.11c.13,0,.19-.15.16-.31s-.13-.24-.26-.22a.21.21,0,0,0-.16.2.2.2,0,0,0,0,.05Z" transform="translate(-182.78 -219.55)"/><path class="cls-3" d="M224.55,261.79l-.05-.22.11,0,0,.14h0a.21.21,0,0,1,.16-.19h0l0,.12h0a.18.18,0,0,0-.14.2.37.37,0,0,0,0,.06l.08.37-.13,0Z" transform="translate(-182.78 -219.55)"/><path class="cls-3" d="M225.11,261.84a.23.23,0,0,0,.29.19.46.46,0,0,0,.19-.08l0,.09a.57.57,0,0,1-.22.09.33.33,0,0,1-.42-.28.35.35,0,0,1,.25-.44.3.3,0,0,1,.36.27.6.6,0,0,1,0,.06Zm.35-.17a.18.18,0,0,0-.22-.17.21.21,0,0,0-.15.25Z" transform="translate(-182.78 -219.55)"/><path class="cls-3" d="M225.62,261l.13,0,.09.44h0a.23.23,0,0,1,.07-.11.27.27,0,0,1,.12-.06c.09,0,.25,0,.3.25l.08.42-.13,0-.08-.4c0-.11-.08-.2-.2-.17a.19.19,0,0,0-.14.16.15.15,0,0,0,0,.06l.09.42-.13,0Z" transform="translate(-182.78 -219.55)"/><path class="cls-3" d="M226.63,261.53a.23.23,0,0,0,.29.19.46.46,0,0,0,.19-.08l0,.09a.58.58,0,0,1-.22.09.33.33,0,0,1-.42-.28.35.35,0,0,1,.25-.44.3.3,0,0,1,.35.27.4.4,0,0,1,0,.06Zm.35-.17a.18.18,0,0,0-.22-.17.21.21,0,0,0-.15.25Z" transform="translate(-182.78 -219.55)"/><path class="cls-3" d="M227.25,261.22c0-.07,0-.13,0-.19l.11,0,0,.11h0a.26.26,0,0,1,.2-.18c.1,0,.26,0,.31.25l.08.42-.13,0-.08-.4c0-.11-.08-.2-.2-.17a.18.18,0,0,0-.14.16.16.16,0,0,0,0,.06l.09.42-.13,0Z" transform="translate(-182.78 -219.55)"/><path class="cls-3" d="M228.55,260.42l.17.84c0,.06,0,.13,0,.18l-.11,0,0-.12h0a.26.26,0,0,1-.21.19.32.32,0,0,1-.37-.29.34.34,0,0,1,.24-.44.24.24,0,0,1,.23.06h0l-.08-.42Zm0,.64,0-.05a.19.19,0,0,0-.21-.11c-.13,0-.19.16-.15.31s.12.24.26.22a.19.19,0,0,0,.16-.19.21.21,0,0,0,0-.06Z" transform="translate(-182.78 -219.55)"/><path class="cls-3" d="M229,261.06a.23.23,0,0,0,.29.19.46.46,0,0,0,.19-.08l0,.09a.58.58,0,0,1-.22.09.33.33,0,0,1-.42-.28.35.35,0,0,1,.25-.44.3.3,0,0,1,.36.27.4.4,0,0,1,0,.06Zm.35-.17a.18.18,0,0,0-.22-.17.21.21,0,0,0-.15.25Z" transform="translate(-182.78 -219.55)"/><path class="cls-3" d="M229.59,260.77c0-.08,0-.15-.05-.22l.11,0,0,.14h0a.21.21,0,0,1,.16-.19h0l0,.12h0a.18.18,0,0,0-.14.2.37.37,0,0,0,0,.06l.08.37-.13,0Z" transform="translate(-182.78 -219.55)"/><path class="cls-3" d="M230.12,260.23a.08.08,0,0,1-.06.09.08.08,0,0,1-.09-.06.08.08,0,0,1,.06-.1A.08.08,0,0,1,230.12,260.23Zm0,.92-.14-.7.13,0,.14.7Z" transform="translate(-182.78 -219.55)"/><path class="cls-3" d="M230.47,260.15l0,.2.18,0,0,.1-.18,0,.08.38c0,.09.05.13.12.12l.07,0,0,.09-.11,0a.18.18,0,0,1-.15,0,.26.26,0,0,1-.09-.17l-.08-.38-.11,0,0-.1.11,0,0-.17Z" transform="translate(-182.78 -219.55)"/><path class="cls-3" d="M231.25,260a.08.08,0,0,1-.16,0,.08.08,0,0,1,.06-.1A.08.08,0,0,1,231.25,260Zm0,.92-.14-.7.13,0,.14.7Z" transform="translate(-182.78 -219.55)"/><path class="cls-3" d="M231.52,260.35c0-.07,0-.13,0-.19l.11,0,0,.11h0a.26.26,0,0,1,.2-.18c.1,0,.26,0,.31.25l.08.42-.13,0-.08-.4c0-.11-.08-.2-.2-.17a.18.18,0,0,0-.14.16.16.16,0,0,0,0,.06l.09.42-.13,0Z" transform="translate(-182.78 -219.55)"/><path class="cls-3" d="M232.64,259.92l.22.36.09.17h0c0-.06,0-.12,0-.19l.06-.42.13,0-.13.75-.12,0-.41-.64Z" transform="translate(-182.78 -219.55)"/><path class="cls-3" d="M234,260a.35.35,0,0,1-.27.44.34.34,0,0,1-.41-.29.35.35,0,0,1,.27-.44A.34.34,0,0,1,234,260Zm-.55.12c0,.15.14.25.27.23a.25.25,0,0,0,.16-.31c0-.12-.11-.26-.26-.23S233.39,260,233.42,260.13Z" transform="translate(-182.78 -219.55)"/><path class="cls-3" d="M234,259.31l.13,0,.21,1-.13,0Z" transform="translate(-182.78 -219.55)"/><path class="cls-3" d="M235.09,260c0,.07,0,.14,0,.19l-.11,0,0-.11h0a.27.27,0,0,1-.21.18c-.11,0-.25,0-.3-.26l-.08-.41.13,0,.08.39c0,.13.09.21.2.19a.19.19,0,0,0,.14-.15.18.18,0,0,0,0-.07l-.09-.43.13,0Z" transform="translate(-182.78 -219.55)"/><path class="cls-3" d="M235.24,259.63c0-.09,0-.16-.05-.23l.11,0,0,.12h0a.28.28,0,0,1,.22-.19.32.32,0,0,1,.37.29.34.34,0,0,1-.24.44.25.25,0,0,1-.24-.07h0l.08.38-.13,0Zm.16.16,0,.05a.2.2,0,0,0,.22.11c.13,0,.19-.15.16-.31s-.13-.24-.26-.22a.21.21,0,0,0-.16.2.2.2,0,0,0,0,.05Z" transform="translate(-182.78 -219.55)"/><path class="cls-3" d="M236.13,259l0,.2.18,0,0,.1-.18,0,.08.38c0,.09.05.13.12.12l.07,0,0,.09-.11,0a.18.18,0,0,1-.15,0,.26.26,0,0,1-.09-.17l-.08-.38-.11,0,0-.1.11,0,0-.17Z" transform="translate(-182.78 -219.55)"/><path class="cls-3" d="M237,259.76l0-.09h0a.26.26,0,0,1-.19.15.2.2,0,0,1-.26-.16c0-.17.1-.29.37-.34h0a.15.15,0,0,0-.19-.13.35.35,0,0,0-.17.09l0-.08a.44.44,0,0,1,.22-.11.25.25,0,0,1,.32.23l.05.26a1,1,0,0,0,0,.17Zm-.09-.35c-.14,0-.29.08-.26.22a.11.11,0,0,0,.14.1.18.18,0,0,0,.14-.15.12.12,0,0,0,0,0Z" transform="translate(-182.78 -219.55)"/><path class="cls-3" d="M237.3,258.77l0,.2.18,0,0,.1-.18,0,.08.38c0,.09.05.13.12.12l.07,0,0,.09-.11,0a.18.18,0,0,1-.15,0,.26.26,0,0,1-.09-.17l-.08-.38-.11,0,0-.1.11,0,0-.17Z" transform="translate(-182.78 -219.55)"/><path class="cls-3" d="M237.8,259.26a.23.23,0,0,0,.29.19.46.46,0,0,0,.19-.08l0,.09a.58.58,0,0,1-.22.09.33.33,0,0,1-.42-.28.35.35,0,0,1,.25-.44.3.3,0,0,1,.35.27s0,0,0,.06Zm.35-.17a.19.19,0,0,0-.22-.17.21.21,0,0,0-.15.25Z" transform="translate(-182.78 -219.55)"/><path class="cls-3" d="M238.73,258.69l.22.36.09.17h0c0-.06,0-.12,0-.19l.06-.42.13,0-.13.75-.12,0-.41-.64Z" transform="translate(-182.78 -219.55)"/><path class="cls-3" d="M239.51,258.92a.23.23,0,0,0,.29.19A.46.46,0,0,0,240,259l0,.09a.57.57,0,0,1-.22.09.33.33,0,0,1-.42-.28.35.35,0,0,1,.25-.44.3.3,0,0,1,.35.27.61.61,0,0,1,0,.06Zm.35-.17a.18.18,0,0,0-.22-.17.22.22,0,0,0-.15.25Z" transform="translate(-182.78 -219.55)"/><path class="cls-3" d="M240,258.08l.13,0,.21,1-.13,0Z" transform="translate(-182.78 -219.55)"/><path class="cls-3" d="M240.53,258.12a.08.08,0,0,1-.06.09.08.08,0,0,1-.09-.06.08.08,0,0,1,.06-.1A.08.08,0,0,1,240.53,258.12Zm0,.92-.14-.7.13,0,.14.7Z" transform="translate(-182.78 -219.55)"/><path class="cls-3" d="M240.88,258l0,.2.18,0,0,.1-.18,0,.08.38c0,.09.05.13.12.12l.07,0,0,.09-.11,0a.18.18,0,0,1-.15,0,.27.27,0,0,1-.09-.17l-.08-.38-.11,0,0-.1.11,0,0-.17Z" transform="translate(-182.78 -219.55)"/><path class="cls-3" d="M241.69,258.47a.23.23,0,0,0,.29.19.46.46,0,0,0,.19-.08l0,.09a.57.57,0,0,1-.22.09.33.33,0,0,1-.42-.28.35.35,0,0,1,.25-.44.3.3,0,0,1,.36.27.57.57,0,0,1,0,.06Zm.35-.17a.18.18,0,0,0-.22-.17.21.21,0,0,0-.15.25Z" transform="translate(-182.78 -219.55)"/><path class="cls-3" d="M242.37,258.54a.34.34,0,0,0,.18,0c.09,0,.13-.07.11-.13s-.06-.09-.16-.1-.21-.08-.22-.16a.22.22,0,0,1,.2-.25.37.37,0,0,1,.18,0v.1a.28.28,0,0,0-.15,0c-.07,0-.11.07-.1.12s.06.08.16.09.21.07.23.17-.05.23-.22.26a.41.41,0,0,1-.21,0Z" transform="translate(-182.78 -219.55)"/><path class="cls-3" d="M242.94,258.42a.34.34,0,0,0,.18,0c.09,0,.13-.07.11-.13s-.06-.09-.16-.1-.21-.08-.22-.16a.22.22,0,0,1,.2-.25.36.36,0,0,1,.18,0v.1a.28.28,0,0,0-.15,0c-.07,0-.11.07-.1.12s.06.08.16.09.21.07.23.17-.05.23-.22.26a.41.41,0,0,1-.21,0Z" transform="translate(-182.78 -219.55)"/><path class="cls-3" d="M243.56,258.09a.23.23,0,0,0,.29.19.46.46,0,0,0,.19-.08l0,.09a.58.58,0,0,1-.22.09.33.33,0,0,1-.42-.28.35.35,0,0,1,.25-.44.3.3,0,0,1,.35.27s0,0,0,.06Zm.35-.17a.18.18,0,0,0-.22-.17.22.22,0,0,0-.15.25Z" transform="translate(-182.78 -219.55)"/><path class="cls-3" d="M245.08,258.1a.48.48,0,0,1-.19.08.34.34,0,0,1-.42-.29.36.36,0,0,1,.3-.45.44.44,0,0,1,.18,0v.1a.3.3,0,0,0-.15,0,.25.25,0,0,0-.19.31.24.24,0,0,0,.3.21A.37.37,0,0,0,245,258Z" transform="translate(-182.78 -219.55)"/><path class="cls-3" d="M245.19,257.17a.08.08,0,0,1-.16,0,.08.08,0,0,1,.06-.1A.08.08,0,0,1,245.19,257.17Zm0,.92-.14-.7.13,0,.14.7Z" transform="translate(-182.78 -219.55)"/><path class="cls-3" d="M245.36,257l.13,0,.21,1-.13,0Z" transform="translate(-182.78 -219.55)"/><path class="cls-3" d="M245.7,256.93l.13,0,.21,1-.13,0Z" transform="translate(-182.78 -219.55)"/><path class="cls-3" d="M246.8,257.58c0,.07,0,.14,0,.19l-.11,0,0-.11h0a.27.27,0,0,1-.2.18c-.11,0-.25,0-.3-.26l-.08-.41.13,0,.08.39c0,.13.09.21.2.19a.19.19,0,0,0,.14-.15.2.2,0,0,0,0-.07l-.09-.43.13,0Z" transform="translate(-182.78 -219.55)"/><path class="cls-3" d="M246.94,257.21l0-.19.11,0,0,.11h0a.24.24,0,0,1,.19-.17.21.21,0,0,1,.23.1h0a.3.3,0,0,1,.06-.11.24.24,0,0,1,.15-.08c.09,0,.24,0,.29.26l.08.41-.12,0-.08-.4c0-.13-.09-.2-.19-.18a.17.17,0,0,0-.13.15.22.22,0,0,0,0,.07l.09.43-.12,0-.08-.42c0-.11-.09-.18-.19-.16a.18.18,0,0,0-.13.16.19.19,0,0,0,0,.06l.09.42-.12,0Z" transform="translate(-182.78 -219.55)"/><path class="cls-3" d="M248.95,256.27l.17.84c0,.06,0,.13,0,.18l-.11,0,0-.12h0a.26.26,0,0,1-.21.19.32.32,0,0,1-.37-.29.34.34,0,0,1,.24-.44.24.24,0,0,1,.23.06h0l-.08-.42Zm0,.64a.21.21,0,0,0,0-.05.19.19,0,0,0-.21-.11c-.13,0-.19.16-.15.31s.12.24.26.22a.19.19,0,0,0,.16-.19.21.21,0,0,0,0-.06Z" transform="translate(-182.78 -219.55)"/><path class="cls-3" d="M249.93,256.77a.35.35,0,0,1-.27.44.34.34,0,0,1-.41-.29.35.35,0,0,1,.27-.44A.34.34,0,0,1,249.93,256.77Zm-.55.12c0,.15.14.25.27.23a.25.25,0,0,0,.16-.31c0-.12-.11-.26-.26-.23S249.35,256.76,249.38,256.89Z" transform="translate(-182.78 -219.55)"/><path class="cls-3" d="M250,256.07l.13,0,.21,1-.13,0Z" transform="translate(-182.78 -219.55)"/><path class="cls-3" d="M251.06,256.54a.35.35,0,0,1-.27.44.34.34,0,0,1-.41-.29.35.35,0,0,1,.27-.44A.34.34,0,0,1,251.06,256.54Zm-.55.12c0,.15.14.25.27.23a.25.25,0,0,0,.16-.31c0-.12-.11-.26-.26-.23S250.48,256.53,250.51,256.66Z" transform="translate(-182.78 -219.55)"/><path class="cls-3" d="M251.2,256.38l-.05-.22.11,0,0,.14h0a.21.21,0,0,1,.16-.19h0l0,.12h0a.18.18,0,0,0-.14.2.37.37,0,0,0,0,.06l.08.37-.13,0Z" transform="translate(-182.78 -219.55)"/><path class="cls-3" d="M251.76,256.43a.23.23,0,0,0,.29.19.46.46,0,0,0,.19-.08l0,.09a.58.58,0,0,1-.22.09.33.33,0,0,1-.42-.28.35.35,0,0,1,.25-.44.3.3,0,0,1,.36.27.57.57,0,0,1,0,.06Zm.35-.17a.18.18,0,0,0-.22-.17.21.21,0,0,0-.15.25Z" transform="translate(-182.78 -219.55)"/><path class="cls-1" d="M262.61,274.87a3.57,3.57,0,0,1-3.56,3.58H197a3.57,3.57,0,0,1-3.56-3.58V239.21a3.57,3.57,0,0,1,3.56-3.58h62a3.57,3.57,0,0,1,3.56,3.58Z" transform="translate(-182.78 -219.55)"/><path class="cls-3" d="M199.78,255.29a1.61,1.61,0,0,0,1.61,1.61h1.7v-1.8h-3.31Z" transform="translate(-182.78 -219.55)"/><rect class="cls-3" x="17" y="33.13" width="3.31" height="1.84"/><path class="cls-3" d="M199.78,249.51v.19h3.31v-1.8h-1.7A1.61,1.61,0,0,0,199.78,249.51Z" transform="translate(-182.78 -219.55)"/><path class="cls-3" d="M208.16,247.9h-4.49v9h2.29v-7.19h3.82v-.19A1.61,1.61,0,0,0,208.16,247.9Z" transform="translate(-182.78 -219.55)"/><rect class="cls-3" x="17" y="30.72" width="3.31" height="1.84"/><rect class="cls-3" x="23.74" y="30.72" width="3.25" height="1.84"/><rect class="cls-3" x="23.74" y="33.13" width="3.25" height="1.84"/><path class="cls-3" d="M206.52,256.89h1.64a1.61,1.61,0,0,0,1.61-1.61v-.19h-3.25Z" transform="translate(-182.78 -219.55)"/><polygon class="cls-3" points="15.22 31.36 13.73 32.85 15.22 34.34 15.22 31.36"/><path class="cls-4" d="M253.61,268.45a3.54,3.54,0,0,0-1.29.25,4,4,0,0,1,0,6.63,3.56,3.56,0,1,0,1.29-6.87Z" transform="translate(-182.78 -219.55)"/><path class="cls-5" d="M253.61,272a3.57,3.57,0,1,0-1.78,3.08A3.56,3.56,0,0,0,253.61,272Z" transform="translate(-182.78 -219.55)"/><path class="cls-3" d="M200.44,261.78a.2.2,0,0,1,0-.41h1.39a.4.4,0,0,1,.4.41v.78a.57.57,0,0,0,0,.79v.78a.4.4,0,0,1-.4.4h-1.39a.2.2,0,1,1,0-.4h1.39v-.67c0-.23-.09-.29-.2-.29h-.79a.2.2,0,0,1,0-.41h.79c.11,0,.2-.07.2-.3v-.67Z" transform="translate(-182.78 -219.55)"/><path class="cls-3" d="M204.75,264.12v-.82a.2.2,0,1,1,.4,0v1a.19.19,0,0,1-.2.2h-1.6a.2.2,0,1,1,0-.4h.6v-2.34h-.6a.2.2,0,0,1,0-.41h1v2.75Z" transform="translate(-182.78 -219.55)"/><path class="cls-3" d="M207.46,263.09v-1.17a.2.2,0,0,1,.41,0v1.17a.2.2,0,1,1,0,.4v.83a.2.2,0,0,1-.41,0v-.83h-1.19v-1.92a.2.2,0,0,1,.4,0v1.52Z" transform="translate(-182.78 -219.55)"/><path class="cls-3" d="M210.58,264.12v-.82a.2.2,0,1,1,.4,0v1a.19.19,0,0,1-.2.2h-1.6a.2.2,0,0,1,0-.4h.6v-2.34h-.6a.2.2,0,0,1,0-.41h1v2.75Z" transform="translate(-182.78 -219.55)"/><path class="cls-3" d="M215.62,262.75h.75a.41.41,0,0,1,.32.11.4.4,0,0,1,.13.34v.87a.43.43,0,0,1-.1.32.39.39,0,0,1-.35.14h-.9a.58.58,0,0,1-.27-.07l-.15-.07c-.11,0-.23-.09-.23-.23a.2.2,0,0,1,.19-.2.29.29,0,0,1,.13,0l.12.05a.69.69,0,0,0,.21.08h.94v-1h-1.19v-1.78h1.4a.2.2,0,0,1,0,.41h-1Z" transform="translate(-182.78 -219.55)"/><path class="cls-3" d="M219.33,262.82h-1.39a.21.21,0,0,1-.2-.2v-1a.21.21,0,0,1,.2-.2h1.6a.21.21,0,0,1,.2.2v2.75a.2.2,0,0,1-.2.2h-.2a.2.2,0,0,1-.2-.2.19.19,0,0,1,.2-.2Zm0-.41v-.63h-1.19v.63Z" transform="translate(-182.78 -219.55)"/><path class="cls-3" d="M221.05,264.12h1.39a.2.2,0,1,1,0,.4h-1.8V263.2a.41.41,0,0,1,.46-.46h1.14v-1h-1.39a.2.2,0,0,1,0-.41h1.34a.42.42,0,0,1,.45.47v.83a.42.42,0,0,1-.45.47h-1.14Z" transform="translate(-182.78 -219.55)"/><path class="cls-3" d="M224,263.09h1.35c.2,0,.24.09.24.27v.91c0,.19-.08.25-.26.25h-1.47c-.19,0-.26-.07-.26-.25v-2.69c0-.09,0-.2.17-.2H224a.2.2,0,0,1,.19.2.19.19,0,0,1-.2.2Zm0,.4v.62h1.19v-.62Z" transform="translate(-182.78 -219.55)"/><path class="cls-3" d="M230.2,262.75h.75a.41.41,0,0,1,.32.11.4.4,0,0,1,.13.34v.87a.43.43,0,0,1-.1.32.39.39,0,0,1-.35.14H230a.58.58,0,0,1-.27-.07l-.15-.07c-.11,0-.23-.09-.23-.23a.2.2,0,0,1,.19-.2.29.29,0,0,1,.13,0l.12.05a.7.7,0,0,0,.21.08H231v-1h-1.19v-1.78h1.4a.2.2,0,0,1,0,.41h-1Z" transform="translate(-182.78 -219.55)"/><path class="cls-3" d="M232.51,261.78a.2.2,0,0,1,0-.41h1.39a.4.4,0,0,1,.4.41v.78a.57.57,0,0,0,0,.79v.78a.4.4,0,0,1-.4.4h-1.39a.2.2,0,0,1,0-.4h1.39v-.67c0-.23-.09-.29-.2-.29h-.79a.2.2,0,1,1,0-.41h.79c.11,0,.2-.07.2-.3v-.67Z" transform="translate(-182.78 -219.55)"/><path class="cls-3" d="M236,262.75h.75a.41.41,0,0,1,.32.11.4.4,0,0,1,.13.34v.87a.43.43,0,0,1-.1.32.39.39,0,0,1-.35.14h-.9a.58.58,0,0,1-.27-.07l-.15-.07c-.11,0-.23-.09-.23-.23a.2.2,0,0,1,.19-.2.29.29,0,0,1,.13,0l.12.05a.68.68,0,0,0,.21.08h.94v-1h-1.2v-1.78H237a.2.2,0,1,1,0,.41h-1Z" transform="translate(-182.78 -219.55)"/><path class="cls-3" d="M239.53,261.37a.19.19,0,0,1,.2.2v1.17a.41.41,0,0,1,.29.11.39.39,0,0,1,.11.3v1a.38.38,0,0,1-.41.4h-1.19a.38.38,0,0,1-.41-.4v-1a.39.39,0,0,1,.11-.3.41.41,0,0,1,.3-.11v-1.17a.19.19,0,0,1,.2-.2Zm.2,2.75v-1h-1.19v1Zm-.41-1.37v-1H239v1Z" transform="translate(-182.78 -219.55)"/><path class="cls-3" d="M245.57,262.82h-1.39a.21.21,0,0,1-.2-.2v-1a.21.21,0,0,1,.2-.2h1.6a.21.21,0,0,1,.2.2v2.75a.2.2,0,0,1-.2.2h-.2a.2.2,0,0,1-.2-.2.19.19,0,0,1,.2-.2Zm0-.41v-.63h-1.19v.63Z" transform="translate(-182.78 -219.55)"/><path class="cls-3" d="M247.29,261.78a.2.2,0,0,1-.41,0v-.2a.21.21,0,0,1,.2-.2h1.8v1.17c0,.14,0,.16-.11.26l-.57.49c-.11.09-.11.1-.11.24v.79a.2.2,0,0,1-.4,0v-1a.22.22,0,0,1,.1-.24l.56-.48c.13-.12.13-.11.13-.29v-.56Z" transform="translate(-182.78 -219.55)"/><path class="cls-3" d="M251.4,262.82H250a.21.21,0,0,1-.2-.2v-1a.21.21,0,0,1,.2-.2h1.6a.21.21,0,0,1,.2.2v2.75a.2.2,0,0,1-.2.2h-.2a.2.2,0,0,1-.2-.2.19.19,0,0,1,.2-.2Zm0-.41v-.63h-1.19v.63Z" transform="translate(-182.78 -219.55)"/><path class="cls-3" d="M252.92,261.78a.2.2,0,0,1,0-.41h1.39a.4.4,0,0,1,.41.41v.78a.57.57,0,0,0,0,.79v.78a.4.4,0,0,1-.41.4h-1.39a.2.2,0,1,1,0-.4h1.39v-.67c0-.23-.09-.29-.2-.29h-.79a.2.2,0,1,1,0-.41h.79c.11,0,.2-.07.2-.3v-.67Z" transform="translate(-182.78 -219.55)"/><path class="cls-3" d="M202.67,243.35a2.24,2.24,0,0,1-.89.15,1.65,1.65,0,0,1-1.82-1.74,1.77,1.77,0,0,1,1.9-1.85,2,2,0,0,1,.86.16l-.16.62a1.71,1.71,0,0,0-.66-.13,1.14,1.14,0,0,0,0,2.29,2,2,0,0,0,.66-.11Z" transform="translate(-182.78 -219.55)"/><path class="cls-3" d="M203.14,241.76c0-.37,0-.61,0-.83h.68l0,.46h0a.74.74,0,0,1,.68-.52h.16v.74l-.21,0a.5.5,0,0,0-.54.4.93.93,0,0,0,0,.18v1.28h-.78Z" transform="translate(-182.78 -219.55)"/><path class="cls-3" d="M205.66,242.44c0,.32.35.48.71.48a2.24,2.24,0,0,0,.7-.1l.1.53a2.5,2.5,0,0,1-.91.15,1.21,1.21,0,0,1-1.35-1.28,1.26,1.26,0,0,1,1.27-1.35,1.12,1.12,0,0,1,1.12,1.26,1.84,1.84,0,0,1,0,.31Zm.92-.54a.46.46,0,0,0-.44-.51.51.51,0,0,0-.48.51Z" transform="translate(-182.78 -219.55)"/><path class="cls-3" d="M210.22,239.79v2.91c0,.28,0,.58,0,.75h-.7l0-.37h0a.88.88,0,0,1-.79.43,1.16,1.16,0,0,1-1.08-1.29,1.19,1.19,0,0,1,1.13-1.34.77.77,0,0,1,.66.28h0v-1.37Zm-.78,2.21a1.18,1.18,0,0,0,0-.14.47.47,0,0,0-.46-.39c-.36,0-.54.32-.54.72s.21.7.54.7a.46.46,0,0,0,.45-.38.66.66,0,0,0,0-.18Z" transform="translate(-182.78 -219.55)"/><path class="cls-3" d="M211.66,240.23a.39.39,0,0,1-.42.39.39.39,0,1,1,0-.79A.39.39,0,0,1,211.66,240.23Zm-.81,3.22v-2.52h.78v2.52Z" transform="translate(-182.78 -219.55)"/><path class="cls-3" d="M213.14,240.21v.72h.56v.58h-.56v.91c0,.3.07.44.31.44l.23,0v.59a1.52,1.52,0,0,1-.51.07.81.81,0,0,1-.59-.22,1,1,0,0,1-.22-.75v-1H212v-.58h.33v-.55Z" transform="translate(-182.78 -219.55)"/><path class="cls-3" d="M216.4,243.34a2.28,2.28,0,0,1-.9.17,1.32,1.32,0,0,1-1.41-1.44,2.17,2.17,0,0,1,.74-1.68,2,2,0,0,1,1.31-.47,1.4,1.4,0,0,1,.75.17l-.14.35a1.43,1.43,0,0,0-.69-.14,1.47,1.47,0,0,0-1,.39,1.83,1.83,0,0,0-.53,1.32,1,1,0,0,0,1.06,1.13,1.74,1.74,0,0,0,.74-.15Z" transform="translate(-182.78 -219.55)"/><path class="cls-3" d="M218.46,243.45a6.38,6.38,0,0,1,.06-.64h0a1.09,1.09,0,0,1-1,.7.74.74,0,0,1-.72-.83,1.74,1.74,0,0,1,1.73-1.78,2.37,2.37,0,0,1,.67.1l-.25,1.3a5.75,5.75,0,0,0-.11,1.16Zm.28-2.18a1.15,1.15,0,0,0-.3,0,1.33,1.33,0,0,0-1.18,1.37c0,.28.1.55.43.55s.78-.46.9-1.13Z" transform="translate(-182.78 -219.55)"/><path class="cls-3" d="M219.49,243.45l.3-1.61c.06-.33.1-.66.13-.89h.38c0,.18,0,.35-.07.54h0a.9.9,0,0,1,.76-.6h.12l-.08.42h-.11c-.37,0-.7.45-.81,1l-.21,1.1Z" transform="translate(-182.78 -219.55)"/><path class="cls-3" d="M223.76,239.79l-.55,2.87a6.38,6.38,0,0,0-.11.79h-.39l.07-.5h0a1.06,1.06,0,0,1-.9.55c-.48,0-.75-.4-.75-.91a1.64,1.64,0,0,1,1.54-1.7,1.13,1.13,0,0,1,.44.09l.22-1.2Zm-.72,1.56a.77.77,0,0,0-.41-.1,1.23,1.23,0,0,0-1.06,1.3c0,.3.1.61.47.61s.73-.38.83-.94Z" transform="translate(-182.78 -219.55)"/><path class="cls-3" d="M245.81,241.15a4.66,4.66,0,0,1,.72,0,1.45,1.45,0,0,1,.73.13.51.51,0,0,1,.3.46.53.53,0,0,1-.41.5h0a.59.59,0,0,1,.49.57.61.61,0,0,1-.26.49,1.64,1.64,0,0,1-1,.21,4.56,4.56,0,0,1-.61,0Zm.56.89h.18c.29,0,.45-.11.45-.29s-.14-.27-.4-.27h-.24Zm0,1h.22c.25,0,.48-.09.48-.34s-.22-.33-.5-.33h-.19Z" transform="translate(-182.78 -219.55)"/><path class="cls-3" d="M248.6,242.85l-.18.6h-.58l.76-2.33h.74l.77,2.33h-.6l-.19-.6Zm.63-.39-.15-.49c0-.14-.09-.31-.12-.45h0c0,.14-.07.31-.11.45l-.15.49Z" transform="translate(-182.78 -219.55)"/><path class="cls-3" d="M250.44,243.45v-2.33h.66l.51.85a6.51,6.51,0,0,1,.41.8h0a8.06,8.06,0,0,1,0-1v-.68h.52v2.33h-.59l-.53-.9a8.74,8.74,0,0,1-.43-.82h0c0,.31,0,.64,0,1v.7Z" transform="translate(-182.78 -219.55)"/><path class="cls-3" d="M253,241.12h.56v1h0l.17-.26.56-.77H255l-.82,1,.87,1.34h-.66l-.61-1-.21.25v.76H253Z" transform="translate(-182.78 -219.55)"/><text class="cls-6" transform="translate(17.07 54.32)">06/19</text></svg>