<svg id="Calque_1" data-name="Calque 1" xmlns="http://www.w3.org/2000/svg" viewBox="0 0 195.69 141.24"><defs><style>.cls-1{fill:#282828;}.cls-2{fill:#2d2d2d;}.cls-3{fill:#3a3a3a;}.cls-4{opacity:0.1;}.cls-5{fill:#231f20;}</style></defs><title>collabsb</title><g id="Calque_1-2" data-name="Calque 1"><path class="cls-1" d="M153.12,98.91,128.85,87.73h-.36v-.1L118.4,80v.07a6.8,6.8,0,0,0-1.73-3.26l-.13.15V64.46A71.61,71.61,0,0,0,122.76,53c1.53-1,6.4-4.82,6.63-11.43.21-6-1.79-7.38-3.56-7.41C126.27,30,128.4,0,97.83,0,65,0,69.65,34.62,69.65,34.62h0c-1.72.22-3.55,1.5-3.27,6.93A15.1,15.1,0,0,0,73,53a71.68,71.68,0,0,0,6.2,11.4V76.9A6.87,6.87,0,0,0,77.58,80l-10,7.56V88L44.06,98.87A15.62,15.62,0,0,0,35.27,110L31.11,131.1s4,10.09,67.5,10.09,67.5-10.09,67.5-10.09L162,110A15.62,15.62,0,0,0,153.12,98.91Z" transform="translate(-0.04 0)"/><path class="cls-2" d="M60,52.92c.28-2.61,1.62-21.61-17.72-21.61-20.78,0-17.83,21.91-17.83,21.91-1.09.14-2.25,1-2.07,4.39a9.55,9.55,0,0,0,4.2,7.24,45.33,45.33,0,0,0,3.92,7.23V80a4.35,4.35,0,0,0-1,2l-6.35,4.78V87L8.23,93.91A9.89,9.89,0,0,0,2.67,101L0,114.3s2,4.94,29.77,6.13l2.17-11A19,19,0,0,1,42.66,95.87l19.44-9-.2-.09h-.23v-.06l-6.39-4.81h0a4.3,4.3,0,0,0-1.09-2.06l-.08.09V72A45.33,45.33,0,0,0,58,64.75a9.33,9.33,0,0,0,4.2-7.24C62.34,53.84,61.08,52.94,60,52.92Z" transform="translate(-0.04 0)"/><path class="cls-3" d="M187.54,93.89l-15.36-7.08H172v-.06l-6.39-4.81h0a4.3,4.3,0,0,0-1.09-2.06l-.08.09V72a45.33,45.33,0,0,0,3.94-7.26,9.33,9.33,0,0,0,4.2-7.24c.13-3.76-1.13-4.67-2.25-4.69.28-2.61,1.62-21.61-17.72-21.61-20.78,0-17.83,21.91-17.83,21.91-1.09.14-2.25,1-2.07,4.39a9.55,9.55,0,0,0,4.2,7.24A45.37,45.37,0,0,0,140.79,72v7.92a4.35,4.35,0,0,0-1,2l-5.88,4.45,20.61,9.5a19,19,0,0,1,10.68,13.5l2.16,11c26.47-1.29,28.37-6.06,28.37-6.06L193.1,101A9.89,9.89,0,0,0,187.54,93.89Z" transform="translate(-0.04 0)"/><g class="cls-4"><path class="cls-5" d="M98.57,141.24h0c63.49,0,67.5-10.09,67.5-10.09l-4.16-21.07a15.62,15.62,0,0,0-8.79-11.16L128.85,87.73h-.36v-.1L118.4,80v.07a6.8,6.8,0,0,0-1.73-3.26l-.13.15V64.46A71.61,71.61,0,0,0,122.76,53c1.53-1,6.4-4.82,6.63-11.43.21-6-1.79-7.38-3.56-7.41C126.26,30.05,128.35.5,98.56,0Z" transform="translate(-0.04 0)"/></g><g class="cls-4"><path class="cls-5" d="M165.2,109.38l2.16,11c26.47-1.29,28.37-6.06,28.37-6.06L193.1,101a9.89,9.89,0,0,0-5.56-7.06l-15.36-7.08H172v-.06L165.56,82h0a4.3,4.3,0,0,0-1.09-2.06l-.08.09V72.08a45.33,45.33,0,0,0,3.94-7.26,9.33,9.33,0,0,0,4.2-7.24c.13-3.76-1.13-4.67-2.25-4.69.28-2.61,1.62-21.61-17.72-21.61h-.07V94.89l2,.94A19,19,0,0,1,165.2,109.38Z" transform="translate(-0.04 0)"/></g><g class="cls-4"><path class="cls-5" d="M41.46,96.45c.38-.21.76-.41,1.16-.59l19.44-9-.2-.09h-.23v-.06L55.24,81.9h0a4.3,4.3,0,0,0-1.09-2.06l-.08.09V72A45.37,45.37,0,0,0,58,64.74a9.34,9.34,0,0,0,4.2-7.24c.13-3.76-1.13-4.67-2.25-4.69.28-2.61,1.62-21.61-17.72-21.61h-.78Z" transform="translate(-0.04 0)"/></g></g></svg>