<svg id="Calque_1" data-name="Calque 1" xmlns="http://www.w3.org/2000/svg" viewBox="0 0 511.3 554.73"><defs><style>.cls-1{fill:#fff;}</style></defs><title>Sans titre - 1</title><path class="cls-1" d="M428,572.27v68q100.72,0,201.43,0c16.6,0,33.18.17,49.8-1.63,10.39-1.12,20.68-2.55,31-4.15,20.88-3.23,40.79-9.74,60.17-17.78C825.48,593.79,868.92,557.2,899.79,506c19.49-32.35,32.29-67.08,37.07-104.57a280.89,280.89,0,0,0,1.41-60.66c-.8-9-1.13-18.07-2.61-26.92Q921,226.68,858.18,164.38c-7.41-7.34-15.67-13.63-23.85-20-7,3.43-11.06,10-15.72,15.61-13.64,16.44-26.27,33.72-39.92,50.15-10.71,12.89-21.08,26.06-32,38.79-12.83,15-24.71,30.72-36.72,46.35-3.44,4.47-9.14,7.69-9.05,14.42q21,12.4,42.09,24.79c5.88,3.45,11.88,6.69,17.7,10.25a20.92,20.92,0,0,1,2.38,34.35c-3.27,2.71-7.5,3.3-11.09,5.4q-68.89,40.32-138,80.35a60.21,60.21,0,0,1-9.83,4.83c-13.14,4.69-24.85-3.48-25-17.37-.2-20.29-.27-40.59-.39-60.88-1.67,0-2.57,1.22-3.74,2.17-4.85,3.95-7.66,9.57-11.88,14.06-6.92,7.35-12.49,15.82-19.08,23.49-9.4,10.92-17.58,22.88-27,33.73-8.5,9.74-16.4,20-24.61,29.92-9.25,11.21-18.25,22.68-27.28,34.1-8.62,10.91-17.3,21.8-26.37,32.33C435.48,565.05,433.85,570.79,428,572.27Z" transform="translate(-428 -85.53)"/><path class="cls-1" d="M834.34,144.33c-16.25-13.23-34.52-23.1-53.46-31.81C740.57,94,698.11,85.87,653.86,86q-109.47.23-218.93,0c-2.31,0-4.67.39-6.93-.47V572.27c5.85-1.48,7.48-7.22,10.83-11.1,9.08-10.53,17.75-21.42,26.37-32.33,9-11.42,18-22.89,27.28-34.1,8.21-10,16.11-20.18,24.61-29.92,9.47-10.85,17.65-22.81,27-33.73,6.6-7.66,12.17-16.14,19.08-23.49,4.22-4.48,7-10.11,11.88-14.06,1.17-1,2.07-2.16,3.74-2.17.06-2.16.17-4.32.17-6.48q0-52.7,0-105.4a49.34,49.34,0,0,1,1.08-11.9c2.81-11.46,11.81-16.55,23.17-13.23a43,43,0,0,1,9.51,4.32c10.36,6,20.7,12.08,31.08,18.07q28.52,16.48,57.07,32.9c-.09-6.73,5.61-9.95,9.05-14.42,12-15.63,23.9-31.4,36.72-46.35,10.92-12.73,21.29-25.9,32-38.79,13.65-16.43,26.28-33.71,39.92-50.15C823.28,154.32,827.35,147.76,834.34,144.33Z" transform="translate(-428 -85.53)"/></svg>