<svg id="Calque_1" data-name="Calque 1" xmlns="http://www.w3.org/2000/svg" viewBox="0 0 92.03 164.02"><defs><style>.cls-1{fill:#222;}</style></defs><title>Sans titre - 1</title><path class="cls-1" d="M893.6,400.84l14-9.57a.77.77,0,0,1,1.21.64v8.38a.77.77,0,0,0,.52.73l16.55,5.74a21.5,21.5,0,0,1,9.36,6.42l13.81,16.31a4,4,0,0,1,.65,4.05l-4,9.93a4,4,0,0,1-5.3,2.12l-17.74-8a2,2,0,0,0-2.58,2.74c4,7.68,12.75,17.63,25.94,30.83,11.92,11.92,7.47,27.23,4.64,33.92a5.55,5.55,0,0,1-5.11,3.37h-39.1A5.55,5.55,0,0,1,901,504c-6.37-31.79-30-40.49-30-66.18C871,410.08,893.6,400.84,893.6,400.84Z" transform="translate(-870.97 -391.14)"/><path class="cls-1" d="M892,544.76h4.62a2.75,2.75,0,0,0,2.75-2.75V524a2.75,2.75,0,0,0-2.75-2.75h0a2.75,2.75,0,0,1-2.75-2.75v-4.9a2.75,2.75,0,0,1,2.75-2.75h59.06a2.75,2.75,0,0,1,2.75,2.75v4.9a2.75,2.75,0,0,1-2.75,2.75,2.75,2.75,0,0,0-2.75,2.75v18a2.75,2.75,0,0,0,2.75,2.75h4.62a2.75,2.75,0,0,1,2.75,2.75v4.9a2.75,2.75,0,0,1-2.75,2.75H892a2.75,2.75,0,0,1-2.75-2.75v-4.9A2.75,2.75,0,0,1,892,544.76Z" transform="translate(-870.97 -391.14)"/></svg>