<svg id="Calque_1" data-name="Calque 1" xmlns="http://www.w3.org/2000/svg" viewBox="0 0 58 43.01"><defs><style>.cls-1{fill:#fff;}</style></defs><title>dsound</title><path class="cls-1" d="M18.34,32.27v8.17c0,1.28-.28,2.55-1.8,2.57s-1.81-1.22-1.81-2.52V23.79c0-1.37.55-1.73,1.79-1.71s1.91.23,1.87,1.66C18.28,26.59,18.34,29.43,18.34,32.27Z" transform="translate(0 0)"/><path class="cls-1" d="M14.73,10.84V2.49C14.73,1.19,15,0,16.57,0s1.77,1.2,1.77,2.42V19.29c0,1.46-.74,1.57-1.9,1.61s-1.81-.34-1.77-1.71C14.79,16.4,14.73,13.62,14.73,10.84Z" transform="translate(0 0)"/><path class="cls-1" d="M38.35,13.5c0,1.9-.08,3.8,0,5.69.07,1.41-.59,1.71-1.8,1.7s-1.92-.14-1.9-1.61c.07-3.85,0-7.7,0-11.55,0-1.29.43-2.31,1.87-2.28s1.8,1.1,1.79,2.37C38.34,9.71,38.35,11.61,38.35,13.5Z" transform="translate(0 0)"/><path class="cls-1" d="M34.7,29.5c0-1.9.06-3.8,0-5.69-.06-1.37.55-1.75,1.8-1.72s1.92.16,1.89,1.63c-.07,3.85,0,7.71,0,11.56,0,1.29-.42,2.32-1.86,2.28s-1.8-1.12-1.8-2.38Q34.7,32.35,34.7,29.5Z" transform="translate(0 0)"/><path class="cls-1" d="M13.42,13.63c0,2-.06,3.91,0,5.87,0,1.34-.75,1.4-1.71,1.39S9.78,21,9.8,19.5V7.76c0-1.2.41-2.18,1.79-2.16s1.79.92,1.78,2.16C13.41,9.71,13.42,11.67,13.42,13.63Z" transform="translate(0 0)"/><path class="cls-1" d="M13.41,29.51v5.87c0,1.18-.48,2-1.73,2a1.71,1.71,0,0,1-1.82-1.94V23.35c0-1.52,1.12-1.23,2-1.28s1.6.17,1.57,1.35C13.37,25.47,13.41,27.49,13.41,29.51Z" transform="translate(0 0)"/><path class="cls-1" d="M33.31,28.85V34a1.8,1.8,0,1,1-3.59.08V23.44c0-1.47,1-1.31,2-1.33s1.72.15,1.67,1.43c-.07,1.77,0,3.54,0,5.32Z" transform="translate(0 0)"/><path class="cls-1" d="M29.7,14.36V9.22c0-1.25.54-2.12,1.85-2.11s1.79.87,1.78,2.14c0,3.37-.06,6.73,0,10.1,0,1.36-.64,1.55-1.73,1.55s-2-.08-1.92-1.57c.08-1.65,0-3.31,0-5Z" transform="translate(0 0)"/><path class="cls-1" d="M19.78,14.74V9.94c0-1.24.41-2.14,1.77-2.17s1.85.8,1.84,2.08v9.59c0,1.29-.68,1.46-1.68,1.43s-2,.16-2-1.34,0-3.2,0-4.8Z" transform="translate(0 0)"/><path class="cls-1" d="M23.37,28.51v4.8c0,1.24-.6,1.93-1.81,1.92s-1.8-.74-1.8-2V23.45c0-1.46,1-1.37,1.94-1.39s1.75.12,1.69,1.42C23.31,25.19,23.37,26.85,23.37,28.51Z" transform="translate(0 0)"/><path class="cls-1" d="M43.26,27.9v4.26c0,1.23-.72,2.07-1.83,1.84a2.59,2.59,0,0,1-1.67-1.79c-.18-2.94-.08-5.91-.09-8.86,0-1.38,1-1.21,1.87-1.23s1.8,0,1.74,1.35,0,3,0,4.43Z" transform="translate(0 0)"/><path class="cls-1" d="M43.27,15.07v4.42c0,1.42-.79,1.35-1.74,1.34s-1.93.09-1.9-1.38c0-2.83,0-5.66,0-8.5,0-1.25.6-2.09,1.92-2s1.71.88,1.69,2.06C43.26,12.39,43.27,13.75,43.27,15.07Z" transform="translate(0 0)"/><path class="cls-1" d="M4.77,26.65V24c-.09-1.29.25-2,1.74-1.93s2,.5,1.91,2c-.11,1.94,0,3.89,0,5.83,0,1.3-.61,2-1.93,2s-1.71-.84-1.69-2S4.77,27.71,4.77,26.65Z" transform="translate(0 0)"/><path class="cls-1" d="M8.39,16.3a25.57,25.57,0,0,0,0,2.66c.16,1.49-.47,1.94-1.92,2s-1.78-.67-1.73-2c.07-2,0-3.91,0-5.86,0-1.23.56-1.89,1.81-1.9s1.81.68,1.8,1.9v3.2Z" transform="translate(0 0)"/><path class="cls-1" d="M44.61,17.07a8.23,8.23,0,0,1,.07-2.63,2.85,2.85,0,0,1,1.61-1.63,1.46,1.46,0,0,1,1.88,1.54c.06,1.82.07,3.65,0,5.47,0,1.41-1.22,1-2,1s-1.59,0-1.56-1.13V17.07Z" transform="translate(0 0)"/><path class="cls-1" d="M44.58,25.92V24.15c0-2,.31-2.3,2.27-2a1.86,1.86,0,0,1,1.29,1.18,46.44,46.44,0,0,1,0,5.3,1.46,1.46,0,0,1-1.89,1.54,2.86,2.86,0,0,1-1.61-1.64,8.25,8.25,0,0,1-.07-2.63Z" transform="translate(0 0)"/><path class="cls-1" d="M28.41,17.29V18.7c0,2.11-.43,2.51-2.49,2.09a1.73,1.73,0,0,1-1.1-1.18c-.14-1.52,0-3.06,0-4.59,0-1.22.68-1.65,1.8-1.64s1.85.34,1.82,1.61v2.3Z" transform="translate(0 0)"/><path class="cls-1" d="M28.4,25.83v1.94c.07,1.27-.53,1.84-1.78,1.85s-1.9-.46-1.88-1.76V23.44c0-1.32.85-1.35,1.78-1.33s2,0,1.88,1.41C28.36,24.29,28.4,25.07,28.4,25.83Z" transform="translate(0 0)"/><path class="cls-1" d="M53.21,18.07c0,2.78-.37,3.2-2.56,2.8a2.08,2.08,0,0,1-.35-.06c-.66-.24-1.09-3.56-.62-5s1.52-1.23,2.49-.94a2,2,0,0,1,1,1.25A7.31,7.31,0,0,1,53.21,18.07Z" transform="translate(0 0)"/><path class="cls-1" d="M53.23,25.24c-.16,1.17.59,3-1.73,3.07-1.57.07-1.89-.5-1.89-3.21a7.83,7.83,0,0,0,0-1.07c-.21-1.51.52-1.92,1.93-2s1.8.74,1.7,2A11.89,11.89,0,0,0,53.23,25.24Z" transform="translate(0 0)"/><path class="cls-1" d="M57.93,18.71c.21,1.35,0,2.25-1.75,2.21-1.44,0-1.9-.53-1.73-1.89.15-1.2-.45-2.75,1.7-2.8C58.06,16.19,58.06,17.37,57.93,18.71Z" transform="translate(0 0)"/><path class="cls-1" d="M54.48,24.23c-.22-1.35.1-2.13,1.79-2.16,1.9,0,1.7,1.12,1.7,2.31s.1,2.41-1.71,2.41S54.38,25.6,54.48,24.23Z" transform="translate(0 0)"/><path class="cls-1" d="M.07,24c-.26-1.36.32-1.83,1.71-1.87,1.63,0,1.78.78,1.78,2.08s-.39,2.14-1.88,2.11S-.1,25.23.07,24Z" transform="translate(0 0)"/><path class="cls-1" d="M.07,18.87c-.25-1.42.31-2.14,1.78-2.12S3.5,17.81,3.55,19s-.39,1.85-1.79,1.88C.15,21-.17,20.21.07,18.87Z" transform="translate(0 0)"/></svg>