<svg id="Calque_1" data-name="Calque 1" xmlns="http://www.w3.org/2000/svg" viewBox="0 0 50.44 50.31"><defs><style>.cls-1{fill:#fff;}</style></defs><title>dtube</title><path class="cls-1" d="M47.49,11.48A20.82,20.82,0,0,0,39.33,3,23.48,23.48,0,0,0,27.48,0H.38L14.9,8.37H27.48q6.11,0,9.28,4T39.93,24v2.66Q39.86,34,36.66,38t-9.28,4h-13L0,50.3H27.57a23.65,23.65,0,0,0,11.84-3,20.64,20.64,0,0,0,8.13-8.45,26.26,26.26,0,0,0,2.88-12.46V24a26.19,26.19,0,0,0-2.93-12.51" transform="translate(0.02 0.01)"/><polygon class="cls-1" points="29.58 25.15 0.29 8.24 0.29 42.06 29.58 25.15"/></svg>