<svg id="Layer_1" data-name="Layer 1" xmlns="http://www.w3.org/2000/svg" viewBox="0 0 280 325"><defs><style>.cls-1{fill:#fff;}</style></defs><title>e280px-Epic_Games_logo.svg</title><path class="cls-1" d="M819,633V396a6.77,6.77,0,0,0,1-1.92c1-7.86,4.65-13.5,12.78-15.42,1.26-.3,2.58-.4,3.83-.72A5.27,5.27,0,0,0,838,377h242c.35,1.43,1.55.85,2.42,1,7.29,1.24,13,4.36,14.67,12.3.3,1.42.58,2.85,1,4.24A5.72,5.72,0,0,0,1099,396V634c-.32.48-.91.94-.93,1.43-.19,4.94-2.4,8.56-6.35,11.58a34.3,34.3,0,0,1-7.84,4c-8,3.37-16,6.67-24,10-6.79,2.87-13.53,5.83-20.31,8.69-7.38,3.12-14.8,6.17-22.2,9.24-6.65,2.75-13.3,5.48-19.95,8.24-7.85,3.26-15.78,6.36-23.5,9.92-3.62,1.68-7.57,2.63-10.94,4.87h-8c-4.1-2.6-8.78-4-13.17-5.9-9-4-18.14-7.45-27.19-11.25s-18.31-7.92-27.51-11.78c-9-3.79-18.16-7.41-27.22-11.15-9.67-4-19.4-7.86-29-12.11-6.31-2.8-11-7.18-11-14.86C819.93,634.3,819.32,633.65,819,633Zm237.64-165.17c1.28-2.24,1.33-2.24,1.3-4.17-.18-9.26.51-18.55-.84-27.8-.66-4.58-2.3-8.73-5.73-11.65a21.92,21.92,0,0,0-14.51-5.24c-3.83,0-7.66,0-11.49,0a25.34,25.34,0,0,0-8.79,1c-5.08,1.76-9.59,4-11.91,9.51a31.33,31.33,0,0,0-2.66,12.37q0,39.72,0,79.44a41.41,41.41,0,0,0,1.08,10.26c1,3.8,2.64,7.61,6.07,9.94a24.4,24.4,0,0,0,13.32,4.52c4,.08,8-.06,12,.07a32,32,0,0,0,8.78-1c7.23-1.78,11.71-6.45,13.65-13.47a32.83,32.83,0,0,0,1-8.27c.13-8.66.06-17.32,0-26,0-1.11-.19-2.21-.28-3.15H1039c0,9.1,0,17.91,0,26.72,0,2.39-.23,4.6-1.9,6.45-3.07,2-2.52,1.56-7.56,1.6-5.82,0-7.64-1.6-8.37-7.29a20.82,20.82,0,0,1,0-2.5c0-24.48,0-49,0-73.44a23.09,23.09,0,0,1,1.08-6.25,3.82,3.82,0,0,1,3-3c4.21-.54,8.54-1.49,12.71,2,.29,2.4.82,5.13.89,7.88.14,5.82,0,11.65.05,17.48,0,1.29.11,2.57.17,4ZM912.09,420c-.82,19.51-.45,120.58.41,124.81h18.64V500.05c6.08-.25,11.85.21,17.58-.92a19.16,19.16,0,0,0,13.33-9.29,23.35,23.35,0,0,0,3-12.28q0-17,0-34a34,34,0,0,0-.89-8.31c-2-7.82-6.63-12.55-14.49-14.38a33.88,33.88,0,0,0-7.81-.92C932,420,922.22,420,912.09,420Zm-9.22.26c-8.76-.63-38.9-.41-42.66.29V544.84h42.63V527H879.32V490h22.47v-17.1h-7.57c-2.5,0-5,.11-7.49,0s-5,.69-7.39-.83V438h5.14c5.16,0,10.32.05,15.48,0a10,10,0,0,0,2.91-1Zm70.38-.14V544.82H992c0-1,.13-1.81.13-2.61q0-60.71-.11-121.4c0-.14-.13-.28-.23-.4a2.07,2.07,0,0,0-.35-.32Zm1,155-8.83,14.41-9.13-14.44H946.05a8.61,8.61,0,0,0-.94,2.65q-.11,16.23,0,32.46a7.31,7.31,0,0,0,1,2.65H956v-6.56c0-2.33-.06-4.66,0-7,.06-2-.33-4.13.44-6.59L965,605.51c4.15-4.12,5.87-9.46,9.84-13.7.26,7.28-.11,14.2.22,21h9.78V575.11Zm38.59,82.82-.41-.68H906.21l-.16.68L958.26,676Zm8.8-73.88c1.6-3.26,1.62-3.54.8-8.94H992.83a15.78,15.78,0,0,0-.73,3.26q-.08,15.72,0,31.43a12,12,0,0,0,.81,3.05H1023c-.11-3.06.47-5.94-.39-8.8-6.69-.21-13.12.12-19.69-.21l.3-5.66c6.12-.46,11.91.33,17.49-.44v-8h-17.77c.1-2.13.17-3.87.25-5.73ZM871.49,599.82c-2-6.27-1.39-11.35,2.31-14,5.28-3.71,10.54-2.31,15.34,1.15l6.05-7.22c-6.3-4.63-12.53-7-20.12-4.95-12.64,3.33-17.33,13.6-14.64,25,1.7,7.17,6.87,11.37,13.94,13.22a21.09,21.09,0,0,0,10.62.17,24.93,24.93,0,0,0,11.19-5.64c-.27-5.65.27-11.09-.34-16.41H879.21v7.93H887l-.45,4C878.83,606,876.81,605.56,871.49,599.82Zm28.29,13h10.87l2.72-6.58H928c.51,1.31.91,2.53,1.46,3.67s1.27,2.21,1.9,3.27c3.42-.36,6.55.27,10.2-.55l-15.77-37.48H915.71Zm157.55-33c-3.95-3.59-11.54-6.38-15.81-5.73a23.23,23.23,0,0,0-7.52,2,10.92,10.92,0,0,0-6.19,10.46c.07,4.56,1.79,7.65,5.91,9.34,2.1.87,4.33,1.42,6.5,2.13,2,.65,4,1.26,6,2,1.44.53,2,1.66,1.55,3.45-6,3.88-11-.73-16.43-2.74l-5.46,6.88c7.86,5.22,15.8,8.07,25,4.51a10.76,10.76,0,0,0,7.12-8.11c.26-1.1.53-2.21.75-3.14-.93-3.34-1.88-6.65-5-8.37A39.78,39.78,0,0,0,1047,590c-2.32-.76-4.7-1.32-7-2.05-1.45-.46-2.15-1.49-1.78-3.3,5-4,9.39.61,14.32,1.64Z" transform="translate(-819 -377)"/><path class="cls-1" d="M931.32,437.06c2.57,0,4.89,0,7.21,0,4.8.08,7.14,2.33,7.33,7.29.14,3.48,0,7,0,10.48,0,6.48.08,13,0,19.46-.1,6.16-2.64,8.55-8.83,8.6-1,0-2,0-3,0h-2.71Z" transform="translate(-819 -377)"/><path class="cls-1" d="M924.2,597.68H917c.49-3.59,2.43-6.37,3.55-10.27C922.05,591.12,923.79,593.89,924.2,597.68Z" transform="translate(-819 -377)"/></svg>