<svg id="Calque_1" data-name="Calque 1" xmlns="http://www.w3.org/2000/svg" viewBox="0 0 150.94 151.4"><defs><style>.cls-1{fill:#3f3250;}.cls-2{opacity:0.2;}.cls-3{fill:#231f20;}.cls-4{fill:#d91b5c;}.cls-5{fill:#fff;}</style></defs><title>find</title><g id="Calque_1-2" data-name="Calque 1"><rect class="cls-1" x="35.11" y="95.29" width="29.72" height="10.5" transform="translate(-56.46 64.78) rotate(-45)"/><g class="cls-2"><rect class="cls-3" x="48.94" y="89.57" width="13.51" height="10.5" transform="translate(-50.74 67.15) rotate(-45)"/></g><path class="cls-4" d="M42.2,113.79l-5.07-5.07a5.45,5.45,0,0,0-7.71,0h0L1.6,136.52a5.45,5.45,0,0,0,0,7.71h0l5.07,5.07a5.45,5.45,0,0,0,7.71,0h0L42.2,121.52a5.45,5.45,0,0,0,0-7.71Z" transform="translate(0 0)"/><circle class="cls-4" cx="95.61" cy="55.33" r="55.33" transform="translate(-11.13 83.81) rotate(-45)"/><g class="cls-2"><path class="cls-3" d="M134.72,94.45a55.33,55.33,0,0,0,0-78.24L56.47,94.45a55.33,55.33,0,0,0,78.25,0Z" transform="translate(0 0)"/></g><circle class="cls-5" cx="95.61" cy="55.33" r="45.49" transform="translate(-11.13 83.81) rotate(-45)"/><g class="cls-2"><path class="cls-3" d="M3.92,146.59l3.55,3.55a4.31,4.31,0,0,0,6.09,0L43,120.7a4.31,4.31,0,0,0,0-6.09l-3.55-3.55Z" transform="translate(0 0)"/></g></g></svg>