<?xml version="1.0" encoding="utf-8"?>
<!-- Generator: Adobe Illustrator 22.1.0, SVG Export Plug-In . SVG Version: 6.00 Build 0)  -->
<svg version="1.1" id="Calque_1" xmlns="http://www.w3.org/2000/svg" xmlns:xlink="http://www.w3.org/1999/xlink" x="0px" y="0px"
	 viewBox="0 0 492 149.6" style="enable-background:new 0 0 492 149.6;" xml:space="preserve">
<style type="text/css">
	.st0{fill:#D91B5C;}
	.st1{fill:#22252C;}
</style>
<title>fundition</title>
<path class="st0" d="M116.5,92.3c-1.2,0.3-1.5,0-1.4-1.1V90c-0.3-1.6,0.5-3.2,1.9-3.9c3.8-2.3,5.9-6.6,5.3-11
	c-0.2-1.9-1.3-3.7-3-4.6c-14.1-8.6-28.4-16.8-42.8-25c-0.8-0.6-1.9-0.6-2.6,0.1c-1.7,1.3-3.4,2.4-5.2,3.7c-0.5,0.3-0.8,0.8-0.9,1.4
	c-1.1,5-2.1,9.9-3.5,14.8c-0.4,1.8-1.9,3.1-3.8,3.1c-2.5,0.2-4.9,0.4-7.3-0.8c-1.9-0.8-3.1-2.7-3-4.8c-0.1-4.4,0.4-8.7,1.4-13
	c0.4-2,0.8-3.9,1.2-5.9c0.4-2.2,1.6-4.1,3.4-5.4c4.8-3.5,9.6-7.1,14.4-10.7c0.9-0.6,1.8-1.2,2.7-1.6c0.7-0.2,1.4-0.2,2.1,0
	c10.5,2.6,18.6,10.9,27.8,16.3c0.9,0.6,2.1,0.8,3.2,0.5c14-3.4,27.8-7.7,41.8-11.2c0.3-0.1,0.6-0.1,0.8-0.1V5.2
	c0-2.7-2.2-4.9-4.9-4.9H4.9C2.2,0.4,0,2.5,0,5.2v31.7c8.5,2.5,17.1,4.8,25.6,7.5c4.2,1.3,7.4-0.5,10.6-2.6c6-3.8,12-7.6,18-11.5
	c0.8-0.4,1.8-0.5,2.6-0.2c0.6,0.1,1.2,0.3,1.8,0.6c0.8,0.4,2,0.6,2.1,1.5c0.1,0.7-1.1,1-1.7,1.4c-2,1.5-4.2,2.8-6.2,4.4
	c-1.9,1.3-2.1,3.6-2.7,5.6c-1.3,4.7-2,9.4-3,14.2c-0.3,2-0.3,4.1-0.1,6.2c0.2,2.4,1.5,4.5,3.6,5.7c4.3,2.2,7.6,2.2,12.3,1.8
	c1.6-0.1,2.9-1.1,3.5-2.5c1.4-3,2.4-6.1,3-9.3c0.4-2,0.8-4,1.2-6c0.4-2.4,2.3-3.8,4.3-5c0.3-0.1,0.7-0.1,1,0
	c7,3.7,13.7,7.6,20.5,11.7s13.6,7.8,20.5,11.7c3.6,2,4,4.5,1.4,8.5c-2.4,3.8-4.9,4-9.4,1.1c-3.2-2-6.2-3.7-9.5-5.6
	c-0.8-0.3-1.3-0.5-2.1-0.9c-0.6-0.1-1.4,0.6-1.6,1.2c-0.2,0.6,0.3,0.8,0.7,1.1c2.6,1.7,5.3,3,8,4.5c2.8,1.5,4.6,2.7,6.9,4.4
	c1.3,1.1,1.7,2.9,1.1,4.4c-0.6,2.3-1.9,4.3-3.6,5.9c-0.8,0.9-2.1,1.2-3.2,0.7c-3.3-1.7-6.1-3.3-9.2-5c-2.1-1.2-4.2-2.5-6.3-3.6
	c-0.7-0.5-1.6-0.3-2.1,0.3l-0.1,0.2c-0.6,1,1,1.4,1.5,1.8c3,1.8,5.5,3.3,8.4,5.1c1.1,0.7,2.2,1.5,3.3,2.3c0.9,0.6,1.3,1.7,1,2.7
	c-0.5,2-1.4,3.9-2.6,5.5c-2.1,2.5-4,2.8-6.7,1c-3-1.9-6-3.5-9.1-5.1c-0.5-0.3-1-0.5-1.6-0.6c-0.3-0.1-0.8-0.2-1,0.2
	c-0.1,0.4,0.1,0.9,0.5,1.1c1.4,0.9,2.9,1.7,4.3,2.6c1.9,1.1,2.6,3.6,1.5,5.5c-1.1,2.2-2.1,4.5-4.5,5.6c-0.9,0.4-1.9,0.5-2.8,0.1
	c-2.4-0.8-2.7-1.8-1.3-3.9c1.5-2.7,1.2-6.1-0.9-8.4c-2.1-2.6-5.1-4.2-8.4-4.7c-0.8-0.1-1.6-0.6-1.8-1.5c-1.3-3.4-4.1-5.9-7.6-6.8
	c-2.4-0.7-5.1-0.3-7.2,1c-1.9,1-1.9,1-2.9-1c-0.6-1-1.4-1.9-2.4-2.4c-1.5-0.7-3.2-1.1-4.9-1c-2.2,0.1-3.3,0.3-4.9,1.7
	c-0.9,1-1.9,2.3-3.1,2.6s-2.1-1.3-3.2-2c-2-1.5-4.4-2.4-6.9-2.6c-2.1-0.1-3.5,1.5-4.6,3.1c-1,1.4-1.7,1.8-3.5,1.3
	C11,90.8,5.5,89.1,0,87.5v56.9c0,2.7,2.2,4.9,4.9,4.9h139.3c2.7,0,4.9-2.2,4.9-4.9V83.3c-4.7,1.3-9.5,2.7-14.2,4
	C128.7,88.9,122.6,90.5,116.5,92.3z M25.5,104.7c-2.3-0.5-4.4-1.7-5.9-3.5c-1.2-1.2-1.3-3.1-0.4-4.5c0.8-1.4,1.7-2.8,2.8-4
	c1-1.2,1.6-1.9,3.4-2c2.1,0,4.2,0.9,5.7,2.4c2.4,2.3,2.6,3.9,0.8,6.7c-0.9,1.3-1.8,2.3-2.8,3.6C28.3,104.6,26.8,105.1,25.5,104.7
	L25.5,104.7z M37.8,111.8c-2.5-0.8-5-1.5-6.2-4.3c-0.5-1-0.4-2.2,0.2-3.1L40,92.1c0.2-0.3,0.5-0.6,0.9-0.6c2.7-0.5,7,1.4,8.5,3.8
	c0.4,0.5,0.6,1,0.6,1.6c-0.2,0.7-0.4,1.3-0.7,2c-1.9,3.9-3.7,7.1-5.9,11C41.6,112.4,40.8,112.8,37.8,111.8z M50.5,119.8
	c-1.6-0.8-3.2-1.7-4.8-2.8c-2-1.5-2.3-2.3-1.2-4.6c2-4.5,4.5-8.9,6.9-13.3c0.5-0.9,1-1.8,1.5-2.7c0.8-1.6,1.7-2,3.5-2
	c4-0.1,6.7,1.4,8.3,4.8c0.5,0.7,0.5,1.7,0,2.4c-3.5,6.1-7.2,11.8-11,17.4C52.8,120.3,51.9,120.7,50.5,119.8z M76.1,110.6
	c-2.4,5.5-5.1,10.3-7.8,15.4c-0.6,0.8-1.7,2.2-2.5,1.9l-2.1-0.7c-1.4-0.6-2.8-1-4.1-1.6c-2.4-1.1-3.2-2.8-2-5.1
	c2.9-5.5,6-10.7,9.3-16c0.8-1.3,2.1-1.1,3.2-1c2.2,0.3,4.2,1.6,5.5,3.4C76.3,108,76.6,109.4,76.1,110.6L76.1,110.6z"/>
<g>
	<g>
		<path class="st1" d="M169.3,98.5V68.4h9.3c2.5,0,4.9,0.6,7.1,1.8c2.1,1.2,3.8,3,4.9,5.1c1.2,2.3,1.8,4.9,1.8,7.5v1.4
			c0.1,2.6-0.5,5.2-1.7,7.5c-1.1,2.1-2.8,3.9-4.9,5.1c-2.2,1.2-4.6,1.8-7.1,1.8L169.3,98.5z M175.5,73.5v20.1h3
			c2.1,0.1,4.2-0.8,5.6-2.4c1.3-1.6,1.9-3.9,1.9-6.8v-1.6c0-3.1-0.6-5.4-1.9-6.9c-1.4-1.6-3.4-2.5-5.6-2.4L175.5,73.5z"/>
		<path class="st1" d="M214.9,85.4H203v8.1h14v5h-20.2V68.4h20.1v5H203v7.2h11.9V85.4z"/>
		<path class="st1" d="M244.2,88.5c-0.1,2.9-1.4,5.7-3.6,7.6c-2.4,1.9-5.4,2.9-8.5,2.8c-3.5,0.2-6.8-1.3-9.1-3.9
			c-2.2-2.6-3.3-6.2-3.3-10.7v-1.8c-0.1-2.6,0.5-5.2,1.5-7.6c0.9-2.1,2.4-3.9,4.4-5.1c4.7-2.7,10.7-2.3,15,1c2.2,2,3.5,4.8,3.7,7.8
			H238c0-1.6-0.6-3.1-1.6-4.2c-1.2-1-2.7-1.4-4.2-1.3c-1.8-0.1-3.6,0.7-4.6,2.2c-1,1.5-1.5,3.8-1.5,6.9v2.3c0,3.2,0.5,5.6,1.5,7.1
			c1,1.5,2.8,2.4,4.7,2.3c1.5,0.1,3.1-0.3,4.3-1.3c1-1.1,1.6-2.5,1.6-4.1H244.2z"/>
		<path class="st1" d="M266.4,85.4h-11.9v8.1h14v5h-20.2V68.4h20.1v5h-13.9v7.2h11.9L266.4,85.4z"/>
	</g>
	<g>
		<path class="st1" d="M296.5,98.5h-6.2l-12.1-19.8v19.8h-6.2V68.4h6.2l12.1,19.8V68.4h6.2V98.5z"/>
	</g>
	<g>
		<path class="st1" d="M324,73.4h-9.2v25h-6.2v-25h-9.1v-5H324V73.4z"/>
		<path class="st1" d="M338.6,87.5h-4.9v11h-6.2V68.4h11.2c3.6,0,6.3,0.8,8.2,2.4c2,1.7,3,4.1,2.9,6.7c0.1,1.8-0.4,3.6-1.3,5.1
			c-1,1.5-2.4,2.6-4,3.3l6.5,12.3v0.3h-6.6L338.6,87.5z M333.7,82.5h5c1.3,0.1,2.6-0.3,3.6-1.2c0.9-0.9,1.3-2,1.3-3.3
			c0.1-1.2-0.4-2.4-1.2-3.3c-1-0.9-2.4-1.3-3.7-1.2h-5L333.7,82.5z"/>
		<path class="st1" d="M371.4,92.3h-10.9l-2.1,6.2h-6.6l11.2-30.1h5.7l11.3,30.1h-6.6L371.4,92.3z M362.3,87.3h7.5L366,76
			L362.3,87.3z"/>
		<path class="st1" d="M389.1,93.5h13.1v5h-19.3V68.4h6.2L389.1,93.5z"/>
		<path class="st1" d="M412.4,98.5h-6.2V68.4h6.2V98.5z"/>
		<path class="st1" d="M424.7,93.5h15.2v5H417v-3.6l14.9-21.4H417v-5h22.5V72L424.7,93.5z"/>
		<path class="st1" d="M461.9,85.4H450v8.1h14v5h-20.2V68.4h20.1v5H450v7.2h11.9L461.9,85.4z"/>
		<path class="st1" d="M467.6,98.5V68.4h9.3c2.5,0,4.9,0.6,7.1,1.8c2.1,1.2,3.8,3,4.9,5.1c1.2,2.3,1.8,4.9,1.8,7.5v1.4
			c0.1,2.6-0.5,5.2-1.7,7.5c-1.1,2.1-2.8,3.9-4.8,5.1c-2.2,1.2-4.6,1.8-7.1,1.8H467.6z M473.8,73.5v20.1h3c2.1,0.1,4.2-0.8,5.5-2.4
			c1.3-1.6,1.9-3.8,2-6.8v-1.6c0-3.1-0.6-5.4-1.9-6.9c-1.4-1.6-3.4-2.5-5.5-2.4L473.8,73.5z"/>
	</g>
	<g>
		<path class="st1" d="M192.9,139.2c-0.1,2.9-1.4,5.7-3.6,7.6c-2.4,1.9-5.4,2.9-8.5,2.8c-3.5,0.2-6.8-1.3-9.1-3.9
			c-2.2-2.6-3.3-6.2-3.3-10.7v-1.8c-0.1-2.6,0.5-5.2,1.5-7.6c0.9-2.1,2.4-3.9,4.4-5.1c4.7-2.7,10.7-2.3,15,1c2.2,2,3.5,4.8,3.7,7.8
			h-6.2c0-1.6-0.6-3.1-1.6-4.2c-1.2-1-2.7-1.4-4.2-1.3c-1.8-0.1-3.6,0.7-4.6,2.2c-1,1.5-1.6,3.8-1.6,6.9v2.3c0,3.2,0.5,5.6,1.5,7.1
			c1,1.5,2.8,2.4,4.7,2.3c1.5,0.1,3.1-0.3,4.3-1.3c1-1.1,1.6-2.5,1.6-4.1L192.9,139.2z"/>
		<path class="st1" d="M208.1,138.2h-4.9v11H197v-30.1h11.2c3.6,0,6.3,0.8,8.2,2.4c2,1.7,3,4.1,2.9,6.7c0.1,1.8-0.4,3.6-1.3,5.1
			c-1,1.5-2.4,2.6-4,3.3l6.5,12.3v0.3h-6.6L208.1,138.2z M203.2,133.2h5c1.3,0.1,2.6-0.3,3.6-1.2c0.9-0.9,1.3-2,1.3-3.3
			c0.1-1.2-0.4-2.4-1.2-3.3c-1-0.9-2.4-1.3-3.7-1.2h-5L203.2,133.2z"/>
		<path class="st1" d="M248.7,134.9c0.1,2.7-0.5,5.3-1.6,7.8c-1,2.1-2.5,3.9-4.5,5.2c-4.1,2.4-9.2,2.4-13.4,0c-2-1.2-3.6-3-4.5-5.1
			c-1.1-2.4-1.7-5-1.6-7.7v-1.5c-0.1-2.7,0.5-5.4,1.6-7.8c1-2.1,2.5-3.9,4.5-5.2c4.1-2.4,9.2-2.4,13.4,0c2,1.2,3.6,3,4.5,5.2
			c1.1,2.4,1.7,5.1,1.6,7.8L248.7,134.9z M242.4,133.5c0-3.2-0.6-5.6-1.7-7.2c-2-2.7-5.7-3.2-8.4-1.2c-0.5,0.4-0.9,0.8-1.2,1.2
			c-1.1,1.6-1.7,4-1.7,7.1v1.5c-0.1,2.5,0.4,5,1.7,7.1c1.9,2.7,5.6,3.3,8.3,1.5c0.5-0.4,1-0.8,1.4-1.4c1.1-1.6,1.7-4,1.7-7.1V133.5z
			"/>
		<path class="st1" d="M276.6,140.6l4-21.4h6.2l-6.7,30.1h-6.2l-4.9-20.1l-4.9,20.1h-6.2l-6.7-30.1h6.2l4.1,21.4l5-21.4h5.3
			L276.6,140.6z"/>
		<path class="st1" d="M290.2,149.2v-30.1h9.3c2.5,0,4.9,0.6,7.1,1.8c2.1,1.2,3.8,3,4.9,5.1c1.2,2.3,1.8,4.9,1.8,7.5v1.4
			c0.1,2.6-0.5,5.2-1.7,7.5c-1.1,2.1-2.8,3.9-4.9,5.1c-2.2,1.2-4.6,1.8-7.1,1.8L290.2,149.2z M296.4,124.2v20.1h3
			c2.1,0.1,4.2-0.7,5.5-2.4c1.3-1.6,1.9-3.8,2-6.8v-1.6c0-3.1-0.6-5.4-1.9-7c-1.4-1.6-3.4-2.5-5.5-2.4L296.4,124.2z"/>
		<path class="st1" d="M335.7,136.9h-11.9v12.3h-6.2v-30.1h19.6v5h-13.4v7.8h11.9L335.7,136.9z"/>
		<path class="st1" d="M363.6,119.2V139c0.1,2.9-1,5.8-3.1,7.8c-2.1,1.9-4.9,2.9-8.4,2.9c-3,0.2-6-0.8-8.4-2.8
			c-2.1-2-3.3-4.8-3.2-7.7v-20h6.2V139c-0.1,1.6,0.4,3.1,1.4,4.3c1.1,0.9,2.5,1.4,3.9,1.4c3.5,0,5.3-1.8,5.3-5.5v-20L363.6,119.2z"
			/>
		<path class="st1" d="M393.1,149.2h-6.2l-12.1-19.8v19.8h-6.2v-30.1h6.2l12.1,19.8v-19.8h6.2V149.2z"/>
		<path class="st1" d="M398.5,149.2v-30.1h9.3c2.5,0,4.9,0.6,7.1,1.8c2.1,1.2,3.8,3,4.9,5.1c1.2,2.3,1.8,4.9,1.8,7.5v1.4
			c0.1,2.6-0.5,5.2-1.7,7.5c-1.1,2.1-2.8,3.9-4.9,5.1c-2.2,1.2-4.6,1.8-7.1,1.8L398.5,149.2z M404.7,124.2v20.1h3
			c2.1,0.1,4.2-0.7,5.5-2.4c1.3-1.6,1.9-3.8,2-6.8v-1.6c0-3.1-0.6-5.4-1.9-7c-1.4-1.6-3.4-2.5-5.5-2.4L404.7,124.2z"/>
		<path class="st1" d="M432.6,149.2h-6.2v-30.1h6.2V149.2z"/>
		<path class="st1" d="M462.8,149.2h-6.2l-12.1-19.8v19.8h-6.2v-30.1h6.2l12.1,19.8v-19.8h6.2L462.8,149.2z"/>
		<path class="st1" d="M492,145.4c-1.3,1.4-2.9,2.5-4.7,3.1c-2.2,0.8-4.5,1.1-6.8,1.1c-2.4,0.1-4.8-0.5-6.9-1.7
			c-2-1.2-3.6-2.9-4.5-4.9c-1.1-2.4-1.7-5-1.6-7.6v-2c-0.1-2.7,0.5-5.3,1.5-7.8c0.9-2.1,2.4-3.8,4.4-5c2-1.2,4.3-1.8,6.7-1.8
			c3.6,0,6.4,0.8,8.4,2.6c2.1,1.9,3.4,4.6,3.6,7.4h-6c-0.1-1.4-0.8-2.8-1.8-3.8c-1.1-0.9-2.5-1.3-3.9-1.2c-1.9-0.1-3.7,0.8-4.8,2.4
			c-1.1,1.6-1.7,3.9-1.7,7.1v1.9c0,3.2,0.6,5.5,1.8,7.1c1.2,1.6,3.2,2.5,5.3,2.4c2.3,0,4-0.5,5-1.5v-5.2h-5.6v-4.6H492V145.4z"/>
	</g>
</g>
<g>
	<g>
		<path class="st0" d="M196.4,27.6h-18v18.6H169V0.6h29.7v7.6h-20.3V20h18L196.4,27.6z"/>
		<path class="st0" d="M238.7,0.6v30c0,5-1.6,8.9-4.7,11.8c-3.1,2.9-7.4,4.4-12.8,4.4c-5.3,0-9.6-1.4-12.7-4.2
			c-3.1-2.8-4.7-6.7-4.8-11.6V0.6h9.4v30.1c0,3,0.7,5.2,2.1,6.5c1.6,1.5,3.8,2.2,5.9,2.1c5.3,0,8-2.8,8.1-8.3V0.6H238.7z"/>
		<path class="st0" d="M283.5,46.2h-9.4l-18.3-30v30h-9.4V0.6h9.4l18.3,30.1V0.6h9.4L283.5,46.2z"/>
		<path class="st0" d="M291.7,46.2V0.6h14c3.8-0.1,7.5,0.9,10.8,2.7c3.2,1.8,5.7,4.5,7.4,7.7c1.8,3.5,2.7,7.4,2.7,11.3v2.1
			c0.1,3.9-0.8,7.8-2.6,11.3c-1.7,3.2-4.2,5.9-7.4,7.7c-3.3,1.8-7,2.8-10.8,2.8L291.7,46.2z M301.1,8.2v30.5h4.5
			c3.7,0,6.5-1.2,8.4-3.6c1.9-2.4,2.9-5.8,3-10.3v-2.4c0-4.7-1-8.2-2.9-10.5c-1.9-2.4-4.7-3.6-8.4-3.6L301.1,8.2z"/>
	</g>
	<g>
		<path class="st0" d="M343.4,46.2H334V0.6h9.4L343.4,46.2z"/>
	</g>
	<g>
		<path class="st0" d="M385.5,8.2h-14v38h-9.4v-38h-13.8V0.6h37.2V8.2z"/>
		<path class="st0" d="M400.8,46.2h-9.4V0.6h9.4V46.2z"/>
		<path class="st0" d="M447,24.5c0.1,4.1-0.7,8.1-2.4,11.8c-1.4,3.2-3.8,5.9-6.8,7.8c-6.3,3.7-14,3.7-20.3,0c-3-1.9-5.4-4.6-6.9-7.8
			c-1.7-3.6-2.5-7.6-2.5-11.6v-2.3c-0.1-4.1,0.7-8.1,2.4-11.9c1.5-3.2,3.9-6,6.9-7.9c6.3-3.7,14-3.7,20.3,0c3,1.9,5.4,4.6,6.9,7.9
			c1.7,3.7,2.5,7.8,2.4,11.8V24.5z M437.5,22.4c0-4.8-0.9-8.4-2.6-10.9c-3-4-8.7-4.9-12.7-1.9c-0.7,0.5-1.4,1.2-1.9,1.9
			c-1.7,2.5-2.6,6-2.6,10.8v2.2c0,4.7,0.9,8.3,2.6,10.8c2.8,4.1,8.5,5.1,12.5,2.2c0.8-0.6,1.5-1.3,2.1-2.1c1.7-2.5,2.5-6.1,2.6-10.8
			V22.4z"/>
		<path class="st0" d="M490.9,46.2h-9.4l-18.3-30v30h-9.4V0.6h9.4l18.3,30.1V0.6h9.4V46.2z"/>
	</g>
</g>
</svg>
