<svg id="Calque_1" data-name="Calque 1" xmlns="http://www.w3.org/2000/svg" viewBox="0 0 187.94 188"><defs><style>.cls-1{fill:#d91b5c;}.cls-2{fill:#fff;}.cls-3{fill:#3f3250;}.cls-4{opacity:0.2;}.cls-5{fill:#231f20;}</style></defs><title>goalb</title><g id="Calque_1-2" data-name="Calque 1-2"><circle class="cls-1" cx="93.97" cy="93.97" r="93.97"/><path class="cls-2" d="M93.92,14.63A79.37,79.37,0,1,0,173.29,94h0a79.37,79.37,0,0,0-79.34-79.4Zm0,146.42a67,67,0,1,1,67-67h0a67,67,0,0,1-67,67Z" transform="translate(0 -0.03)"/><circle class="cls-2" cx="93.97" cy="93.97" r="47.79"/><circle class="cls-3" cx="93.97" cy="93.97" r="28.99"/><g class="cls-4"><path class="cls-5" d="M187.92,94a94,94,0,0,0-94-94V188A94,94,0,0,0,187.92,94Z" transform="translate(0 -0.03)"/></g></g></svg>