<svg xmlns="http://www.w3.org/2000/svg" viewBox="0 0 107.25 168.31"><defs><style>.cls-1{isolation:isolate;}.cls-2{fill:#222;}.cls-3{opacity:0.1;mix-blend-mode:multiply;}.cls-4{fill:#231f20;}</style></defs><title>Sans titre - 1</title><g class="cls-1"><g id="Calque_1" data-name="Calque 1"><path class="cls-2" d="M705.05,425.32a22.4,22.4,0,0,1-5.52,3.56,40.6,40.6,0,0,1-16.89,3.49,39.47,39.47,0,0,1-15.26-2.88,23,23,0,0,1-6.41-4,1.22,1.22,0,0,0-2,1v0l1,6.33a2.36,2.36,0,0,0,1,1.62,40,40,0,0,0,44.13,0,2.35,2.35,0,0,0,1-1.62l1-6.33a2.43,2.43,0,0,0,0-.33A1.22,1.22,0,0,0,705.05,425.32Z" transform="translate(-629.38 -300.83)"/><path class="cls-2" d="M701.38,439.39a42.24,42.24,0,0,1-36.75,0,2.37,2.37,0,0,0-3.35,2.5h0a2.35,2.35,0,0,0,1.13,1.68,39.86,39.86,0,0,0,41.19,0,2.37,2.37,0,0,0-2.22-4.18Z" transform="translate(-629.38 -300.83)"/><path class="cls-2" d="M700.11,448.15a42.14,42.14,0,0,1-34.23,0,2.37,2.37,0,0,0-3.27,2.54l0,.15a2.36,2.36,0,0,0,1.22,1.73,39.69,39.69,0,0,0,38.29,0,2.36,2.36,0,0,0,1.22-1.73l0-.15A2.37,2.37,0,0,0,700.11,448.15Z" transform="translate(-629.38 -300.83)"/><path class="cls-2" d="M697.44,457.4a41.91,41.91,0,0,1-28.88,0,2.38,2.38,0,0,0-2.75,3.58A17.55,17.55,0,0,0,678,468.8a36.34,36.34,0,0,0,10,0A17.56,17.56,0,0,0,700.19,461,2.38,2.38,0,0,0,697.44,457.4Z" transform="translate(-629.38 -300.83)"/><path class="cls-2" d="M681.71,300.84a53.61,53.61,0,0,0-38.52,89.52A49.29,49.29,0,0,1,652,404l5.2,12.16a20.82,20.82,0,0,0,11.11,11.06,35.92,35.92,0,0,0,11.74,2.61v-9.52c-2.76-4.92-15.45-28-15.45-36.55a18.38,18.38,0,0,1,36.76,0c0,8.55-12.7,31.63-15.45,36.55v9.47a37.14,37.14,0,0,0,12.58-3.14,20.62,20.62,0,0,0,10.36-10.73l5.13-12a48.62,48.62,0,0,1,8.76-13.47,53.61,53.61,0,0,0-41.06-89.56Z" transform="translate(-629.38 -300.83)"/><path class="cls-2" d="M683,371.22a12.54,12.54,0,0,0-12.53,12.53c0,4.05,4.76,14.67,9.6,24.14V395a2.93,2.93,0,1,1,5.86,0v12.89c4.84-9.47,9.6-20.09,9.6-24.14A12.54,12.54,0,0,0,683,371.22Z" transform="translate(-629.38 -300.83)"/><g class="cls-3"><path class="cls-4" d="M683,300.85v64.51h0a18.4,18.4,0,0,1,18.38,18.38c0,8.55-12.7,31.64-15.45,36.55v9.47a37.14,37.14,0,0,0,12.58-3.14,20.62,20.62,0,0,0,10.36-10.73l5.13-12a48.62,48.62,0,0,1,8.76-13.47A53.6,53.6,0,0,0,683,300.85Z" transform="translate(-629.38 -300.83)"/><path class="cls-4" d="M683,371.22h0v20.86a2.93,2.93,0,0,1,2.93,2.93v12.89c4.84-9.47,9.6-20.09,9.6-24.14A12.54,12.54,0,0,0,683,371.22Z" transform="translate(-629.38 -300.83)"/><path class="cls-4" d="M705.05,425.32a22.4,22.4,0,0,1-5.52,3.56A40.49,40.49,0,0,1,683,432.36v8.75h0a41.46,41.46,0,0,0,22.06-6.64,2.35,2.35,0,0,0,1-1.62l1-6.33a2.43,2.43,0,0,0,0-.33A1.22,1.22,0,0,0,705.05,425.32Z" transform="translate(-629.38 -300.83)"/><path class="cls-4" d="M701.38,439.39A43,43,0,0,1,683,443.59h0v5.71h0a41.33,41.33,0,0,0,20.6-5.73,2.37,2.37,0,0,0-2.22-4.18Z" transform="translate(-629.38 -300.83)"/><path class="cls-4" d="M700.11,448.15A42.85,42.85,0,0,1,683,451.78h0v5.71h0a41.07,41.07,0,0,0,19.14-4.92,2.36,2.36,0,0,0,1.22-1.73l0-.15A2.37,2.37,0,0,0,700.11,448.15Z" transform="translate(-629.38 -300.83)"/><path class="cls-4" d="M697.44,457.4A42.45,42.45,0,0,1,683,460h0v9.18h0a34.94,34.94,0,0,0,5-.35A17.56,17.56,0,0,0,700.19,461,2.38,2.38,0,0,0,697.44,457.4Z" transform="translate(-629.38 -300.83)"/></g></g></g></svg>