<svg id="Layer_1" data-name="Layer 1" xmlns="http://www.w3.org/2000/svg" viewBox="0 0 345.39 418.66"><defs><style>.cls-1{fill:#fff;}</style></defs><title>eorigin_logo_notext</title><path class="cls-1" d="M977.35,745.2a153.93,153.93,0,0,0,15.74-41.42c-3.4.46-6,.73-8.51,1.17-95.38,16.32-183.73-44.87-200.33-139.88-10.14-58,6.41-108.6,46.91-151.38,12.13-12.82,23.6-26.29,36.18-38.63,18.24-17.91,38.86-33,60.28-46.87.77-.5,1.65-.82,3.36-1.65a154.7,154.7,0,0,0-14.93,39.37c7.69-1,14.51-2.07,21.36-2.76,39-3.93,75.41,4.35,108.28,25.4,47.69,30.54,75.15,74.29,80.25,131,4.69,52-11.66,97.08-47.18,135.37-10.53,11.34-19.94,23.73-30.67,34.86C1029.45,709.13,996.88,734.21,977.35,745.2ZM1022.47,535a68.27,68.27,0,0,0-68.84-68.34c-37.29.09-67.86,30.94-67.83,68.45a68.52,68.52,0,0,0,68.43,68.35C991.74,603.48,1022.54,572.59,1022.47,535Z" transform="translate(-781.34 -326.54)"/></svg>