<svg id="Layer_1" data-name="Layer 1" xmlns="http://www.w3.org/2000/svg" viewBox="0 0 87.23 56.25"><defs><style>.cls-1{fill:#1a4f99;}.cls-2{fill:#4ba1f1;}.cls-3{fill:#fcfdfb;}.cls-4{fill:#4aa1f1;}.cls-5{fill:#fefefe;}.cls-6{fill:#fff;}.cls-7{fill:#5c9cd4;}.cls-8{fill:#165097;}</style></defs><title>666</title><path class="cls-1" d="M227.41,262.43h0a6.22,6.22,0,0,0-2.58-1.13,9.11,9.11,0,0,0-6.56,1.27,13.14,13.14,0,0,1-8.69,1.53,13.92,13.92,0,0,1-5.13-25.59,13.65,13.65,0,0,1,14.05-.26,10,10,0,0,0,5.36,1.32,7,7,0,0,0,3.78-12.38A27.9,27.9,0,0,0,197.71,226a27.41,27.41,0,0,0-14,21.81A26.76,26.76,0,0,0,188.39,266a27.69,27.69,0,0,0,21.35,12.43h3.76a29.3,29.3,0,0,0,13.06-4.16,7.1,7.1,0,0,0,.85-11.86Zm-2,9.34a25.46,25.46,0,1,1,.26-42.71,4,4,0,0,1,1.67,4.59h0a3.78,3.78,0,0,1-1.9,2.67h0a5.56,5.56,0,0,1-5.6-.39,16.92,16.92,0,0,0-7.27-2.15,16.57,16.57,0,0,0-3.24,32.95,15.81,15.81,0,0,0,10.4-1.92,7.1,7.1,0,0,1,3.1-1,4.59,4.59,0,0,1,2.8.69,3.65,3.65,0,0,1,1.72,2.58A4,4,0,0,1,225.45,271.78Z" transform="translate(-183.6 -222.2)"/><path class="cls-2" d="M229.51,265a1.07,1.07,0,0,1,.24-.65,22.79,22.79,0,0,0,4.8-14.45c0-.69-.14-1-.92-1-5,0-10,0-15.06,0a1,1,0,0,1-1.17-.75A6.1,6.1,0,1,0,206,252.67a6,6,0,0,0,5.51,3.81,6.23,6.23,0,0,0,5.85-4c.18-.47.38-.75.94-.71.41,0,.82-.08,1.24-.08h11c1.12,0,1.26.12,1.1,1.24a20,20,0,0,1-2.46,7.26c-.47.8-.78,1.81-1.78,2.22h0A7,7,0,0,1,229.51,265Z" transform="translate(-183.6 -222.2)"/><path class="cls-3" d="M221.8,270.85a22.77,22.77,0,0,1-26.14-36.46,22.12,22.12,0,0,1,18.15-6.74A21.85,21.85,0,0,1,227,233.34c.13.12.28.22.42.33a4,4,0,0,0-1.67-4.59,25.22,25.22,0,0,0-17.24-4,25.46,25.46,0,1,0,17,46.69,4,4,0,0,0,1.93-4.71A29.37,29.37,0,0,1,221.8,270.85Z" transform="translate(-183.6 -222.2)"/><path class="cls-4" d="M213.8,227.66a22.12,22.12,0,0,0-18.15,6.74,22.77,22.77,0,0,0,26.14,36.46,29.37,29.37,0,0,0,5.58-3.78,3.65,3.65,0,0,0-1.72-2.58,9.47,9.47,0,0,1-3.65,3c-7.53,4.13-15,3.84-22-1.13a19.8,19.8,0,0,1-3.39-28.82c5.4-6.24,12.22-8.35,20.26-6.47a19.46,19.46,0,0,1,8.3,4.45c.23.2.55.41.26.8h0a3.78,3.78,0,0,0,1.9-2.67h0c-.14-.11-.29-.21-.42-.33A21.85,21.85,0,0,0,213.8,227.66Z" transform="translate(-183.6 -222.2)"/><path class="cls-5" d="M225.21,235.53a19.46,19.46,0,0,0-8.3-4.45c-8-1.88-14.86.23-20.26,6.47a19.8,19.8,0,0,0,3.39,28.82c7,5,14.42,5.26,22,1.13a9.47,9.47,0,0,0,3.65-3,4.59,4.59,0,0,0-2.8-.69,7.1,7.1,0,0,0-3.1,1,15.81,15.81,0,0,1-10.4,1.92,16.57,16.57,0,0,1,3.24-32.95,16.92,16.92,0,0,1,7.27,2.15,5.56,5.56,0,0,0,5.6.39h0C225.76,235.95,225.44,235.73,225.21,235.53Z" transform="translate(-183.6 -222.2)"/><circle class="cls-6" cx="71.08" cy="28.13" r="16.15"/><path class="cls-7" d="M254.65,261.9a2.13,2.13,0,0,1,.22-1.21,7.35,7.35,0,0,0-.44-6.26c-1-2-2.09-4-3-6.07a17,17,0,0,1-1.26-3.78,3.82,3.82,0,0,1,.61-2.67,13.1,13.1,0,0,1,3-3.17h.2c.06.79-.2,1.55-.22,2.33a8.61,8.61,0,0,0,1,4.33c1.44,2.74,2.67,5.59,3.95,8.41a4.52,4.52,0,0,1-.85,5.09,18.56,18.56,0,0,1-2.82,2.76c-.09.07-.2.12-.23.25Z" transform="translate(-183.6 -222.2)"/><path class="cls-8" d="M243.82,244.86a7.49,7.49,0,0,1,2.47-3.36c.12-.1.24-.29.42-.21s.07.3,0,.45a7.48,7.48,0,0,0,.82,5.16,65.28,65.28,0,0,1,2.9,6.29,3.43,3.43,0,0,1-.31,3.33,13.57,13.57,0,0,1-2.93,3,4.78,4.78,0,0,1,.32-1.69,5.27,5.27,0,0,0-.31-3.93c-.9-2-2-4-2.87-6-.21-.48-.37-1-.56-1.47Z" transform="translate(-183.6 -222.2)"/><path class="cls-8" d="M265.67,255.19a9.1,9.1,0,0,1-3.14,4l-.24.18a.83.83,0,0,1-.17.05,7.86,7.86,0,0,1,.41-1.91,4.65,4.65,0,0,0-.22-3.17c-.8-1.94-1.78-3.8-2.69-5.68a8.91,8.91,0,0,1-.85-2.39,4.07,4.07,0,0,1,1-3.37,11.21,11.21,0,0,1,1.38-1.38c.12-.1.26-.29.42-.19s.08.31,0,.46a7.46,7.46,0,0,0-.09,2.74,7.18,7.18,0,0,0,.77,2.1c1.06,2.13,2.09,4.27,3,6.48.13.33.25.67.37,1Z" transform="translate(-183.6 -222.2)"/></svg>