<svg id="Calque_1" data-name="Calque 1" xmlns="http://www.w3.org/2000/svg" viewBox="0 0 49.07 50.22"><defs><style>.cls-1{fill:#fff;}</style></defs><title>steemit</title><path class="cls-1" d="M2.83,44.46,9,39.11c.89-.78.9-.77.08-1.64A34.52,34.52,0,0,1,1.43,25.91,17.73,17.73,0,0,1,10.65,2.59l.42-.17A28.17,28.17,0,0,1,24.53.06a42.58,42.58,0,0,1,15.71,4.1c.52.24.53.4.22.85-1.23,1.78-2.4,3.6-3.65,5.37-.34.49-.23.65.22.94A28.72,28.72,0,0,1,45.37,19c6,8.56,4.53,19.1-3.68,25.63A26.08,26.08,0,0,1,28.12,50c-8,.92-15.49-1-22.71-4.26-.79-.36-1.56-.76-2.34-1.14Zm9.71-2c.07.2.21.2.33.24a30.4,30.4,0,0,0,9.37,1.88,53.63,53.63,0,0,0,9.25-.65,14.34,14.34,0,0,0,11.8-18.15A14.53,14.53,0,0,0,26.17,15.69a14.3,14.3,0,0,0-9.28,21.72c.61,1,.61,1-.18,1.78a18.62,18.62,0,0,1-4.16,3.23Z" transform="translate(0.03 0.01)"/></svg>