<svg id="Layer_1" data-name="Layer 1" xmlns="http://www.w3.org/2000/svg" viewBox="0 0 113.76 120"><defs><style>.cls-1{fill:#fff;}</style></defs><title>ttttron-logo</title><path class="cls-1" d="M537.8,208.88v1.44c-.54.58-1.12,1.14-1.62,1.75q-26,31.65-52,63.32c-4.09,5-8.36,9.86-12.17,15.09h-.48c-.45-1-.94-2-1.35-3.07Q447.79,231,425.37,174.57a15.43,15.43,0,0,1-1.33-4.09h2.88a12.09,12.09,0,0,0,3.24.84q40.8,7.52,81.62,15a9.19,9.19,0,0,1,5,2.59C523.72,195.6,530.78,202.23,537.8,208.88Zm-66.93,61.56.47-.09c.17-1,.39-2,.51-3,1.84-15.3,3.64-30.61,5.54-45.91a3.8,3.8,0,0,0-1.51-3.91c-12-9.85-23.87-19.78-35.81-29.66a3.76,3.76,0,0,0-2.54-1.35Zm53.86-55.27a6.71,6.71,0,0,0-3.45.18c-11,2-22,4-33,6-4.12.75-4.08.74-4.58,4.9q-2.08,17.59-4.23,35.2c-.37,3.12-.72,6.25-1.08,9.37l.52.22Zm-20.07-22.32-.13-.82-61.42-11.31-.22.56,37.9,31.45Zm-13.32,20.08.28.77c11.34-2,22.7-4,34-6.51-4.3-4.15-8.1-8.55-12.83-12.16Z" transform="translate(-424.04 -170.48)"/></svg>