<svg id="Calque_1" data-name="Calque 1" xmlns="http://www.w3.org/2000/svg" viewBox="0 0 63.82 49.99"><defs><style>.cls-1{fill:#fff;}</style></defs><title>utopian</title><path class="cls-1" d="M8.39,24.18A47.44,47.44,0,0,0,23,37.18a21.56,21.56,0,0,1-.88-14.36,21.25,21.25,0,0,1,8.44-11.74,72.56,72.56,0,0,0-15.2-2.41A116,116,0,0,0,0,8.79c.47-.35.93-.71,1.41-1A47,47,0,0,1,7.84,4.14a45.43,45.43,0,0,1,13.1-4A19.44,19.44,0,0,1,23.41,0h5.94a21.07,21.07,0,0,1,5,.69,52.43,52.43,0,0,1,18,7.81,27.74,27.74,0,0,1,8.15,8.62,22.8,22.8,0,0,1,3,7.87A21.32,21.32,0,0,1,46.18,49.64l-.34.06a21.64,21.64,0,0,1-7.11-.07,34.9,34.9,0,0,1-12-4.27,40.87,40.87,0,0,1-8-6.12,46.64,46.64,0,0,1-7.61-9.46A32.05,32.05,0,0,1,8.39,24.18Zm47.68,4.54A13.49,13.49,0,1,0,42.58,42.21h0A13.45,13.45,0,0,0,56.07,28.79S56.07,28.74,56.07,28.72Z" transform="translate(0 0.03)"/><path class="cls-1" d="M50.71,28.73a8.08,8.08,0,1,1-8.09-8.12A8.08,8.08,0,0,1,50.71,28.73Z" transform="translate(0 0.03)"/></svg>