<svg id="Layer_1" data-name="Layer 1" xmlns="http://www.w3.org/2000/svg" viewBox="0 0 1227.36 540.59"><defs><style>.cls-1{fill:#fff;}</style></defs><title>ww1280px-Wii.svg</title><path class="cls-1" d="M1080.44,300.86c-5.49.08-11-.6-16.47-.62q-40.74-.17-81.48-.15c-14,0-14,0-17.32,13.26-27.5,108.1-54.86,216.24-83.29,324.1-2.54,9.63-5.3,19.2-8.27,29.91-.8-2-1.19-2.75-1.4-3.54Q840.59,543.73,809,423.65c-7.14-27-13.62-54.22-22.93-80.58-7.22-20.47-20.43-35.79-41.42-43.15-11.48-4-23.43-3.89-35.5-3.18-22.53,1.32-38.78,12.56-50.89,30.78-7.89,11.85-11.24,25.56-15,39-23.55,83.87-44.86,168.35-67.16,252.56-4.42,16.7-8.72,33.42-13.36,51.2-.75-2.25-1.12-3.17-1.37-4.13Q531.17,548,501,429.83c-10.63-41.55-21.45-83.05-32.12-124.59-.76-2.95-1.89-4.41-5.31-4.4-10.82,0-21.64-.58-32.46-.54-24.82.08-49.64.48-74.46.53-4.3,0-4.82,1-3.69,5.06,12,42.4,23.71,84.87,35.58,127.3q30,107.12,60,214.21c9.73,34.57,19.1,69.26,30.46,103.35,7.35,22,21.71,38.61,41.34,50.88,14.25,8.92,30,8.94,45.88,8.49,14.56-.4,27.28-5.48,38.56-14.43,17.87-14.16,27.66-33.52,33.9-54.75,22.82-77.7,43.4-156,65.28-234,4.62-16.44,9.4-32.82,14.16-49.41,1.85,1.27,1.8,2.92,2.19,4.31q5.37,19.22,10.63,38.46c17.66,64.29,35.17,128.62,53,192.85,6.68,24,12,48.67,23.07,71.09,20.53,41.44,54.81,54.06,95.81,42.67,26.9-7.48,43.38-27.74,53.12-53.16,5.7-14.89,10.17-30.27,14.64-45.59,31.17-107,60.7-214.37,90.65-321.67,7.51-26.9,15-53.81,22.66-80.67C1085,302.16,1084.56,300.79,1080.44,300.86Z" transform="translate(-352.46 -270.34)"/><path class="cls-1" d="M1252.21,630.6q0-85.73.1-171.44c0-4.18-1.13-5.27-5.28-5.25q-49.48.24-99,0c-4.57,0-5.43,1.39-5.43,5.63q.16,170.94,0,341.88c0,4.39,1.11,5.6,5.54,5.58,32.66-.19,65.31-.25,98,0,5.37.05,6.18-1.69,6.16-6.48Q1252.09,715.57,1252.21,630.6Z" transform="translate(-352.46 -270.34)"/><path class="cls-1" d="M1473.37,459.11c0-4.27-1.29-5.22-5.35-5.2q-49,.24-98,0c-4.89,0-6.41.95-6.39,6.19.21,56.81.13,113.62.13,170.44q0,85.47-.1,170.94c0,4.45,1.21,5.54,5.58,5.52q49.23-.29,98.46,0c4.31,0,5.64-1,5.64-5.49Q1473.19,630.3,1473.37,459.11Z" transform="translate(-352.46 -270.34)"/><path class="cls-1" d="M1400.75,272.27c-32.62,6.8-54.16,40.66-46.84,72.55,7.89,34.39,41.94,55.62,77,47.68,32.2-7.28,51.23-29.88,51.28-60.88,0-14.64-4.55-27-12.76-36.87C1451.18,272.88,1427.47,266.7,1400.75,272.27Z" transform="translate(-352.46 -270.34)"/><path class="cls-1" d="M1180.21,272.1c-36.06,6.85-58,47.23-44.71,81.22,11.74,29.95,42.42,46.29,73.85,39.33,32.46-7.2,51.78-29.93,51.83-61,0-14.22-4.44-26.93-12-36.13C1230.92,273.54,1207.36,266.94,1180.21,272.1Z" transform="translate(-352.46 -270.34)"/><path class="cls-1" d="M1579.75,768.55c0-1.13.23-2.35-1-3.11-3.78-2.31-11.15.44-12.39,4.66a191.32,191.32,0,0,1-8,23.52c-2.35-7.82-4.36-14.63-6.44-21.42-2.21-7.26-2.24-7.13-9.78-7.08-2.91,0-4.15.69-4.1,3.89q.26,17,0,34c0,3.09,1,4,4,4s4.12-.85,4.07-4c-.11-6.46-.22-12.95,1-19.53,1.52,1.29,1.53,3,2,4.53q2.27,7.38,4.56,14.76c.88,2.78,3,3.9,5.72,3.93s3.72-1.89,4.43-4c.52-1.58.9-3.2,1.4-4.79,1.63-5.12,3.29-10.23,4.94-15.35l1.74.19c0,6.91.12,13.82,0,20.72-.08,3.08,1.39,3.54,4,3.51s4.09-.25,4-3.43C1579.68,791.87,1579.77,780.2,1579.75,768.55Z" transform="translate(-352.46 -270.34)"/><path class="cls-1" d="M1532,765.19c-8.82,0-17.63,0-26.45,0-2,0-3.66,0-3.62,2.76,0,2.38.75,3.89,3.33,4a54.23,54.23,0,0,0,6,0c2.82-.24,3.85.83,3.73,3.68-.19,4.48,0,9,0,13.48,0,4.82.16,9.65,0,14.47-.14,3.2,1.55,3.4,4,3.42s4.07-.33,4-3.47c-.18-7-.13-14,0-21,.05-3.29-1.31-7.21.65-9.71,1.79-2.26,5.64-.68,8.57-.87s3.72-1.57,3.72-4.18C1535.8,764.88,1533.83,765.19,1532,765.19Z" transform="translate(-352.46 -270.34)"/></svg>